<svg xmlns="http://www.w3.org/2000/svg" viewBox="0 0 1920 1080" width="1920" height="1080">
<style>
  text { font-family: 'Courier New', Courier, monospace; }
  .title { font-family: sans-serif; font-weight: 700; }
  .label { font-family: sans-serif; font-size: 11px; fill: #95a5a6; }
  .unit-letter { font-family: sans-serif; font-weight: 700; fill: white; }
  .header-text { font-family: sans-serif; fill: #ecf0f1; }
  .event-text { font-family: sans-serif; fill: #ecf0f1; }
  .roster-name { font-family: sans-serif; font-size: 12px; }
  .coord-label { font-family: monospace; font-size: 10px; fill: #95a5a6; }
</style>
<rect width="1920" height="1080" fill="#0f0f1a"/>
<rect x="0" y="0" width="1920" height="60" fill="#16213e"/>
<text x="20" y="38" class="header-text" font-size="14" letter-spacing="2" fill="#95a5a6">LEMON SKIRMISH</text>
<text x="960" y="38" class="header-text title" font-size="20" text-anchor="middle" fill="#ecf0f1">Round 1 &#xB7; Step 3</text>
<text x="1900" y="38" class="header-text" font-size="16" text-anchor="end" fill="#3498db">blue_1 (Soldier)</text>
<rect x="508" y="78" width="903" height="903" fill="#1a1a2e" rx="3"/>
<text x="554" y="74" class="coord-label" text-anchor="middle">0</text>
<text x="644" y="74" class="coord-label" text-anchor="middle">1</text>
<text x="734" y="74" class="coord-label" text-anchor="middle">2</text>
<text x="824" y="74" class="coord-label" text-anchor="middle">3</text>
<text x="914" y="74" class="coord-label" text-anchor="middle">4</text>
<text x="1004" y="74" class="coord-label" text-anchor="middle">5</text>
<text x="1094" y="74" class="coord-label" text-anchor="middle">6</text>
<text x="1184" y="74" class="coord-label" text-anchor="middle">7</text>
<text x="1274" y="74" class="coord-label" text-anchor="middle">8</text>
<text x="1364" y="74" class="coord-label" text-anchor="middle">9</text>
<text x="502" y="128" class="coord-label" text-anchor="end">0</text>
<text x="502" y="218" class="coord-label" text-anchor="end">1</text>
<text x="502" y="308" class="coord-label" text-anchor="end">2</text>
<text x="502" y="398" class="coord-label" text-anchor="end">3</text>
<text x="502" y="488" class="coord-label" text-anchor="end">4</text>
<text x="502" y="578" class="coord-label" text-anchor="end">5</text>
<text x="502" y="668" class="coord-label" text-anchor="end">6</text>
<text x="502" y="758" class="coord-label" text-anchor="end">7</text>
<text x="502" y="848" class="coord-label" text-anchor="end">8</text>
<text x="502" y="938" class="coord-label" text-anchor="end">9</text>
<rect x="510" y="80" width="89" height="89" fill="#16213e"/>
<rect x="600" y="80" width="89" height="89" fill="#16213e"/>
<rect x="690" y="80" width="89" height="89" fill="#3d3520"/>
<polygon points="734,110 720,138 748,138" fill="#5a5030" opacity="0.7"/>
<rect x="780" y="80" width="89" height="89" fill="#16213e"/>
<rect x="870" y="80" width="89" height="89" fill="#16213e"/>
<rect x="960" y="80" width="89" height="89" fill="#16213e"/>
<rect x="1050" y="80" width="89" height="89" fill="#16213e"/>
<rect x="1140" y="80" width="89" height="89" fill="#2c3e50"/>
<circle cx="1167" cy="141" r="17" fill="#3d5166" opacity="0.7"/>
<circle cx="1192" cy="124" r="16" fill="#3d5166" opacity="0.7"/>
<rect x="1230" y="80" width="89" height="89" fill="#16213e"/>
<rect x="1320" y="80" width="89" height="89" fill="#16213e"/>
<rect x="510" y="170" width="89" height="89" fill="#16213e"/>
<rect x="600" y="170" width="89" height="89" fill="#16213e"/>
<rect x="690" y="170" width="89" height="89" fill="#16213e"/>
<rect x="780" y="170" width="89" height="89" fill="#2c3e50"/>
<circle cx="807" cy="231" r="17" fill="#3d5166" opacity="0.7"/>
<circle cx="832" cy="214" r="16" fill="#3d5166" opacity="0.7"/>
<rect x="870" y="170" width="89" height="89" fill="#16213e"/>
<rect x="960" y="170" width="89" height="89" fill="#16213e"/>
<rect x="1050" y="170" width="89" height="89" fill="#16213e"/>
<rect x="1140" y="170" width="89" height="89" fill="#16213e"/>
<rect x="1230" y="170" width="89" height="89" fill="#16213e"/>
<rect x="1320" y="170" width="89" height="89" fill="#16213e"/>
<rect x="510" y="260" width="89" height="89" fill="#16213e"/>
<rect x="600" y="260" width="89" height="89" fill="#16213e"/>
<rect x="690" y="260" width="89" height="89" fill="#16213e"/>
<rect x="780" y="260" width="89" height="89" fill="#16213e"/>
<rect x="870" y="260" width="89" height="89" fill="#16213e"/>
<rect x="960" y="260" width="89" height="89" fill="#16213e"/>
<rect x="1050" y="260" width="89" height="89" fill="#16213e"/>
<rect x="1140" y="260" width="89" height="89" fill="#2c3e50"/>
<circle cx="1167" cy="321" r="17" fill="#3d5166" opacity="0.7"/>
<circle cx="1192" cy="304" r="16" fill="#3d5166" opacity="0.7"/>
<rect x="1230" y="260" width="89" height="89" fill="#16213e"/>
<rect x="1320" y="260" width="89" height="89" fill="#16213e"/>
<rect x="510" y="350" width="89" height="89" fill="#16213e"/>
<rect x="600" y="350" width="89" height="89" fill="#16213e"/>
<rect x="690" y="350" width="89" height="89" fill="#16213e"/>
<rect x="780" y="350" width="89" height="89" fill="#16213e"/>
<rect x="870" y="350" width="89" height="89" fill="#16213e"/>
<rect x="960" y="350" width="89" height="89" fill="#2c3e50"/>
<circle cx="987" cy="411" r="17" fill="#3d5166" opacity="0.7"/>
<circle cx="1012" cy="394" r="16" fill="#3d5166" opacity="0.7"/>
<rect x="1050" y="350" width="89" height="89" fill="#2c3e50"/>
<circle cx="1077" cy="411" r="17" fill="#3d5166" opacity="0.7"/>
<circle cx="1102" cy="394" r="16" fill="#3d5166" opacity="0.7"/>
<rect x="1140" y="350" width="89" height="89" fill="#34495e"/>
<line x1="1140" y1="439" x2="1229" y2="350" stroke="#4a6274" stroke-width="1" opacity="0.5"/>
<line x1="1140" y1="394" x2="1184" y2="350" stroke="#4a6274" stroke-width="1" opacity="0.5"/>
<line x1="1184" y1="439" x2="1229" y2="394" stroke="#4a6274" stroke-width="1" opacity="0.5"/>
<rect x="1230" y="350" width="89" height="89" fill="#16213e"/>
<rect x="1320" y="350" width="89" height="89" fill="#16213e"/>
<rect x="510" y="440" width="89" height="89" fill="#16213e"/>
<rect x="600" y="440" width="89" height="89" fill="#16213e"/>
<rect x="690" y="440" width="89" height="89" fill="#2c3e50"/>
<circle cx="717" cy="501" r="17" fill="#3d5166" opacity="0.7"/>
<circle cx="742" cy="484" r="16" fill="#3d5166" opacity="0.7"/>
<rect x="780" y="440" width="89" height="89" fill="#34495e"/>
<line x1="780" y1="529" x2="869" y2="440" stroke="#4a6274" stroke-width="1" opacity="0.5"/>
<line x1="780" y1="484" x2="824" y2="440" stroke="#4a6274" stroke-width="1" opacity="0.5"/>
<line x1="824" y1="529" x2="869" y2="484" stroke="#4a6274" stroke-width="1" opacity="0.5"/>
<rect x="870" y="440" width="89" height="89" fill="#2c3e50"/>
<circle cx="897" cy="501" r="17" fill="#3d5166" opacity="0.7"/>
<circle cx="922" cy="484" r="16" fill="#3d5166" opacity="0.7"/>
<rect x="960" y="440" width="89" height="89" fill="#16213e"/>
<rect x="1050" y="440" width="89" height="89" fill="#16213e"/>
<rect x="1140" y="440" width="89" height="89" fill="#16213e"/>
<rect x="1230" y="440" width="89" height="89" fill="#16213e"/>
<rect x="1320" y="440" width="89" height="89" fill="#16213e"/>
<rect x="510" y="530" width="89" height="89" fill="#16213e"/>
<rect x="600" y="530" width="89" height="89" fill="#16213e"/>
<rect x="690" y="530" width="89" height="89" fill="#2c3e50"/>
<circle cx="717" cy="591" r="17" fill="#3d5166" opacity="0.7"/>
<circle cx="742" cy="574" r="16" fill="#3d5166" opacity="0.7"/>
<rect x="780" y="530" width="89" height="89" fill="#34495e"/>
<line x1="780" y1="619" x2="869" y2="530" stroke="#4a6274" stroke-width="1" opacity="0.5"/>
<line x1="780" y1="574" x2="824" y2="530" stroke="#4a6274" stroke-width="1" opacity="0.5"/>
<line x1="824" y1="619" x2="869" y2="574" stroke="#4a6274" stroke-width="1" opacity="0.5"/>
<rect x="870" y="530" width="89" height="89" fill="#2c3e50"/>
<circle cx="897" cy="591" r="17" fill="#3d5166" opacity="0.7"/>
<circle cx="922" cy="574" r="16" fill="#3d5166" opacity="0.7"/>
<rect x="960" y="530" width="89" height="89" fill="#1a3a5c"/>
<path d="M962,552 Q982,549 1004,552 Q1026,555 1047,552" stroke="#2a6a9c" stroke-width="1" fill="none" opacity="0.6"/>
<path d="M962,574 Q982,571 1004,574 Q1026,577 1047,574" stroke="#2a6a9c" stroke-width="1" fill="none" opacity="0.6"/>
<path d="M962,596 Q982,593 1004,596 Q1026,599 1047,596" stroke="#2a6a9c" stroke-width="1" fill="none" opacity="0.6"/>
<rect x="1050" y="530" width="89" height="89" fill="#1a3a5c"/>
<path d="M1052,552 Q1072,549 1094,552 Q1116,555 1137,552" stroke="#2a6a9c" stroke-width="1" fill="none" opacity="0.6"/>
<path d="M1052,574 Q1072,571 1094,574 Q1116,577 1137,574" stroke="#2a6a9c" stroke-width="1" fill="none" opacity="0.6"/>
<path d="M1052,596 Q1072,593 1094,596 Q1116,599 1137,596" stroke="#2a6a9c" stroke-width="1" fill="none" opacity="0.6"/>
<rect x="1140" y="530" width="89" height="89" fill="#16213e"/>
<rect x="1230" y="530" width="89" height="89" fill="#16213e"/>
<rect x="1320" y="530" width="89" height="89" fill="#16213e"/>
<rect x="510" y="620" width="89" height="89" fill="#16213e"/>
<rect x="600" y="620" width="89" height="89" fill="#16213e"/>
<rect x="690" y="620" width="89" height="89" fill="#34495e"/>
<line x1="690" y1="709" x2="779" y2="620" stroke="#4a6274" stroke-width="1" opacity="0.5"/>
<line x1="690" y1="664" x2="734" y2="620" stroke="#4a6274" stroke-width="1" opacity="0.5"/>
<line x1="734" y1="709" x2="779" y2="664" stroke="#4a6274" stroke-width="1" opacity="0.5"/>
<rect x="780" y="620" width="89" height="89" fill="#34495e"/>
<line x1="780" y1="709" x2="869" y2="620" stroke="#4a6274" stroke-width="1" opacity="0.5"/>
<line x1="780" y1="664" x2="824" y2="620" stroke="#4a6274" stroke-width="1" opacity="0.5"/>
<line x1="824" y1="709" x2="869" y2="664" stroke="#4a6274" stroke-width="1" opacity="0.5"/>
<rect x="870" y="620" width="89" height="89" fill="#2c3e50"/>
<circle cx="897" cy="681" r="17" fill="#3d5166" opacity="0.7"/>
<circle cx="922" cy="664" r="16" fill="#3d5166" opacity="0.7"/>
<rect x="960" y="620" width="89" height="89" fill="#2c3e50"/>
<circle cx="987" cy="681" r="17" fill="#3d5166" opacity="0.7"/>
<circle cx="1012" cy="664" r="16" fill="#3d5166" opacity="0.7"/>
<rect x="1050" y="620" width="89" height="89" fill="#2c3e50"/>
<circle cx="1077" cy="681" r="17" fill="#3d5166" opacity="0.7"/>
<circle cx="1102" cy="664" r="16" fill="#3d5166" opacity="0.7"/>
<rect x="1140" y="620" width="89" height="89" fill="#16213e"/>
<rect x="1230" y="620" width="89" height="89" fill="#16213e"/>
<rect x="1320" y="620" width="89" height="89" fill="#16213e"/>
<rect x="510" y="710" width="89" height="89" fill="#16213e"/>
<rect x="600" y="710" width="89" height="89" fill="#16213e"/>
<rect x="690" y="710" width="89" height="89" fill="#34495e"/>
<line x1="690" y1="799" x2="779" y2="710" stroke="#4a6274" stroke-width="1" opacity="0.5"/>
<line x1="690" y1="754" x2="734" y2="710" stroke="#4a6274" stroke-width="1" opacity="0.5"/>
<line x1="734" y1="799" x2="779" y2="754" stroke="#4a6274" stroke-width="1" opacity="0.5"/>
<rect x="780" y="710" width="89" height="89" fill="#16213e"/>
<rect x="870" y="710" width="89" height="89" fill="#2c3e50"/>
<circle cx="897" cy="771" r="17" fill="#3d5166" opacity="0.7"/>
<circle cx="922" cy="754" r="16" fill="#3d5166" opacity="0.7"/>
<rect x="960" y="710" width="89" height="89" fill="#2c3e50"/>
<circle cx="987" cy="771" r="17" fill="#3d5166" opacity="0.7"/>
<circle cx="1012" cy="754" r="16" fill="#3d5166" opacity="0.7"/>
<rect x="1050" y="710" width="89" height="89" fill="#3d3520"/>
<polygon points="1094,740 1080,768 1108,768" fill="#5a5030" opacity="0.7"/>
<rect x="1140" y="710" width="89" height="89" fill="#34495e"/>
<line x1="1140" y1="799" x2="1229" y2="710" stroke="#4a6274" stroke-width="1" opacity="0.5"/>
<line x1="1140" y1="754" x2="1184" y2="710" stroke="#4a6274" stroke-width="1" opacity="0.5"/>
<line x1="1184" y1="799" x2="1229" y2="754" stroke="#4a6274" stroke-width="1" opacity="0.5"/>
<rect x="1230" y="710" width="89" height="89" fill="#16213e"/>
<rect x="1320" y="710" width="89" height="89" fill="#16213e"/>
<rect x="510" y="800" width="89" height="89" fill="#16213e"/>
<rect x="600" y="800" width="89" height="89" fill="#16213e"/>
<rect x="690" y="800" width="89" height="89" fill="#3d3520"/>
<polygon points="734,830 720,858 748,858" fill="#5a5030" opacity="0.7"/>
<rect x="780" y="800" width="89" height="89" fill="#1a3a5c"/>
<path d="M782,822 Q802,819 824,822 Q846,825 867,822" stroke="#2a6a9c" stroke-width="1" fill="none" opacity="0.6"/>
<path d="M782,844 Q802,841 824,844 Q846,847 867,844" stroke="#2a6a9c" stroke-width="1" fill="none" opacity="0.6"/>
<path d="M782,866 Q802,863 824,866 Q846,869 867,866" stroke="#2a6a9c" stroke-width="1" fill="none" opacity="0.6"/>
<rect x="870" y="800" width="89" height="89" fill="#34495e"/>
<line x1="870" y1="889" x2="959" y2="800" stroke="#4a6274" stroke-width="1" opacity="0.5"/>
<line x1="870" y1="844" x2="914" y2="800" stroke="#4a6274" stroke-width="1" opacity="0.5"/>
<line x1="914" y1="889" x2="959" y2="844" stroke="#4a6274" stroke-width="1" opacity="0.5"/>
<rect x="960" y="800" width="89" height="89" fill="#16213e"/>
<rect x="1050" y="800" width="89" height="89" fill="#2c3e50"/>
<circle cx="1077" cy="861" r="17" fill="#3d5166" opacity="0.7"/>
<circle cx="1102" cy="844" r="16" fill="#3d5166" opacity="0.7"/>
<rect x="1140" y="800" width="89" height="89" fill="#1a3a5c"/>
<path d="M1142,822 Q1162,819 1184,822 Q1206,825 1227,822" stroke="#2a6a9c" stroke-width="1" fill="none" opacity="0.6"/>
<path d="M1142,844 Q1162,841 1184,844 Q1206,847 1227,844" stroke="#2a6a9c" stroke-width="1" fill="none" opacity="0.6"/>
<path d="M1142,866 Q1162,863 1184,866 Q1206,869 1227,866" stroke="#2a6a9c" stroke-width="1" fill="none" opacity="0.6"/>
<rect x="1230" y="800" width="89" height="89" fill="#16213e"/>
<rect x="1320" y="800" width="89" height="89" fill="#16213e"/>
<rect x="510" y="890" width="89" height="89" fill="#16213e"/>
<rect x="600" y="890" width="89" height="89" fill="#16213e"/>
<rect x="690" y="890" width="89" height="89" fill="#16213e"/>
<rect x="780" y="890" width="89" height="89" fill="#1a3a5c"/>
<path d="M782,912 Q802,909 824,912 Q846,915 867,912" stroke="#2a6a9c" stroke-width="1" fill="none" opacity="0.6"/>
<path d="M782,934 Q802,931 824,934 Q846,937 867,934" stroke="#2a6a9c" stroke-width="1" fill="none" opacity="0.6"/>
<path d="M782,956 Q802,953 824,956 Q846,959 867,956" stroke="#2a6a9c" stroke-width="1" fill="none" opacity="0.6"/>
<rect x="870" y="890" width="89" height="89" fill="#3d3520"/>
<polygon points="914,920 900,948 928,948" fill="#5a5030" opacity="0.7"/>
<rect x="960" y="890" width="89" height="89" fill="#16213e"/>
<rect x="1050" y="890" width="89" height="89" fill="#16213e"/>
<rect x="1140" y="890" width="89" height="89" fill="#1a3a5c"/>
<path d="M1142,912 Q1162,909 1184,912 Q1206,915 1227,912" stroke="#2a6a9c" stroke-width="1" fill="none" opacity="0.6"/>
<path d="M1142,934 Q1162,931 1184,934 Q1206,937 1227,934" stroke="#2a6a9c" stroke-width="1" fill="none" opacity="0.6"/>
<path d="M1142,956 Q1162,953 1184,956 Q1206,959 1227,956" stroke="#2a6a9c" stroke-width="1" fill="none" opacity="0.6"/>
<rect x="1230" y="890" width="89" height="89" fill="#16213e"/>
<rect x="1320" y="890" width="89" height="89" fill="#16213e"/>
<line x1="599" y1="80" x2="599" y2="979" stroke="#252540" stroke-width="1"/>
<line x1="689" y1="80" x2="689" y2="979" stroke="#252540" stroke-width="1"/>
<line x1="779" y1="80" x2="779" y2="979" stroke="#252540" stroke-width="1"/>
<line x1="869" y1="80" x2="869" y2="979" stroke="#252540" stroke-width="1"/>
<line x1="959" y1="80" x2="959" y2="979" stroke="#252540" stroke-width="1"/>
<line x1="1049" y1="80" x2="1049" y2="979" stroke="#252540" stroke-width="1"/>
<line x1="1139" y1="80" x2="1139" y2="979" stroke="#252540" stroke-width="1"/>
<line x1="1229" y1="80" x2="1229" y2="979" stroke="#252540" stroke-width="1"/>
<line x1="1319" y1="80" x2="1319" y2="979" stroke="#252540" stroke-width="1"/>
<line x1="510" y1="169" x2="1409" y2="169" stroke="#252540" stroke-width="1"/>
<line x1="510" y1="259" x2="1409" y2="259" stroke="#252540" stroke-width="1"/>
<line x1="510" y1="349" x2="1409" y2="349" stroke="#252540" stroke-width="1"/>
<line x1="510" y1="439" x2="1409" y2="439" stroke="#252540" stroke-width="1"/>
<line x1="510" y1="529" x2="1409" y2="529" stroke="#252540" stroke-width="1"/>
<line x1="510" y1="619" x2="1409" y2="619" stroke="#252540" stroke-width="1"/>
<line x1="510" y1="709" x2="1409" y2="709" stroke="#252540" stroke-width="1"/>
<line x1="510" y1="799" x2="1409" y2="799" stroke="#252540" stroke-width="1"/>
<line x1="510" y1="889" x2="1409" y2="889" stroke="#252540" stroke-width="1"/>
<circle cx="1274" cy="120" r="32" fill="none" stroke="#d4e6f1" stroke-width="3" opacity="0.8"/>
<circle cx="1274" cy="120" r="29" fill="#3498db" stroke="#2980b9" stroke-width="2"/>
<text x="1274" y="131" text-anchor="middle" class="unit-letter" font-size="22">+</text>
<rect x="1236" y="153" width="77" height="7" fill="#1a1a2e" rx="1"/>
<rect x="1236" y="153" width="77" height="7" fill="#2ecc71" rx="1"/>
<circle cx="1268" cy="168" r="5" fill="#f1c40f"/>
<circle cx="1281" cy="168" r="5" fill="#f1c40f"/>
<circle cx="1274" cy="210" r="29" fill="#3498db" stroke="#2980b9" stroke-width="2"/>
<text x="1274" y="221" text-anchor="middle" class="unit-letter" font-size="22">S</text>
<rect x="1236" y="243" width="77" height="7" fill="#1a1a2e" rx="1"/>
<rect x="1236" y="243" width="77" height="7" fill="#2ecc71" rx="1"/>
<circle cx="1261" cy="258" r="5" fill="#f1c40f"/>
<circle cx="1274" cy="258" r="5" fill="#f1c40f"/>
<circle cx="1287" cy="258" r="5" fill="#f1c40f"/>
<circle cx="1274" cy="300" r="29" fill="#3498db" stroke="#2980b9" stroke-width="2"/>
<text x="1274" y="311" text-anchor="middle" class="unit-letter" font-size="22">M</text>
<rect x="1236" y="333" width="77" height="7" fill="#1a1a2e" rx="1"/>
<rect x="1236" y="333" width="77" height="7" fill="#2ecc71" rx="1"/>
<circle cx="1268" cy="348" r="5" fill="#f1c40f"/>
<circle cx="1281" cy="348" r="5" fill="#f1c40f"/>
<text x="644" y="88" text-anchor="middle" font-size="14" fill="#95a5a6">[C]</text>
<circle cx="644" cy="120" r="29" fill="#e74c3c" stroke="#c0392b" stroke-width="2"/>
<text x="644" y="131" text-anchor="middle" class="unit-letter" font-size="22">+</text>
<rect x="606" y="153" width="77" height="7" fill="#1a1a2e" rx="1"/>
<rect x="606" y="153" width="77" height="7" fill="#2ecc71" rx="1"/>
<circle cx="638" cy="168" r="5" fill="#34495e"/>
<circle cx="651" cy="168" r="5" fill="#34495e"/>
<circle cx="554" cy="210" r="29" fill="#e74c3c" stroke="#c0392b" stroke-width="2"/>
<text x="554" y="221" text-anchor="middle" class="unit-letter" font-size="22">S</text>
<rect x="516" y="243" width="77" height="7" fill="#1a1a2e" rx="1"/>
<rect x="516" y="243" width="77" height="7" fill="#2ecc71" rx="1"/>
<circle cx="541" cy="258" r="5" fill="#f1c40f"/>
<circle cx="554" cy="258" r="5" fill="#f1c40f"/>
<circle cx="567" cy="258" r="5" fill="#f1c40f"/>
<circle cx="554" cy="300" r="29" fill="#e74c3c" stroke="#c0392b" stroke-width="2"/>
<text x="554" y="311" text-anchor="middle" class="unit-letter" font-size="22">M</text>
<rect x="516" y="333" width="77" height="7" fill="#1a1a2e" rx="1"/>
<rect x="516" y="333" width="77" height="7" fill="#2ecc71" rx="1"/>
<circle cx="548" cy="348" r="5" fill="#f1c40f"/>
<circle cx="561" cy="348" r="5" fill="#f1c40f"/>
<rect x="0" y="60" width="180" height="940" fill="#0f0f1a" opacity="0.95"/>
<rect x="0" y="60" width="180" height="28" fill="#c0392b" opacity="0.6"/>
<text x="90" y="79" text-anchor="middle" class="header-text" font-size="12" letter-spacing="2" fill="#e74c3c">RED TEAM</text>
<g opacity="1">
<text x="12" y="110" class="roster-name" fill="#e74c3c" text-decoration="none">red_1</text>
<text x="168" y="110" class="roster-name" text-anchor="end" fill="#95a5a6" text-decoration="none">Soldier</text>
<rect x="12" y="118" width="156" height="6" fill="#1a1a2e" rx="2"/>
<rect x="12" y="118" width="156" height="6" fill="#2ecc71" rx="2"/>
<text x="170" y="124" font-size="9" fill="#95a5a6">8/8</text>
</g>
<g opacity="1">
<text x="12" y="166" class="roster-name" fill="#e74c3c" text-decoration="none">red_2</text>
<text x="168" y="166" class="roster-name" text-anchor="end" fill="#95a5a6" text-decoration="none">Scout</text>
<rect x="12" y="174" width="156" height="6" fill="#1a1a2e" rx="2"/>
<rect x="12" y="174" width="156" height="6" fill="#2ecc71" rx="2"/>
<text x="170" y="180" font-size="9" fill="#95a5a6">5/5</text>
</g>
<g opacity="1">
<text x="12" y="222" class="roster-name" fill="#e74c3c" text-decoration="none">red_3</text>
<text x="168" y="222" class="roster-name" text-anchor="end" fill="#95a5a6" text-decoration="none">Medic</text>
<rect x="12" y="230" width="156" height="6" fill="#1a1a2e" rx="2"/>
<rect x="12" y="230" width="156" height="6" fill="#2ecc71" rx="2"/>
<text x="170" y="236" font-size="9" fill="#95a5a6">7/7</text>
</g>
<rect x="1740" y="60" width="180" height="940" fill="#0f0f1a" opacity="0.95"/>
<rect x="1740" y="60" width="180" height="28" fill="#2980b9" opacity="0.6"/>
<text x="1830" y="79" text-anchor="middle" class="header-text" font-size="12" letter-spacing="2" fill="#3498db">BLUE TEAM</text>
<rect x="1742" y="92" width="176" height="52" fill="#2980b9" opacity="0.3" rx="3"/>
<g opacity="1">
<text x="1752" y="110" class="roster-name" fill="#3498db" text-decoration="none">blue_1</text>
<text x="1908" y="110" class="roster-name" text-anchor="end" fill="#95a5a6" text-decoration="none">Soldier</text>
<rect x="1752" y="118" width="156" height="6" fill="#1a1a2e" rx="2"/>
<rect x="1752" y="118" width="156" height="6" fill="#2ecc71" rx="2"/>
<text x="1910" y="124" font-size="9" fill="#95a5a6">8/8</text>
</g>
<g opacity="1">
<text x="1752" y="166" class="roster-name" fill="#3498db" text-decoration="none">blue_2</text>
<text x="1908" y="166" class="roster-name" text-anchor="end" fill="#95a5a6" text-decoration="none">Scout</text>
<rect x="1752" y="174" width="156" height="6" fill="#1a1a2e" rx="2"/>
<rect x="1752" y="174" width="156" height="6" fill="#2ecc71" rx="2"/>
<text x="1910" y="180" font-size="9" fill="#95a5a6">5/5</text>
</g>
<g opacity="1">
<text x="1752" y="222" class="roster-name" fill="#3498db" text-decoration="none">blue_3</text>
<text x="1908" y="222" class="roster-name" text-anchor="end" fill="#95a5a6" text-decoration="none">Medic</text>
<rect x="1752" y="230" width="156" height="6" fill="#1a1a2e" rx="2"/>
<rect x="1752" y="230" width="156" height="6" fill="#2ecc71" rx="2"/>
<text x="1910" y="236" font-size="9" fill="#95a5a6">7/7</text>
</g>
<rect x="0" y="1000" width="1920" height="80" fill="#16213e"/>
<line x1="0" y1="1000" x2="1920" y2="1000" stroke="#252540" stroke-width="1"/>
<text x="960" y="1046" text-anchor="middle" class="event-text" font-size="18" fill="#ecf0f1"></text>
</svg>