<svg version="1.1" xmlns="http://www.w3.org/2000/svg" viewBox="0 0 720 490" width="720" height="490"><!-- svg-source:excalidraw --><metadata></metadata><defs><style class="style-fonts">
      </style></defs><rect x="0" y="0" width="720" height="490" fill="#ffffff"></rect><g stroke-linecap="round" transform="translate(10 10) rotate(0 350 35)"><path d="M17.5 0 C165.09 -2.32, 308.81 -1.84, 682.5 0 C696.93 -2.71, 700.43 9.39, 700 17.5 C698.11 29.13, 696.72 42.75, 700 52.5 C697.73 67.48, 696.39 67.97, 682.5 70 C459.64 68.04, 237.37 67.56, 17.5 70 C2.85 67.22, 0.36 66.56, 0 52.5 C-2 41.57, 1.32 38.68, 0 17.5 C2.2 5.08, 5.11 -0.48, 17.5 0" stroke="none" stroke-width="0" fill="#a5d8ff"></path><path d="M17.5 0 C150.85 -0.15, 283.38 -0.07, 682.5 0 M17.5 0 C198.45 0.74, 379.16 1.23, 682.5 0 M682.5 0 C692.87 0.53, 700.88 7.46, 700 17.5 M682.5 0 C694.37 0.56, 698.67 7.56, 700 17.5 M700 17.5 C701.38 23.36, 700.94 33.96, 700 52.5 M700 17.5 C699.28 30.82, 700.03 44.18, 700 52.5 M700 52.5 C700.6 62.57, 694.65 68.28, 682.5 70 M700 52.5 C698.31 64.23, 695.1 70.81, 682.5 70 M682.5 70 C539.5 72.55, 396.07 72.55, 17.5 70 M682.5 70 C538.9 72.75, 395.36 72.49, 17.5 70 M17.5 70 C3.95 69.71, -0.18 64.69, 0 52.5 M17.5 70 C7.66 69.98, 2.16 64.26, 0 52.5 M0 52.5 C-0.97 42.18, 1.01 30.89, 0 17.5 M0 52.5 C-0.63 43.46, 0.58 32.48, 0 17.5 M0 17.5 C0.44 7.83, 4.28 -1.31, 17.5 0 M0 17.5 C-0.62 3.76, 6.85 2.27, 17.5 0" stroke="#1971c2" stroke-width="2" fill="none"></path></g><g transform="translate(300 25) rotate(0 75 12.5)"><text x="75" y="17.619999999999997" font-family="Virgil, Segoe UI Emoji" font-size="20px" fill="#1971c2" text-anchor="middle" style="white-space: pre;" direction="ltr" dominant-baseline="alphabetic">Clients</text></g><g stroke-linecap="round" transform="translate(30 25) rotate(0 50 20)"><path d="M10 0 C30.86 -0.3, 42.02 0.91, 90 0 C99.43 -2.71, 100.43 6.89, 100 10 C98.24 16.75, 96.84 25.49, 100 30 C97.73 39.98, 98.89 37.97, 90 40 C63.66 39.96, 38.79 38.76, 10 40 C0.35 37.22, 0.36 39.06, 0 30 C-2.09 22.72, 1.23 23.48, 0 10 C2.2 2.58, 2.61 -0.48, 10 0" stroke="none" stroke-width="0" fill="#d0ebff"></path><path d="M10 0 C26.86 0.8, 41.68 1, 90 0 M10 0 C31.96 -0.47, 53.29 0.75, 90 0 M90 0 C95.37 0.53, 100.88 4.96, 100 10 M90 0 C96.87 0.56, 98.67 5.06, 100 10 M100 10 C101.44 12.6, 101.01 19.93, 100 30 M100 10 C99.4 17.47, 100.15 24.99, 100 30 M100 30 C100.6 35.07, 97.15 38.28, 90 40 M100 30 C98.31 36.73, 97.6 40.81, 90 40 M90 40 C73.8 40.58, 56.52 40.6, 10 40 M90 40 C72.53 41.49, 55.23 40.85, 10 40 M10 40 C1.45 39.71, -0.18 37.19, 0 30 M10 40 C5.16 39.98, 2.16 36.76, 0 30 M0 30 C-0.87 23.98, 1.12 17, 0 10 M0 30 C-0.62 25.11, 0.6 18.27, 0 10 M0 10 C0.44 5.33, 1.78 -1.31, 10 0 M0 10 C-0.62 1.26, 4.35 2.27, 10 0" stroke="#1971c2" stroke-width="1" fill="none"></path></g><g transform="translate(55 37) rotate(0 25 10)"><text x="25" y="14.096" font-family="Virgil, Segoe UI Emoji" font-size="16px" fill="#1971c2" text-anchor="middle" style="white-space: pre;" direction="ltr" dominant-baseline="alphabetic">TUI</text></g><g stroke-linecap="round" transform="translate(150 25) rotate(0 50 20)"><path d="M10 0 C30.86 -0.3, 42.02 0.91, 90 0 C99.43 -2.71, 100.43 6.89, 100 10 C98.24 16.75, 96.84 25.49, 100 30 C97.73 39.98, 98.89 37.97, 90 40 C63.66 39.96, 38.79 38.76, 10 40 C0.35 37.22, 0.36 39.06, 0 30 C-2.09 22.72, 1.23 23.48, 0 10 C2.2 2.58, 2.61 -0.48, 10 0" stroke="none" stroke-width="0" fill="#d0ebff"></path><path d="M10 0 C26.86 0.8, 41.68 1, 90 0 M10 0 C31.96 -0.47, 53.29 0.75, 90 0 M90 0 C95.37 0.53, 100.88 4.96, 100 10 M90 0 C96.87 0.56, 98.67 5.06, 100 10 M100 10 C101.44 12.6, 101.01 19.93, 100 30 M100 10 C99.4 17.47, 100.15 24.99, 100 30 M100 30 C100.6 35.07, 97.15 38.28, 90 40 M100 30 C98.31 36.73, 97.6 40.81, 90 40 M90 40 C73.8 40.58, 56.52 40.6, 10 40 M90 40 C72.53 41.49, 55.23 40.85, 10 40 M10 40 C1.45 39.71, -0.18 37.19, 0 30 M10 40 C5.16 39.98, 2.16 36.76, 0 30 M0 30 C-0.87 23.98, 1.12 17, 0 10 M0 30 C-0.62 25.11, 0.6 18.27, 0 10 M0 10 C0.44 5.33, 1.78 -1.31, 10 0 M0 10 C-0.62 1.26, 4.35 2.27, 10 0" stroke="#1971c2" stroke-width="1" fill="none"></path></g><g transform="translate(175 37) rotate(0 25 10)"><text x="25" y="14.096" font-family="Virgil, Segoe UI Emoji" font-size="16px" fill="#1971c2" text-anchor="middle" style="white-space: pre;" direction="ltr" dominant-baseline="alphabetic">Web</text></g><g stroke-linecap="round" transform="translate(510 25) rotate(0 90 20)"><path d="M10 0 C48.46 -1.05, 77.22 0.16, 170 0 C179.43 -2.71, 180.43 6.89, 180 10 C178.24 16.75, 176.84 25.49, 180 30 C177.73 39.98, 178.89 37.97, 170 40 C116.83 39.3, 65.12 38.1, 10 40 C0.35 37.22, 0.36 39.06, 0 30 C-2.09 22.72, 1.23 23.48, 0 10 C2.2 2.58, 2.61 -0.48, 10 0" stroke="none" stroke-width="0" fill="#d0ebff"></path><path d="M10 0 C42.86 0.64, 73.68 0.84, 170 0 M10 0 C53.72 -0.15, 96.81 1.07, 170 0 M170 0 C175.37 0.53, 180.88 4.96, 180 10 M170 0 C176.87 0.56, 178.67 5.06, 180 10 M180 10 C181.44 12.6, 181.01 19.93, 180 30 M180 10 C179.4 17.47, 180.15 24.99, 180 30 M180 30 C180.6 35.07, 177.15 38.28, 170 40 M180 30 C178.31 36.73, 177.6 40.81, 170 40 M170 40 C136.55 41.37, 102.02 41.39, 10 40 M170 40 C135.27 42.23, 100.7 41.58, 10 40 M10 40 C1.45 39.71, -0.18 37.19, 0 30 M10 40 C5.16 39.98, 2.16 36.76, 0 30 M0 30 C-0.87 23.98, 1.12 17, 0 10 M0 30 C-0.62 25.11, 0.6 18.27, 0 10 M0 10 C0.44 5.33, 1.78 -1.31, 10 0 M0 10 C-0.62 1.26, 4.35 2.27, 10 0" stroke="#1971c2" stroke-width="1" fill="none"></path></g><g transform="translate(535 37) rotate(0 65 10)"><text x="65" y="14.096" font-family="Virgil, Segoe UI Emoji" font-size="16px" fill="#1971c2" text-anchor="middle" style="white-space: pre;" direction="ltr" dominant-baseline="alphabetic">External Clients</text></g><g stroke-linecap="round" transform="translate(10 110) rotate(0 350 35)"><path d="M17.5 0 C165.09 -2.32, 308.81 -1.84, 682.5 0 C696.93 -2.71, 700.43 9.39, 700 17.5 C698.11 29.13, 696.72 42.75, 700 52.5 C697.73 67.48, 696.39 67.97, 682.5 70 C459.64 68.04, 237.37 67.56, 17.5 70 C2.85 67.22, 0.36 66.56, 0 52.5 C-2 41.57, 1.32 38.68, 0 17.5 C2.2 5.08, 5.11 -0.48, 17.5 0" stroke="none" stroke-width="0" fill="#eebefa"></path><path d="M17.5 0 C150.85 -0.15, 283.38 -0.07, 682.5 0 M17.5 0 C198.45 0.74, 379.16 1.23, 682.5 0 M682.5 0 C692.87 0.53, 700.88 7.46, 700 17.5 M682.5 0 C694.37 0.56, 698.67 7.56, 700 17.5 M700 17.5 C701.38 23.36, 700.94 33.96, 700 52.5 M700 17.5 C699.28 30.82, 700.03 44.18, 700 52.5 M700 52.5 C700.6 62.57, 694.65 68.28, 682.5 70 M700 52.5 C698.31 64.23, 695.1 70.81, 682.5 70 M682.5 70 C539.5 72.55, 396.07 72.55, 17.5 70 M682.5 70 C538.9 72.75, 395.36 72.49, 17.5 70 M17.5 70 C3.95 69.71, -0.18 64.69, 0 52.5 M17.5 70 C7.66 69.98, 2.16 64.26, 0 52.5 M0 52.5 C-0.97 42.18, 1.01 30.89, 0 17.5 M0 52.5 C-0.63 43.46, 0.58 32.48, 0 17.5 M0 17.5 C0.44 7.83, 4.28 -1.31, 17.5 0 M0 17.5 C-0.62 3.76, 6.85 2.27, 17.5 0" stroke="#9c36b5" stroke-width="2" fill="none"></path></g><g transform="translate(260 125) rotate(0 100 12.5)"><text x="100" y="17.619999999999997" font-family="Virgil, Segoe UI Emoji" font-size="20px" fill="#9c36b5" text-anchor="middle" style="white-space: pre;" direction="ltr" dominant-baseline="alphabetic">Control Plane</text></g><g stroke-linecap="round" transform="translate(30 125) rotate(0 70 20)"><path d="M10 0 C39.66 -0.67, 59.62 0.54, 130 0 C139.43 -2.71, 140.43 6.89, 140 10 C138.24 16.75, 136.84 25.49, 140 30 C137.73 39.98, 138.89 37.97, 130 40 C90.25 39.63, 51.96 38.43, 10 40 C0.35 37.22, 0.36 39.06, 0 30 C-2.09 22.72, 1.23 23.48, 0 10 C2.2 2.58, 2.61 -0.48, 10 0" stroke="none" stroke-width="0" fill="#f3d9fa"></path><path d="M10 0 C34.86 0.72, 57.68 0.92, 130 0 M10 0 C42.84 -0.31, 75.05 0.91, 130 0 M130 0 C135.37 0.53, 140.88 4.96, 140 10 M130 0 C136.87 0.56, 138.67 5.06, 140 10 M140 10 C141.44 12.6, 141.01 19.93, 140 30 M140 10 C139.4 17.47, 140.15 24.99, 140 30 M140 30 C140.6 35.07, 137.15 38.28, 130 40 M140 30 C138.31 36.73, 137.6 40.81, 130 40 M130 40 C105.17 40.97, 79.27 40.99, 10 40 M130 40 C103.9 41.86, 77.97 41.22, 10 40 M10 40 C1.45 39.71, -0.18 37.19, 0 30 M10 40 C5.16 39.98, 2.16 36.76, 0 30 M0 30 C-0.87 23.98, 1.12 17, 0 10 M0 30 C-0.62 25.11, 0.6 18.27, 0 10 M0 10 C0.44 5.33, 1.78 -1.31, 10 0 M0 10 C-0.62 1.26, 4.35 2.27, 10 0" stroke="#9c36b5" stroke-width="1" fill="none"></path></g><g transform="translate(45 137) rotate(0 55 10)"><text x="55" y="13.584" font-family="Virgil, Segoe UI Emoji" font-size="14px" fill="#9c36b5" text-anchor="middle" style="white-space: pre;" direction="ltr" dominant-baseline="alphabetic">debug_rpc</text></g><g stroke-linecap="round" transform="translate(490 125) rotate(0 100 20)"><path d="M10 0 C52.86 -1.24, 86.02 -0.03, 190 0 C199.43 -2.71, 200.43 6.89, 200 10 C198.24 16.75, 196.84 25.49, 200 30 C197.73 39.98, 198.89 37.97, 190 40 C130.12 39.13, 71.71 37.93, 10 40 C0.35 37.22, 0.36 39.06, 0 30 C-2.09 22.72, 1.23 23.48, 0 10 C2.2 2.58, 2.61 -0.48, 10 0" stroke="none" stroke-width="0" fill="#f3d9fa"></path><path d="M10 0 C46.86 0.6, 81.68 0.8, 190 0 M10 0 C59.16 -0.07, 107.69 1.15, 190 0 M190 0 C195.37 0.53, 200.88 4.96, 200 10 M190 0 C196.87 0.56, 198.67 5.06, 200 10 M200 10 C201.44 12.6, 201.01 19.93, 200 30 M200 10 C199.4 17.47, 200.15 24.99, 200 30 M200 30 C200.6 35.07, 197.15 38.28, 190 40 M200 30 C198.31 36.73, 197.6 40.81, 190 40 M190 40 C152.23 41.57, 113.39 41.59, 10 40 M190 40 C150.95 42.41, 112.07 41.77, 10 40 M10 40 C1.45 39.71, -0.18 37.19, 0 30 M10 40 C5.16 39.98, 2.16 36.76, 0 30 M0 30 C-0.87 23.98, 1.12 17, 0 10 M0 30 C-0.62 25.11, 0.6 18.27, 0 10 M0 10 C0.44 5.33, 1.78 -1.31, 10 0 M0 10 C-0.62 1.26, 4.35 2.27, 10 0" stroke="#9c36b5" stroke-width="1" fill="none"></path></g><g transform="translate(505 137) rotate(0 85 10)"><text x="85" y="13.584" font-family="Virgil, Segoe UI Emoji" font-size="14px" fill="#9c36b5" text-anchor="middle" style="white-space: pre;" direction="ltr" dominant-baseline="alphabetic">LemonControlPlane</text></g><g stroke-linecap="round" transform="translate(10 210) rotate(0 350 35)"><path d="M17.5 0 C165.09 -2.32, 308.81 -1.84, 682.5 0 C696.93 -2.71, 700.43 9.39, 700 17.5 C698.11 29.13, 696.72 42.75, 700 52.5 C697.73 67.48, 696.39 67.97, 682.5 70 C459.64 68.04, 237.37 67.56, 17.5 70 C2.85 67.22, 0.36 66.56, 0 52.5 C-2 41.57, 1.32 38.68, 0 17.5 C2.2 5.08, 5.11 -0.48, 17.5 0" stroke="none" stroke-width="0" fill="#ffec99"></path><path d="M17.5 0 C150.85 -0.15, 283.38 -0.07, 682.5 0 M17.5 0 C198.45 0.74, 379.16 1.23, 682.5 0 M682.5 0 C692.87 0.53, 700.88 7.46, 700 17.5 M682.5 0 C694.37 0.56, 698.67 7.56, 700 17.5 M700 17.5 C701.38 23.36, 700.94 33.96, 700 52.5 M700 17.5 C699.28 30.82, 700.03 44.18, 700 52.5 M700 52.5 C700.6 62.57, 694.65 68.28, 682.5 70 M700 52.5 C698.31 64.23, 695.1 70.81, 682.5 70 M682.5 70 C539.5 72.55, 396.07 72.55, 17.5 70 M682.5 70 C538.9 72.75, 395.36 72.49, 17.5 70 M17.5 70 C3.95 69.71, -0.18 64.69, 0 52.5 M17.5 70 C7.66 69.98, 2.16 64.26, 0 52.5 M0 52.5 C-0.97 42.18, 1.01 30.89, 0 17.5 M0 52.5 C-0.63 43.46, 0.58 32.48, 0 17.5 M0 17.5 C0.44 7.83, 4.28 -1.31, 17.5 0 M0 17.5 C-0.62 3.76, 6.85 2.27, 17.5 0" stroke="#e67700" stroke-width="2" fill="none"></path></g><g transform="translate(280 225) rotate(0 80 12.5)"><text x="80" y="17.619999999999997" font-family="Virgil, Segoe UI Emoji" font-size="20px" fill="#e67700" text-anchor="middle" style="white-space: pre;" direction="ltr" dominant-baseline="alphabetic">Infrastructure</text></g><g stroke-linecap="round" transform="translate(30 225) rotate(0 60 20)"><path d="M10 0 C35.26 -0.48, 50.82 0.73, 110 0 C119.43 -2.71, 120.43 6.89, 120 10 C118.24 16.75, 116.84 25.49, 120 30 C117.73 39.98, 118.89 37.97, 110 40 C76.95 39.79, 45.37 38.59, 10 40 C0.35 37.22, 0.36 39.06, 0 30 C-2.09 22.72, 1.23 23.48, 0 10 C2.2 2.58, 2.61 -0.48, 10 0" stroke="none" stroke-width="0" fill="#fff3bf"></path><path d="M10 0 C30.86 0.76, 49.68 0.96, 110 0 M10 0 C37.4 -0.39, 64.17 0.83, 110 0 M110 0 C115.37 0.53, 120.88 4.96, 120 10 M110 0 C116.87 0.56, 118.67 5.06, 120 10 M120 10 C121.44 12.6, 121.01 19.93, 120 30 M120 10 C119.4 17.47, 120.15 24.99, 120 30 M120 30 C120.6 35.07, 117.15 38.28, 110 40 M120 30 C118.31 36.73, 117.6 40.81, 110 40 M110 40 C89.49 40.78, 67.9 40.8, 10 40 M110 40 C88.22 41.68, 66.6 41.03, 10 40 M10 40 C1.45 39.71, -0.18 37.19, 0 30 M10 40 C5.16 39.98, 2.16 36.76, 0 30 M0 30 C-0.87 23.98, 1.12 17, 0 10 M0 30 C-0.62 25.11, 0.6 18.27, 0 10 M0 10 C0.44 5.33, 1.78 -1.31, 10 0 M0 10 C-0.62 1.26, 4.35 2.27, 10 0" stroke="#e67700" stroke-width="1" fill="none"></path></g><g transform="translate(45 237) rotate(0 45 10)"><text x="45" y="13.584" font-family="Virgil, Segoe UI Emoji" font-size="14px" fill="#e67700" text-anchor="middle" style="white-space: pre;" direction="ltr" dominant-baseline="alphabetic">Router</text></g><g stroke-linecap="round" transform="translate(170 225) rotate(0 60 20)"><path d="M10 0 C35.26 -0.48, 50.82 0.73, 110 0 C119.43 -2.71, 120.43 6.89, 120 10 C118.24 16.75, 116.84 25.49, 120 30 C117.73 39.98, 118.89 37.97, 110 40 C76.95 39.79, 45.37 38.59, 10 40 C0.35 37.22, 0.36 39.06, 0 30 C-2.09 22.72, 1.23 23.48, 0 10 C2.2 2.58, 2.61 -0.48, 10 0" stroke="none" stroke-width="0" fill="#fff3bf"></path><path d="M10 0 C30.86 0.76, 49.68 0.96, 110 0 M10 0 C37.4 -0.39, 64.17 0.83, 110 0 M110 0 C115.37 0.53, 120.88 4.96, 120 10 M110 0 C116.87 0.56, 118.67 5.06, 120 10 M120 10 C121.44 12.6, 121.01 19.93, 120 30 M120 10 C119.4 17.47, 120.15 24.99, 120 30 M120 30 C120.6 35.07, 117.15 38.28, 110 40 M120 30 C118.31 36.73, 117.6 40.81, 110 40 M110 40 C89.49 40.78, 67.9 40.8, 10 40 M110 40 C88.22 41.68, 66.6 41.03, 10 40 M10 40 C1.45 39.71, -0.18 37.19, 0 30 M10 40 C5.16 39.98, 2.16 36.76, 0 30 M0 30 C-0.87 23.98, 1.12 17, 0 10 M0 30 C-0.62 25.11, 0.6 18.27, 0 10 M0 10 C0.44 5.33, 1.78 -1.31, 10 0 M0 10 C-0.62 1.26, 4.35 2.27, 10 0" stroke="#e67700" stroke-width="1" fill="none"></path></g><g transform="translate(185 237) rotate(0 45 10)"><text x="45" y="13.584" font-family="Virgil, Segoe UI Emoji" font-size="14px" fill="#e67700" text-anchor="middle" style="white-space: pre;" direction="ltr" dominant-baseline="alphabetic">Gateway</text></g><g stroke-linecap="round" transform="translate(310 225) rotate(0 60 20)"><path d="M10 0 C35.26 -0.48, 50.82 0.73, 110 0 C119.43 -2.71, 120.43 6.89, 120 10 C118.24 16.75, 116.84 25.49, 120 30 C117.73 39.98, 118.89 37.97, 110 40 C76.95 39.79, 45.37 38.59, 10 40 C0.35 37.22, 0.36 39.06, 0 30 C-2.09 22.72, 1.23 23.48, 0 10 C2.2 2.58, 2.61 -0.48, 10 0" stroke="none" stroke-width="0" fill="#fff3bf"></path><path d="M10 0 C30.86 0.76, 49.68 0.96, 110 0 M10 0 C37.4 -0.39, 64.17 0.83, 110 0 M110 0 C115.37 0.53, 120.88 4.96, 120 10 M110 0 C116.87 0.56, 118.67 5.06, 120 10 M120 10 C121.44 12.6, 121.01 19.93, 120 30 M120 10 C119.4 17.47, 120.15 24.99, 120 30 M120 30 C120.6 35.07, 117.15 38.28, 110 40 M120 30 C118.31 36.73, 117.6 40.81, 110 40 M110 40 C89.49 40.78, 67.9 40.8, 10 40 M110 40 C88.22 41.68, 66.6 41.03, 10 40 M10 40 C1.45 39.71, -0.18 37.19, 0 30 M10 40 C5.16 39.98, 2.16 36.76, 0 30 M0 30 C-0.87 23.98, 1.12 17, 0 10 M0 30 C-0.62 25.11, 0.6 18.27, 0 10 M0 10 C0.44 5.33, 1.78 -1.31, 10 0 M0 10 C-0.62 1.26, 4.35 2.27, 10 0" stroke="#e67700" stroke-width="1" fill="none"></path></g><g transform="translate(325 237) rotate(0 45 10)"><text x="45" y="13.584" font-family="Virgil, Segoe UI Emoji" font-size="14px" fill="#e67700" text-anchor="middle" style="white-space: pre;" direction="ltr" dominant-baseline="alphabetic">Channels</text></g><g stroke-linecap="round" transform="translate(450 225) rotate(0 60 20)"><path d="M10 0 C35.26 -0.48, 50.82 0.73, 110 0 C119.43 -2.71, 120.43 6.89, 120 10 C118.24 16.75, 116.84 25.49, 120 30 C117.73 39.98, 118.89 37.97, 110 40 C76.95 39.79, 45.37 38.59, 10 40 C0.35 37.22, 0.36 39.06, 0 30 C-2.09 22.72, 1.23 23.48, 0 10 C2.2 2.58, 2.61 -0.48, 10 0" stroke="none" stroke-width="0" fill="#fff3bf"></path><path d="M10 0 C30.86 0.76, 49.68 0.96, 110 0 M10 0 C37.4 -0.39, 64.17 0.83, 110 0 M110 0 C115.37 0.53, 120.88 4.96, 120 10 M110 0 C116.87 0.56, 118.67 5.06, 120 10 M120 10 C121.44 12.6, 121.01 19.93, 120 30 M120 10 C119.4 17.47, 120.15 24.99, 120 30 M120 30 C120.6 35.07, 117.15 38.28, 110 40 M120 30 C118.31 36.73, 117.6 40.81, 110 40 M110 40 C89.49 40.78, 67.9 40.8, 10 40 M110 40 C88.22 41.68, 66.6 41.03, 10 40 M10 40 C1.45 39.71, -0.18 37.19, 0 30 M10 40 C5.16 39.98, 2.16 36.76, 0 30 M0 30 C-0.87 23.98, 1.12 17, 0 10 M0 30 C-0.62 25.11, 0.6 18.27, 0 10 M0 10 C0.44 5.33, 1.78 -1.31, 10 0 M0 10 C-0.62 1.26, 4.35 2.27, 10 0" stroke="#e67700" stroke-width="1" fill="none"></path></g><g transform="translate(460 237) rotate(0 50 10)"><text x="50" y="13.584" font-family="Virgil, Segoe UI Emoji" font-size="14px" fill="#e67700" text-anchor="middle" style="white-space: pre;" direction="ltr" dominant-baseline="alphabetic">Automation</text></g><g stroke-linecap="round" transform="translate(10 310) rotate(0 350 35)"><path d="M17.5 0 C165.09 -2.32, 308.81 -1.84, 682.5 0 C696.93 -2.71, 700.43 9.39, 700 17.5 C698.11 29.13, 696.72 42.75, 700 52.5 C697.73 67.48, 696.39 67.97, 682.5 70 C459.64 68.04, 237.37 67.56, 17.5 70 C2.85 67.22, 0.36 66.56, 0 52.5 C-2 41.57, 1.32 38.68, 0 17.5 C2.2 5.08, 5.11 -0.48, 17.5 0" stroke="none" stroke-width="0" fill="#b2f2bb"></path><path d="M17.5 0 C150.85 -0.15, 283.38 -0.07, 682.5 0 M17.5 0 C198.45 0.74, 379.16 1.23, 682.5 0 M682.5 0 C692.87 0.53, 700.88 7.46, 700 17.5 M682.5 0 C694.37 0.56, 698.67 7.56, 700 17.5 M700 17.5 C701.38 23.36, 700.94 33.96, 700 52.5 M700 17.5 C699.28 30.82, 700.03 44.18, 700 52.5 M700 52.5 C700.6 62.57, 694.65 68.28, 682.5 70 M700 52.5 C698.31 64.23, 695.1 70.81, 682.5 70 M682.5 70 C539.5 72.55, 396.07 72.55, 17.5 70 M682.5 70 C538.9 72.75, 395.36 72.49, 17.5 70 M17.5 70 C3.95 69.71, -0.18 64.69, 0 52.5 M17.5 70 C7.66 69.98, 2.16 64.26, 0 52.5 M0 52.5 C-0.97 42.18, 1.01 30.89, 0 17.5 M0 52.5 C-0.63 43.46, 0.58 32.48, 0 17.5 M0 17.5 C0.44 7.83, 4.28 -1.31, 17.5 0 M0 17.5 C-0.62 3.76, 6.85 2.27, 17.5 0" stroke="#2f9e44" stroke-width="2" fill="none"></path></g><g transform="translate(260 325) rotate(0 100 12.5)"><text x="100" y="17.619999999999997" font-family="Virgil, Segoe UI Emoji" font-size="20px" fill="#2f9e44" text-anchor="middle" style="white-space: pre;" direction="ltr" dominant-baseline="alphabetic">Core Agent Runtime</text></g><g stroke-linecap="round" transform="translate(30 325) rotate(0 90 20)"><path d="M10 0 C48.46 -1.05, 77.22 0.16, 170 0 C179.43 -2.71, 180.43 6.89, 180 10 C178.24 16.75, 176.84 25.49, 180 30 C177.73 39.98, 178.89 37.97, 170 40 C116.83 39.3, 65.12 38.1, 10 40 C0.35 37.22, 0.36 39.06, 0 30 C-2.09 22.72, 1.23 23.48, 0 10 C2.2 2.58, 2.61 -0.48, 10 0" stroke="none" stroke-width="0" fill="#d3f9d8"></path><path d="M10 0 C42.86 0.64, 73.68 0.84, 170 0 M10 0 C53.72 -0.15, 96.81 1.07, 170 0 M170 0 C175.37 0.53, 180.88 4.96, 180 10 M170 0 C176.87 0.56, 178.67 5.06, 180 10 M180 10 C181.44 12.6, 181.01 19.93, 180 30 M180 10 C179.4 17.47, 180.15 24.99, 180 30 M180 30 C180.6 35.07, 177.15 38.28, 170 40 M180 30 C178.31 36.73, 177.6 40.81, 170 40 M170 40 C136.55 41.37, 102.02 41.39, 10 40 M170 40 C135.27 42.23, 100.7 41.58, 10 40 M10 40 C1.45 39.71, -0.18 37.19, 0 30 M10 40 C5.16 39.98, 2.16 36.76, 0 30 M0 30 C-0.87 23.98, 1.12 17, 0 10 M0 30 C-0.62 25.11, 0.6 18.27, 0 10 M0 10 C0.44 5.33, 1.78 -1.31, 10 0 M0 10 C-0.62 1.26, 4.35 2.27, 10 0" stroke="#2f9e44" stroke-width="1" fill="none"></path></g><g transform="translate(45 337) rotate(0 75 10)"><text x="75" y="13.328" font-family="Virgil, Segoe UI Emoji" font-size="13px" fill="#2f9e44" text-anchor="middle" style="white-space: pre;" direction="ltr" dominant-baseline="alphabetic">CodingAgent.Session</text></g><g stroke-linecap="round" transform="translate(230 325) rotate(0 70 20)"><path d="M10 0 C39.66 -0.67, 59.62 0.54, 130 0 C139.43 -2.71, 140.43 6.89, 140 10 C138.24 16.75, 136.84 25.49, 140 30 C137.73 39.98, 138.89 37.97, 130 40 C90.25 39.63, 51.96 38.43, 10 40 C0.35 37.22, 0.36 39.06, 0 30 C-2.09 22.72, 1.23 23.48, 0 10 C2.2 2.58, 2.61 -0.48, 10 0" stroke="none" stroke-width="0" fill="#d3f9d8"></path><path d="M10 0 C34.86 0.72, 57.68 0.92, 130 0 M10 0 C42.84 -0.31, 75.05 0.91, 130 0 M130 0 C135.37 0.53, 140.88 4.96, 140 10 M130 0 C136.87 0.56, 138.67 5.06, 140 10 M140 10 C141.44 12.6, 141.01 19.93, 140 30 M140 10 C139.4 17.47, 140.15 24.99, 140 30 M140 30 C140.6 35.07, 137.15 38.28, 130 40 M140 30 C138.31 36.73, 137.6 40.81, 130 40 M130 40 C105.17 40.97, 79.27 40.99, 10 40 M130 40 C103.9 41.86, 77.97 41.22, 10 40 M10 40 C1.45 39.71, -0.18 37.19, 0 30 M10 40 C5.16 39.98, 2.16 36.76, 0 30 M0 30 C-0.87 23.98, 1.12 17, 0 10 M0 30 C-0.62 25.11, 0.6 18.27, 0 10 M0 10 C0.44 5.33, 1.78 -1.31, 10 0 M0 10 C-0.62 1.26, 4.35 2.27, 10 0" stroke="#2f9e44" stroke-width="1" fill="none"></path></g><g transform="translate(250 337) rotate(0 50 10)"><text x="50" y="13.584" font-family="Virgil, Segoe UI Emoji" font-size="14px" fill="#2f9e44" text-anchor="middle" style="white-space: pre;" direction="ltr" dominant-baseline="alphabetic">AgentCore</text></g><g stroke-linecap="round" transform="translate(390 325) rotate(0 50 20)"><path d="M10 0 C30.86 -0.3, 42.02 0.91, 90 0 C99.43 -2.71, 100.43 6.89, 100 10 C98.24 16.75, 96.84 25.49, 100 30 C97.73 39.98, 98.89 37.97, 90 40 C63.66 39.96, 38.79 38.76, 10 40 C0.35 37.22, 0.36 39.06, 0 30 C-2.09 22.72, 1.23 23.48, 0 10 C2.2 2.58, 2.61 -0.48, 10 0" stroke="none" stroke-width="0" fill="#d3f9d8"></path><path d="M10 0 C26.86 0.8, 41.68 1, 90 0 M10 0 C31.96 -0.47, 53.29 0.75, 90 0 M90 0 C95.37 0.53, 100.88 4.96, 100 10 M90 0 C96.87 0.56, 98.67 5.06, 100 10 M100 10 C101.44 12.6, 101.01 19.93, 100 30 M100 10 C99.4 17.47, 100.15 24.99, 100 30 M100 30 C100.6 35.07, 97.15 38.28, 90 40 M100 30 C98.31 36.73, 97.6 40.81, 90 40 M90 40 C73.8 40.58, 56.52 40.6, 10 40 M90 40 C72.53 41.49, 55.23 40.85, 10 40 M10 40 C1.45 39.71, -0.18 37.19, 0 30 M10 40 C5.16 39.98, 2.16 36.76, 0 30 M0 30 C-0.87 23.98, 1.12 17, 0 10 M0 30 C-0.62 25.11, 0.6 18.27, 0 10 M0 10 C0.44 5.33, 1.78 -1.31, 10 0 M0 10 C-0.62 1.26, 4.35 2.27, 10 0" stroke="#2f9e44" stroke-width="1" fill="none"></path></g><g transform="translate(405 337) rotate(0 35 10)"><text x="35" y="13.584" font-family="Virgil, Segoe UI Emoji" font-size="14px" fill="#2f9e44" text-anchor="middle" style="white-space: pre;" direction="ltr" dominant-baseline="alphabetic">Tools 20+</text></g><g stroke-linecap="round" transform="translate(510 325) rotate(0 50 20)"><path d="M10 0 C30.86 -0.3, 42.02 0.91, 90 0 C99.43 -2.71, 100.43 6.89, 100 10 C98.24 16.75, 96.84 25.49, 100 30 C97.73 39.98, 98.89 37.97, 90 40 C63.66 39.96, 38.79 38.76, 10 40 C0.35 37.22, 0.36 39.06, 0 30 C-2.09 22.72, 1.23 23.48, 0 10 C2.2 2.58, 2.61 -0.48, 10 0" stroke="none" stroke-width="0" fill="#d3f9d8"></path><path d="M10 0 C26.86 0.8, 41.68 1, 90 0 M10 0 C31.96 -0.47, 53.29 0.75, 90 0 M90 0 C95.37 0.53, 100.88 4.96, 100 10 M90 0 C96.87 0.56, 98.67 5.06, 100 10 M100 10 C101.44 12.6, 101.01 19.93, 100 30 M100 10 C99.4 17.47, 100.15 24.99, 100 30 M100 30 C100.6 35.07, 97.15 38.28, 90 40 M100 30 C98.31 36.73, 97.6 40.81, 90 40 M90 40 C73.8 40.58, 56.52 40.6, 10 40 M90 40 C72.53 41.49, 55.23 40.85, 10 40 M10 40 C1.45 39.71, -0.18 37.19, 0 30 M10 40 C5.16 39.98, 2.16 36.76, 0 30 M0 30 C-0.87 23.98, 1.12 17, 0 10 M0 30 C-0.62 25.11, 0.6 18.27, 0 10 M0 10 C0.44 5.33, 1.78 -1.31, 10 0 M0 10 C-0.62 1.26, 4.35 2.27, 10 0" stroke="#2f9e44" stroke-width="1" fill="none"></path></g><g transform="translate(520 337) rotate(0 40 10)"><text x="40" y="13.584" font-family="Virgil, Segoe UI Emoji" font-size="14px" fill="#2f9e44" text-anchor="middle" style="white-space: pre;" direction="ltr" dominant-baseline="alphabetic">Extensions</text></g><g stroke-linecap="round" transform="translate(10 410) rotate(0 350 35)"><path d="M17.5 0 C165.09 -2.32, 308.81 -1.84, 682.5 0 C696.93 -2.71, 700.43 9.39, 700 17.5 C698.11 29.13, 696.72 42.75, 700 52.5 C697.73 67.48, 696.39 67.97, 682.5 70 C459.64 68.04, 237.37 67.56, 17.5 70 C2.85 67.22, 0.36 66.56, 0 52.5 C-2 41.57, 1.32 38.68, 0 17.5 C2.2 5.08, 5.11 -0.48, 17.5 0" stroke="none" stroke-width="0" fill="#ffc9c9"></path><path d="M17.5 0 C150.85 -0.15, 283.38 -0.07, 682.5 0 M17.5 0 C198.45 0.74, 379.16 1.23, 682.5 0 M682.5 0 C692.87 0.53, 700.88 7.46, 700 17.5 M682.5 0 C694.37 0.56, 698.67 7.56, 700 17.5 M700 17.5 C701.38 23.36, 700.94 33.96, 700 52.5 M700 17.5 C699.28 30.82, 700.03 44.18, 700 52.5 M700 52.5 C700.6 62.57, 694.65 68.28, 682.5 70 M700 52.5 C698.31 64.23, 695.1 70.81, 682.5 70 M682.5 70 C539.5 72.55, 396.07 72.55, 17.5 70 M682.5 70 C538.9 72.75, 395.36 72.49, 17.5 70 M17.5 70 C3.95 69.71, -0.18 64.69, 0 52.5 M17.5 70 C7.66 69.98, 2.16 64.26, 0 52.5 M0 52.5 C-0.97 42.18, 1.01 30.89, 0 17.5 M0 52.5 C-0.63 43.46, 0.58 32.48, 0 17.5 M0 17.5 C0.44 7.83, 4.28 -1.31, 17.5 0 M0 17.5 C-0.62 3.76, 6.85 2.27, 17.5 0" stroke="#c92a2a" stroke-width="2" fill="none"></path></g><g transform="translate(290 425) rotate(0 70 12.5)"><text x="70" y="17.619999999999997" font-family="Virgil, Segoe UI Emoji" font-size="20px" fill="#c92a2a" text-anchor="middle" style="white-space: pre;" direction="ltr" dominant-baseline="alphabetic">Foundation</text></g><g stroke-linecap="round" transform="translate(30 425) rotate(0 80 20)"><path d="M10 0 C44.06 -0.86, 68.42 0.35, 150 0 C159.43 -2.71, 160.43 6.89, 160 10 C158.24 16.75, 156.84 25.49, 160 30 C157.73 39.98, 158.89 37.97, 150 40 C103.54 39.46, 58.54 38.26, 10 40 C0.35 37.22, 0.36 39.06, 0 30 C-2.09 22.72, 1.23 23.48, 0 10 C2.2 2.58, 2.61 -0.48, 10 0" stroke="none" stroke-width="0" fill="#ffe3e3"></path><path d="M10 0 C38.86 0.68, 65.68 0.88, 150 0 M10 0 C48.28 -0.23, 85.93 0.99, 150 0 M150 0 C155.37 0.53, 160.88 4.96, 160 10 M150 0 C156.87 0.56, 158.67 5.06, 160 10 M160 10 C161.44 12.6, 161.01 19.93, 160 30 M160 10 C159.4 17.47, 160.15 24.99, 160 30 M160 30 C160.6 35.07, 157.15 38.28, 150 40 M160 30 C158.31 36.73, 157.6 40.81, 150 40 M150 40 C120.86 41.17, 90.64 41.19, 10 40 M150 40 C119.58 42.04, 89.33 41.4, 10 40 M10 40 C1.45 39.71, -0.18 37.19, 0 30 M10 40 C5.16 39.98, 2.16 36.76, 0 30 M0 30 C-0.87 23.98, 1.12 17, 0 10 M0 30 C-0.62 25.11, 0.6 18.27, 0 10 M0 10 C0.44 5.33, 1.78 -1.31, 10 0 M0 10 C-0.62 1.26, 4.35 2.27, 10 0" stroke="#c92a2a" stroke-width="1" fill="none"></path></g><g transform="translate(40 437) rotate(0 70 10)"><text x="70" y="13.584" font-family="Virgil, Segoe UI Emoji" font-size="14px" fill="#c92a2a" text-anchor="middle" style="white-space: pre;" direction="ltr" dominant-baseline="alphabetic">LemonCore (Bus)</text></g><g stroke-linecap="round" transform="translate(210 425) rotate(0 65 20)"><path d="M10 0 C37.46 -0.58, 55.22 0.63, 120 0 C129.43 -2.71, 130.43 6.89, 130 10 C128.24 16.75, 126.84 25.49, 130 30 C127.73 39.98, 128.89 37.97, 120 40 C83.6 39.71, 48.66 38.51, 10 40 C0.35 37.22, 0.36 39.06, 0 30 C-2.09 22.72, 1.23 23.48, 0 10 C2.2 2.58, 2.61 -0.48, 10 0" stroke="none" stroke-width="0" fill="#ffe3e3"></path><path d="M10 0 C32.86 0.74, 53.68 0.94, 120 0 M10 0 C40.12 -0.35, 69.61 0.87, 120 0 M120 0 C125.37 0.53, 130.88 4.96, 130 10 M120 0 C126.87 0.56, 128.67 5.06, 130 10 M130 10 C131.44 12.6, 131.01 19.93, 130 30 M130 10 C129.4 17.47, 130.15 24.99, 130 30 M130 30 C130.6 35.07, 127.15 38.28, 120 40 M130 30 C128.31 36.73, 127.6 40.81, 120 40 M120 40 C97.33 40.87, 73.58 40.9, 10 40 M120 40 C96.06 41.77, 72.28 41.12, 10 40 M10 40 C1.45 39.71, -0.18 37.19, 0 30 M10 40 C5.16 39.98, 2.16 36.76, 0 30 M0 30 C-0.87 23.98, 1.12 17, 0 10 M0 30 C-0.62 25.11, 0.6 18.27, 0 10 M0 10 C0.44 5.33, 1.78 -1.31, 10 0 M0 10 C-0.62 1.26, 4.35 2.27, 10 0" stroke="#c92a2a" stroke-width="1" fill="none"></path></g><g transform="translate(230 437) rotate(0 45 10)"><text x="45" y="13.584" font-family="Virgil, Segoe UI Emoji" font-size="14px" fill="#c92a2a" text-anchor="middle" style="white-space: pre;" direction="ltr" dominant-baseline="alphabetic">LemonSkills</text></g><g stroke-linecap="round" transform="translate(360 425) rotate(0 90 20)"><path d="M10 0 C48.46 -1.05, 77.22 0.16, 170 0 C179.43 -2.71, 180.43 6.89, 180 10 C178.24 16.75, 176.84 25.49, 180 30 C177.73 39.98, 178.89 37.97, 170 40 C116.83 39.3, 65.12 38.1, 10 40 C0.35 37.22, 0.36 39.06, 0 30 C-2.09 22.72, 1.23 23.48, 0 10 C2.2 2.58, 2.61 -0.48, 10 0" stroke="none" stroke-width="0" fill="#ffe3e3"></path><path d="M10 0 C42.86 0.64, 73.68 0.84, 170 0 M10 0 C53.72 -0.15, 96.81 1.07, 170 0 M170 0 C175.37 0.53, 180.88 4.96, 180 10 M170 0 C176.87 0.56, 178.67 5.06, 180 10 M180 10 C181.44 12.6, 181.01 19.93, 180 30 M180 10 C179.4 17.47, 180.15 24.99, 180 30 M180 30 C180.6 35.07, 177.15 38.28, 170 40 M180 30 C178.31 36.73, 177.6 40.81, 170 40 M170 40 C136.55 41.37, 102.02 41.39, 10 40 M170 40 C135.27 42.23, 100.7 41.58, 10 40 M10 40 C1.45 39.71, -0.18 37.19, 0 30 M10 40 C5.16 39.98, 2.16 36.76, 0 30 M0 30 C-0.87 23.98, 1.12 17, 0 10 M0 30 C-0.62 25.11, 0.6 18.27, 0 10 M0 10 C0.44 5.33, 1.78 -1.31, 10 0 M0 10 C-0.62 1.26, 4.35 2.27, 10 0" stroke="#c92a2a" stroke-width="1" fill="none"></path></g><g transform="translate(380 437) rotate(0 70 10)"><text x="70" y="13.584" font-family="Virgil, Segoe UI Emoji" font-size="14px" fill="#c92a2a" text-anchor="middle" style="white-space: pre;" direction="ltr" dominant-baseline="alphabetic">Ai Providers</text></g><g stroke-linecap="round"><g transform="translate(80 65) rotate(0 0 22.5)"><path d="M0 0 C0.24 9.48, -0.35 18.58, 0 45 M0 0 C-0.1 11.85, -0.31 24.7, 0 45" stroke="#495057" stroke-width="2" fill="none"></path></g><g transform="translate(80 65) rotate(0 0 22.5)"><path d="M-7.89 23.93 C-5.97 28.62, -4.98 32.93, 0 45 M-7.89 23.93 C-5.74 29.28, -3.8 35.62, 0 45" stroke="#495057" stroke-width="2" fill="none"></path></g><g transform="translate(80 65) rotate(0 0 22.5)"><path d="M7.5 23.79 C6.34 28.52, 4.25 32.86, 0 45 M7.5 23.79 C5.46 29.15, 3.21 35.53, 0 45" stroke="#495057" stroke-width="2" fill="none"></path></g></g><mask></mask><g stroke-linecap="round"><g transform="translate(590 65) rotate(0 0 22.5)"><path d="M0 0 C0.24 9.48, -0.35 18.58, 0 45 M0 0 C-0.1 11.85, -0.31 24.7, 0 45" stroke="#495057" stroke-width="2" fill="none"></path></g><g transform="translate(590 65) rotate(0 0 22.5)"><path d="M-7.89 23.93 C-5.97 28.62, -4.98 32.93, 0 45 M-7.89 23.93 C-5.74 29.28, -3.8 35.62, 0 45" stroke="#495057" stroke-width="2" fill="none"></path></g><g transform="translate(590 65) rotate(0 0 22.5)"><path d="M7.5 23.79 C6.34 28.52, 4.25 32.86, 0 45 M7.5 23.79 C5.46 29.15, 3.21 35.53, 0 45" stroke="#495057" stroke-width="2" fill="none"></path></g></g><mask></mask><g stroke-linecap="round"><g transform="translate(90 165) rotate(0 0 22.5)"><path d="M0 0 C0.24 9.48, -0.35 18.58, 0 45 M0 0 C-0.1 11.85, -0.31 24.7, 0 45" stroke="#495057" stroke-width="2" fill="none"></path></g><g transform="translate(90 165) rotate(0 0 22.5)"><path d="M-7.89 23.93 C-5.97 28.62, -4.98 32.93, 0 45 M-7.89 23.93 C-5.74 29.28, -3.8 35.62, 0 45" stroke="#495057" stroke-width="2" fill="none"></path></g><g transform="translate(90 165) rotate(0 0 22.5)"><path d="M7.5 23.79 C6.34 28.52, 4.25 32.86, 0 45 M7.5 23.79 C5.46 29.15, 3.21 35.53, 0 45" stroke="#495057" stroke-width="2" fill="none"></path></g></g><mask></mask><g stroke-linecap="round"><g transform="translate(360 265) rotate(0 0 22.5)"><path d="M0 0 C0.24 9.48, -0.35 18.58, 0 45 M0 0 C-0.1 11.85, -0.31 24.7, 0 45" stroke="#495057" stroke-width="2" fill="none"></path></g><g transform="translate(360 265) rotate(0 0 22.5)"><path d="M-7.89 23.93 C-5.97 28.62, -4.98 32.93, 0 45 M-7.89 23.93 C-5.74 29.28, -3.8 35.62, 0 45" stroke="#495057" stroke-width="2" fill="none"></path></g><g transform="translate(360 265) rotate(0 0 22.5)"><path d="M7.5 23.79 C6.34 28.52, 4.25 32.86, 0 45 M7.5 23.79 C5.46 29.15, 3.21 35.53, 0 45" stroke="#495057" stroke-width="2" fill="none"></path></g></g><mask></mask><g stroke-linecap="round"><g transform="translate(360 365) rotate(0 0 22.5)"><path d="M0 0 C0.24 9.48, -0.35 18.58, 0 45 M0 0 C-0.1 11.85, -0.31 24.7, 0 45" stroke="#495057" stroke-width="2" fill="none"></path></g><g transform="translate(360 365) rotate(0 0 22.5)"><path d="M-7.89 23.93 C-5.97 28.62, -4.98 32.93, 0 45 M-7.89 23.93 C-5.74 29.28, -3.8 35.62, 0 45" stroke="#495057" stroke-width="2" fill="none"></path></g><g transform="translate(360 365) rotate(0 0 22.5)"><path d="M7.5 23.79 C6.34 28.52, 4.25 32.86, 0 45 M7.5 23.79 C5.46 29.15, 3.21 35.53, 0 45" stroke="#495057" stroke-width="2" fill="none"></path></g></g><mask></mask></svg>