<svg version="1.1" xmlns="http://www.w3.org/2000/svg" viewBox="0 0 800 390" width="800" height="390"><!-- svg-source:excalidraw --><metadata></metadata><defs><style class="style-fonts">
      </style></defs><rect x="0" y="0" width="800" height="390" fill="#ffffff"></rect><g transform="translate(290 10) rotate(0 100 15)"><text x="100" y="21.144" font-family="Virgil, Segoe UI Emoji" font-size="24px" fill="#1e1e1e" text-anchor="middle" style="white-space: pre;" direction="ltr" dominant-baseline="alphabetic">Data Flow Paths</text></g><g stroke-linecap="round" transform="translate(10 60) rotate(0 90 160)"><path d="M32 0 C60.78 -0.63, 79.86 0.57, 148 0 C172.09 -2.71, 180.43 14.22, 180 32 C176.96 115.48, 175.83 200.58, 180 288 C177.73 312.64, 171.56 317.97, 148 320 C109.59 319.66, 72.64 318.46, 32 320 C7.68 317.22, 0.36 311.72, 0 288 C-0.48 223.78, 2.19 166.05, 0 32 C2.2 9.91, 9.94 -0.48, 32 0" stroke="none" stroke-width="0" fill="#e7f5ff"></path><path d="M32 0 C56.06 0.73, 78.08 0.93, 148 0 M32 0 C63.75 -0.33, 94.87 0.89, 148 0 M148 0 C168.04 0.53, 180.88 12.29, 180 32 M148 0 C169.53 0.56, 178.67 12.4, 180 32 M180 32 C180.29 86.27, 179.93 144.35, 180 288 M180 32 C177.96 131.46, 178.56 230.96, 180 288 M180 288 C180.6 307.73, 169.82 318.28, 148 320 M180 288 C178.31 309.4, 170.27 320.81, 148 320 M148 320 C124.03 320.93, 98.99 320.95, 32 320 M148 320 C122.76 321.82, 97.69 321.18, 32 320 M32 320 C8.78 319.71, -0.18 309.86, 0 288 M32 320 C12.5 319.98, 2.16 309.43, 0 288 M0 288 C-2.08 214.35, -0.48 139.92, 0 32 M0 288 C-0.67 217.75, 0.31 145.93, 0 32 M0 32 C0.44 12.66, 9.12 -1.31, 32 0 M0 32 C-0.62 8.6, 11.68 2.27, 32 0" stroke="#1971c2" stroke-width="2" fill="none"></path></g><g transform="translate(45 70) rotate(0 55 10)"><text x="55" y="14.096" font-family="Virgil, Segoe UI Emoji" font-size="16px" fill="#1971c2" text-anchor="middle" style="white-space: pre;" direction="ltr" dominant-baseline="alphabetic">Direct Path</text></g><g stroke-linecap="round" transform="translate(30 100) rotate(0 70 17.5)"><path d="M8.75 0 C38.96 -0.7, 59.47 0.51, 131.25 0 C139.84 -2.71, 140.43 6.47, 140 8.75 C138.46 14.65, 137.24 22.31, 140 26.25 C137.73 35.39, 139.31 32.97, 131.25 35 C90.66 34.61, 51.53 33.41, 8.75 35 C-0.07 32.22, 0.36 34.47, 0 26.25 C-1.83 19.88, 1.07 20.55, 0 8.75 C2.2 2.16, 2.19 -0.48, 8.75 0" stroke="none" stroke-width="0" fill="#a5d8ff"></path><path d="M8.75 0 C34.11 0.72, 57.43 0.91, 131.25 0 M8.75 0 C42.27 -0.3, 75.16 0.92, 131.25 0 M131.25 0 C135.79 0.53, 140.88 4.54, 140 8.75 M131.25 0 C137.28 0.56, 138.67 4.65, 140 8.75 M140 8.75 C141.26 11.03, 140.88 17.44, 140 26.25 M140 8.75 C139.48 15.29, 140.13 21.87, 140 26.25 M140 26.25 C140.6 30.48, 137.57 33.28, 131.25 35 M140 26.25 C138.31 32.15, 138.02 35.81, 131.25 35 M131.25 35 C105.88 36, 79.44 36.02, 8.75 35 M131.25 35 C104.61 36.88, 78.14 36.24, 8.75 35 M8.75 35 C1.03 34.71, -0.18 32.61, 0 26.25 M8.75 35 C4.75 34.98, 2.16 32.18, 0 26.25 M0 26.25 C-0.76 20.98, 0.98 14.87, 0 8.75 M0 26.25 C-0.54 21.97, 0.52 15.99, 0 8.75 M0 8.75 C0.44 4.91, 1.37 -1.31, 8.75 0 M0 8.75 C-0.62 0.85, 3.93 2.27, 8.75 0" stroke="#1971c2" stroke-width="1" fill="none"></path></g><g transform="translate(65 110) rotate(0 35 9)"><text x="35" y="12.584" font-family="Virgil, Segoe UI Emoji" font-size="14px" fill="#1971c2" text-anchor="middle" style="white-space: pre;" direction="ltr" dominant-baseline="alphabetic">TUI/Web</text></g><g stroke-linecap="round" transform="translate(30 155) rotate(0 70 17.5)"><path d="M8.75 0 C38.96 -0.7, 59.47 0.51, 131.25 0 C139.84 -2.71, 140.43 6.47, 140 8.75 C138.46 14.65, 137.24 22.31, 140 26.25 C137.73 35.39, 139.31 32.97, 131.25 35 C90.66 34.61, 51.53 33.41, 8.75 35 C-0.07 32.22, 0.36 34.47, 0 26.25 C-1.83 19.88, 1.07 20.55, 0 8.75 C2.2 2.16, 2.19 -0.48, 8.75 0" stroke="none" stroke-width="0" fill="#a5d8ff"></path><path d="M8.75 0 C34.11 0.72, 57.43 0.91, 131.25 0 M8.75 0 C42.27 -0.3, 75.16 0.92, 131.25 0 M131.25 0 C135.79 0.53, 140.88 4.54, 140 8.75 M131.25 0 C137.28 0.56, 138.67 4.65, 140 8.75 M140 8.75 C141.26 11.03, 140.88 17.44, 140 26.25 M140 8.75 C139.48 15.29, 140.13 21.87, 140 26.25 M140 26.25 C140.6 30.48, 137.57 33.28, 131.25 35 M140 26.25 C138.31 32.15, 138.02 35.81, 131.25 35 M131.25 35 C105.88 36, 79.44 36.02, 8.75 35 M131.25 35 C104.61 36.88, 78.14 36.24, 8.75 35 M8.75 35 C1.03 34.71, -0.18 32.61, 0 26.25 M8.75 35 C4.75 34.98, 2.16 32.18, 0 26.25 M0 26.25 C-0.76 20.98, 0.98 14.87, 0 8.75 M0 26.25 C-0.54 21.97, 0.52 15.99, 0 8.75 M0 8.75 C0.44 4.91, 1.37 -1.31, 8.75 0 M0 8.75 C-0.62 0.85, 3.93 2.27, 8.75 0" stroke="#1971c2" stroke-width="1" fill="none"></path></g><g transform="translate(45 165) rotate(0 55 9)"><text x="55" y="12.072" font-family="Virgil, Segoe UI Emoji" font-size="12px" fill="#1971c2" text-anchor="middle" style="white-space: pre;" direction="ltr" dominant-baseline="alphabetic">debug_agent_rpc</text></g><g stroke-linecap="round" transform="translate(30 210) rotate(0 70 17.5)"><path d="M8.75 0 C38.96 -0.7, 59.47 0.51, 131.25 0 C139.84 -2.71, 140.43 6.47, 140 8.75 C138.46 14.65, 137.24 22.31, 140 26.25 C137.73 35.39, 139.31 32.97, 131.25 35 C90.66 34.61, 51.53 33.41, 8.75 35 C-0.07 32.22, 0.36 34.47, 0 26.25 C-1.83 19.88, 1.07 20.55, 0 8.75 C2.2 2.16, 2.19 -0.48, 8.75 0" stroke="none" stroke-width="0" fill="#a5d8ff"></path><path d="M8.75 0 C34.11 0.72, 57.43 0.91, 131.25 0 M8.75 0 C42.27 -0.3, 75.16 0.92, 131.25 0 M131.25 0 C135.79 0.53, 140.88 4.54, 140 8.75 M131.25 0 C137.28 0.56, 138.67 4.65, 140 8.75 M140 8.75 C141.26 11.03, 140.88 17.44, 140 26.25 M140 8.75 C139.48 15.29, 140.13 21.87, 140 26.25 M140 26.25 C140.6 30.48, 137.57 33.28, 131.25 35 M140 26.25 C138.31 32.15, 138.02 35.81, 131.25 35 M131.25 35 C105.88 36, 79.44 36.02, 8.75 35 M131.25 35 C104.61 36.88, 78.14 36.24, 8.75 35 M8.75 35 C1.03 34.71, -0.18 32.61, 0 26.25 M8.75 35 C4.75 34.98, 2.16 32.18, 0 26.25 M0 26.25 C-0.76 20.98, 0.98 14.87, 0 8.75 M0 26.25 C-0.54 21.97, 0.52 15.99, 0 8.75 M0 8.75 C0.44 4.91, 1.37 -1.31, 8.75 0 M0 8.75 C-0.62 0.85, 3.93 2.27, 8.75 0" stroke="#1971c2" stroke-width="1" fill="none"></path></g><g transform="translate(45 220) rotate(0 55 9)"><text x="55" y="12.072" font-family="Virgil, Segoe UI Emoji" font-size="12px" fill="#1971c2" text-anchor="middle" style="white-space: pre;" direction="ltr" dominant-baseline="alphabetic">coding_agent_ui</text></g><g stroke-linecap="round" transform="translate(30 265) rotate(0 70 17.5)"><path d="M8.75 0 C38.96 -0.7, 59.47 0.51, 131.25 0 C139.84 -2.71, 140.43 6.47, 140 8.75 C138.46 14.65, 137.24 22.31, 140 26.25 C137.73 35.39, 139.31 32.97, 131.25 35 C90.66 34.61, 51.53 33.41, 8.75 35 C-0.07 32.22, 0.36 34.47, 0 26.25 C-1.83 19.88, 1.07 20.55, 0 8.75 C2.2 2.16, 2.19 -0.48, 8.75 0" stroke="none" stroke-width="0" fill="#a5d8ff"></path><path d="M8.75 0 C34.11 0.72, 57.43 0.91, 131.25 0 M8.75 0 C42.27 -0.3, 75.16 0.92, 131.25 0 M131.25 0 C135.79 0.53, 140.88 4.54, 140 8.75 M131.25 0 C137.28 0.56, 138.67 4.65, 140 8.75 M140 8.75 C141.26 11.03, 140.88 17.44, 140 26.25 M140 8.75 C139.48 15.29, 140.13 21.87, 140 26.25 M140 26.25 C140.6 30.48, 137.57 33.28, 131.25 35 M140 26.25 C138.31 32.15, 138.02 35.81, 131.25 35 M131.25 35 C105.88 36, 79.44 36.02, 8.75 35 M131.25 35 C104.61 36.88, 78.14 36.24, 8.75 35 M8.75 35 C1.03 34.71, -0.18 32.61, 0 26.25 M8.75 35 C4.75 34.98, 2.16 32.18, 0 26.25 M0 26.25 C-0.76 20.98, 0.98 14.87, 0 8.75 M0 26.25 C-0.54 21.97, 0.52 15.99, 0 8.75 M0 8.75 C0.44 4.91, 1.37 -1.31, 8.75 0 M0 8.75 C-0.62 0.85, 3.93 2.27, 8.75 0" stroke="#1971c2" stroke-width="1" fill="none"></path></g><g transform="translate(65 275) rotate(0 35 9)"><text x="35" y="12.584" font-family="Virgil, Segoe UI Emoji" font-size="14px" fill="#1971c2" text-anchor="middle" style="white-space: pre;" direction="ltr" dominant-baseline="alphabetic">Session</text></g><g stroke-linecap="round" transform="translate(30 320) rotate(0 70 17.5)"><path d="M8.75 0 C38.96 -0.7, 59.47 0.51, 131.25 0 C139.84 -2.71, 140.43 6.47, 140 8.75 C138.46 14.65, 137.24 22.31, 140 26.25 C137.73 35.39, 139.31 32.97, 131.25 35 C90.66 34.61, 51.53 33.41, 8.75 35 C-0.07 32.22, 0.36 34.47, 0 26.25 C-1.83 19.88, 1.07 20.55, 0 8.75 C2.2 2.16, 2.19 -0.48, 8.75 0" stroke="none" stroke-width="0" fill="#a5d8ff"></path><path d="M8.75 0 C34.11 0.72, 57.43 0.91, 131.25 0 M8.75 0 C42.27 -0.3, 75.16 0.92, 131.25 0 M131.25 0 C135.79 0.53, 140.88 4.54, 140 8.75 M131.25 0 C137.28 0.56, 138.67 4.65, 140 8.75 M140 8.75 C141.26 11.03, 140.88 17.44, 140 26.25 M140 8.75 C139.48 15.29, 140.13 21.87, 140 26.25 M140 26.25 C140.6 30.48, 137.57 33.28, 131.25 35 M140 26.25 C138.31 32.15, 138.02 35.81, 131.25 35 M131.25 35 C105.88 36, 79.44 36.02, 8.75 35 M131.25 35 C104.61 36.88, 78.14 36.24, 8.75 35 M8.75 35 C1.03 34.71, -0.18 32.61, 0 26.25 M8.75 35 C4.75 34.98, 2.16 32.18, 0 26.25 M0 26.25 C-0.76 20.98, 0.98 14.87, 0 8.75 M0 26.25 C-0.54 21.97, 0.52 15.99, 0 8.75 M0 8.75 C0.44 4.91, 1.37 -1.31, 8.75 0 M0 8.75 C-0.62 0.85, 3.93 2.27, 8.75 0" stroke="#1971c2" stroke-width="1" fill="none"></path></g><g transform="translate(50 330) rotate(0 50 9)"><text x="50" y="12.584" font-family="Virgil, Segoe UI Emoji" font-size="14px" fill="#1971c2" text-anchor="middle" style="white-space: pre;" direction="ltr" dominant-baseline="alphabetic">AgentCore/Ai</text></g><g stroke-linecap="round"><g transform="translate(100 135) rotate(0 0 10)"><path d="M0 0 C0.35 4.48, -0.24 8.58, 0 20 M0 0 C0.01 5.05, -0.2 11.1, 0 20" stroke="#1971c2" stroke-width="2" fill="none"></path></g><g transform="translate(100 135) rotate(0 0 10)"><path d="M-3.53 10.64 C-2.65 12.75, -2.24 14.67, 0 20 M-3.53 10.64 C-2.56 13, -1.71 15.85, 0 20" stroke="#1971c2" stroke-width="2" fill="none"></path></g><g transform="translate(100 135) rotate(0 0 10)"><path d="M3.31 10.56 C2.82 12.69, 1.87 14.63, 0 20 M3.31 10.56 C2.42 12.93, 1.41 15.8, 0 20" stroke="#1971c2" stroke-width="2" fill="none"></path></g></g><mask></mask><g stroke-linecap="round"><g transform="translate(100 190) rotate(0 0 10)"><path d="M0 0 C0.35 4.48, -0.24 8.58, 0 20 M0 0 C0.01 5.05, -0.2 11.1, 0 20" stroke="#1971c2" stroke-width="2" fill="none"></path></g><g transform="translate(100 190) rotate(0 0 10)"><path d="M-3.53 10.64 C-2.65 12.75, -2.24 14.67, 0 20 M-3.53 10.64 C-2.56 13, -1.71 15.85, 0 20" stroke="#1971c2" stroke-width="2" fill="none"></path></g><g transform="translate(100 190) rotate(0 0 10)"><path d="M3.31 10.56 C2.82 12.69, 1.87 14.63, 0 20 M3.31 10.56 C2.42 12.93, 1.41 15.8, 0 20" stroke="#1971c2" stroke-width="2" fill="none"></path></g></g><mask></mask><g stroke-linecap="round"><g transform="translate(100 245) rotate(0 0 10)"><path d="M0 0 C0.35 4.48, -0.24 8.58, 0 20 M0 0 C0.01 5.05, -0.2 11.1, 0 20" stroke="#1971c2" stroke-width="2" fill="none"></path></g><g transform="translate(100 245) rotate(0 0 10)"><path d="M-3.53 10.64 C-2.65 12.75, -2.24 14.67, 0 20 M-3.53 10.64 C-2.56 13, -1.71 15.85, 0 20" stroke="#1971c2" stroke-width="2" fill="none"></path></g><g transform="translate(100 245) rotate(0 0 10)"><path d="M3.31 10.56 C2.82 12.69, 1.87 14.63, 0 20 M3.31 10.56 C2.42 12.93, 1.41 15.8, 0 20" stroke="#1971c2" stroke-width="2" fill="none"></path></g></g><mask></mask><g stroke-linecap="round"><g transform="translate(100 300) rotate(0 0 10)"><path d="M0 0 C0.35 4.48, -0.24 8.58, 0 20 M0 0 C0.01 5.05, -0.2 11.1, 0 20" stroke="#1971c2" stroke-width="2" fill="none"></path></g><g transform="translate(100 300) rotate(0 0 10)"><path d="M-3.53 10.64 C-2.65 12.75, -2.24 14.67, 0 20 M-3.53 10.64 C-2.56 13, -1.71 15.85, 0 20" stroke="#1971c2" stroke-width="2" fill="none"></path></g><g transform="translate(100 300) rotate(0 0 10)"><path d="M3.31 10.56 C2.82 12.69, 1.87 14.63, 0 20 M3.31 10.56 C2.42 12.93, 1.41 15.8, 0 20" stroke="#1971c2" stroke-width="2" fill="none"></path></g></g><mask></mask><g stroke-linecap="round" transform="translate(210 60) rotate(0 90 160)"><path d="M32 0 C60.78 -0.63, 79.86 0.57, 148 0 C172.09 -2.71, 180.43 14.22, 180 32 C176.96 115.48, 175.83 200.58, 180 288 C177.73 312.64, 171.56 317.97, 148 320 C109.59 319.66, 72.64 318.46, 32 320 C7.68 317.22, 0.36 311.72, 0 288 C-0.48 223.78, 2.19 166.05, 0 32 C2.2 9.91, 9.94 -0.48, 32 0" stroke="none" stroke-width="0" fill="#faf5ff"></path><path d="M32 0 C56.06 0.73, 78.08 0.93, 148 0 M32 0 C63.75 -0.33, 94.87 0.89, 148 0 M148 0 C168.04 0.53, 180.88 12.29, 180 32 M148 0 C169.53 0.56, 178.67 12.4, 180 32 M180 32 C180.29 86.27, 179.93 144.35, 180 288 M180 32 C177.96 131.46, 178.56 230.96, 180 288 M180 288 C180.6 307.73, 169.82 318.28, 148 320 M180 288 C178.31 309.4, 170.27 320.81, 148 320 M148 320 C124.03 320.93, 98.99 320.95, 32 320 M148 320 C122.76 321.82, 97.69 321.18, 32 320 M32 320 C8.78 319.71, -0.18 309.86, 0 288 M32 320 C12.5 319.98, 2.16 309.43, 0 288 M0 288 C-2.08 214.35, -0.48 139.92, 0 32 M0 288 C-0.67 217.75, 0.31 145.93, 0 32 M0 32 C0.44 12.66, 9.12 -1.31, 32 0 M0 32 C-0.62 8.6, 11.68 2.27, 32 0" stroke="#9c36b5" stroke-width="2" fill="none"></path></g><g transform="translate(225 70) rotate(0 75 10)"><text x="75" y="13.584" font-family="Virgil, Segoe UI Emoji" font-size="14px" fill="#9c36b5" text-anchor="middle" style="white-space: pre;" direction="ltr" dominant-baseline="alphabetic">Control Plane Path</text></g><g stroke-linecap="round" transform="translate(230 100) rotate(0 70 17.5)"><path d="M8.75 0 C38.96 -0.7, 59.47 0.51, 131.25 0 C139.84 -2.71, 140.43 6.47, 140 8.75 C138.46 14.65, 137.24 22.31, 140 26.25 C137.73 35.39, 139.31 32.97, 131.25 35 C90.66 34.61, 51.53 33.41, 8.75 35 C-0.07 32.22, 0.36 34.47, 0 26.25 C-1.83 19.88, 1.07 20.55, 0 8.75 C2.2 2.16, 2.19 -0.48, 8.75 0" stroke="none" stroke-width="0" fill="#eebefa"></path><path d="M8.75 0 C34.11 0.72, 57.43 0.91, 131.25 0 M8.75 0 C42.27 -0.3, 75.16 0.92, 131.25 0 M131.25 0 C135.79 0.53, 140.88 4.54, 140 8.75 M131.25 0 C137.28 0.56, 138.67 4.65, 140 8.75 M140 8.75 C141.26 11.03, 140.88 17.44, 140 26.25 M140 8.75 C139.48 15.29, 140.13 21.87, 140 26.25 M140 26.25 C140.6 30.48, 137.57 33.28, 131.25 35 M140 26.25 C138.31 32.15, 138.02 35.81, 131.25 35 M131.25 35 C105.88 36, 79.44 36.02, 8.75 35 M131.25 35 C104.61 36.88, 78.14 36.24, 8.75 35 M8.75 35 C1.03 34.71, -0.18 32.61, 0 26.25 M8.75 35 C4.75 34.98, 2.16 32.18, 0 26.25 M0 26.25 C-0.76 20.98, 0.98 14.87, 0 8.75 M0 26.25 C-0.54 21.97, 0.52 15.99, 0 8.75 M0 8.75 C0.44 4.91, 1.37 -1.31, 8.75 0 M0 8.75 C-0.62 0.85, 3.93 2.27, 8.75 0" stroke="#9c36b5" stroke-width="1" fill="none"></path></g><g transform="translate(250 110) rotate(0 50 9)"><text x="50" y="12.584" font-family="Virgil, Segoe UI Emoji" font-size="14px" fill="#9c36b5" text-anchor="middle" style="white-space: pre;" direction="ltr" dominant-baseline="alphabetic">WebSocket</text></g><g stroke-linecap="round" transform="translate(230 155) rotate(0 70 17.5)"><path d="M8.75 0 C38.96 -0.7, 59.47 0.51, 131.25 0 C139.84 -2.71, 140.43 6.47, 140 8.75 C138.46 14.65, 137.24 22.31, 140 26.25 C137.73 35.39, 139.31 32.97, 131.25 35 C90.66 34.61, 51.53 33.41, 8.75 35 C-0.07 32.22, 0.36 34.47, 0 26.25 C-1.83 19.88, 1.07 20.55, 0 8.75 C2.2 2.16, 2.19 -0.48, 8.75 0" stroke="none" stroke-width="0" fill="#eebefa"></path><path d="M8.75 0 C34.11 0.72, 57.43 0.91, 131.25 0 M8.75 0 C42.27 -0.3, 75.16 0.92, 131.25 0 M131.25 0 C135.79 0.53, 140.88 4.54, 140 8.75 M131.25 0 C137.28 0.56, 138.67 4.65, 140 8.75 M140 8.75 C141.26 11.03, 140.88 17.44, 140 26.25 M140 8.75 C139.48 15.29, 140.13 21.87, 140 26.25 M140 26.25 C140.6 30.48, 137.57 33.28, 131.25 35 M140 26.25 C138.31 32.15, 138.02 35.81, 131.25 35 M131.25 35 C105.88 36, 79.44 36.02, 8.75 35 M131.25 35 C104.61 36.88, 78.14 36.24, 8.75 35 M8.75 35 C1.03 34.71, -0.18 32.61, 0 26.25 M8.75 35 C4.75 34.98, 2.16 32.18, 0 26.25 M0 26.25 C-0.76 20.98, 0.98 14.87, 0 8.75 M0 26.25 C-0.54 21.97, 0.52 15.99, 0 8.75 M0 8.75 C0.44 4.91, 1.37 -1.31, 8.75 0 M0 8.75 C-0.62 0.85, 3.93 2.27, 8.75 0" stroke="#9c36b5" stroke-width="1" fill="none"></path></g><g transform="translate(245 165) rotate(0 55 9)"><text x="55" y="12.584" font-family="Virgil, Segoe UI Emoji" font-size="14px" fill="#9c36b5" text-anchor="middle" style="white-space: pre;" direction="ltr" dominant-baseline="alphabetic">ControlPlane</text></g><g stroke-linecap="round" transform="translate(230 210) rotate(0 70 17.5)"><path d="M8.75 0 C38.96 -0.7, 59.47 0.51, 131.25 0 C139.84 -2.71, 140.43 6.47, 140 8.75 C138.46 14.65, 137.24 22.31, 140 26.25 C137.73 35.39, 139.31 32.97, 131.25 35 C90.66 34.61, 51.53 33.41, 8.75 35 C-0.07 32.22, 0.36 34.47, 0 26.25 C-1.83 19.88, 1.07 20.55, 0 8.75 C2.2 2.16, 2.19 -0.48, 8.75 0" stroke="none" stroke-width="0" fill="#eebefa"></path><path d="M8.75 0 C34.11 0.72, 57.43 0.91, 131.25 0 M8.75 0 C42.27 -0.3, 75.16 0.92, 131.25 0 M131.25 0 C135.79 0.53, 140.88 4.54, 140 8.75 M131.25 0 C137.28 0.56, 138.67 4.65, 140 8.75 M140 8.75 C141.26 11.03, 140.88 17.44, 140 26.25 M140 8.75 C139.48 15.29, 140.13 21.87, 140 26.25 M140 26.25 C140.6 30.48, 137.57 33.28, 131.25 35 M140 26.25 C138.31 32.15, 138.02 35.81, 131.25 35 M131.25 35 C105.88 36, 79.44 36.02, 8.75 35 M131.25 35 C104.61 36.88, 78.14 36.24, 8.75 35 M8.75 35 C1.03 34.71, -0.18 32.61, 0 26.25 M8.75 35 C4.75 34.98, 2.16 32.18, 0 26.25 M0 26.25 C-0.76 20.98, 0.98 14.87, 0 8.75 M0 26.25 C-0.54 21.97, 0.52 15.99, 0 8.75 M0 8.75 C0.44 4.91, 1.37 -1.31, 8.75 0 M0 8.75 C-0.62 0.85, 3.93 2.27, 8.75 0" stroke="#9c36b5" stroke-width="1" fill="none"></path></g><g transform="translate(260 220) rotate(0 40 9)"><text x="40" y="12.584" font-family="Virgil, Segoe UI Emoji" font-size="14px" fill="#9c36b5" text-anchor="middle" style="white-space: pre;" direction="ltr" dominant-baseline="alphabetic">Router</text></g><g stroke-linecap="round" transform="translate(230 265) rotate(0 70 17.5)"><path d="M8.75 0 C38.96 -0.7, 59.47 0.51, 131.25 0 C139.84 -2.71, 140.43 6.47, 140 8.75 C138.46 14.65, 137.24 22.31, 140 26.25 C137.73 35.39, 139.31 32.97, 131.25 35 C90.66 34.61, 51.53 33.41, 8.75 35 C-0.07 32.22, 0.36 34.47, 0 26.25 C-1.83 19.88, 1.07 20.55, 0 8.75 C2.2 2.16, 2.19 -0.48, 8.75 0" stroke="none" stroke-width="0" fill="#eebefa"></path><path d="M8.75 0 C34.11 0.72, 57.43 0.91, 131.25 0 M8.75 0 C42.27 -0.3, 75.16 0.92, 131.25 0 M131.25 0 C135.79 0.53, 140.88 4.54, 140 8.75 M131.25 0 C137.28 0.56, 138.67 4.65, 140 8.75 M140 8.75 C141.26 11.03, 140.88 17.44, 140 26.25 M140 8.75 C139.48 15.29, 140.13 21.87, 140 26.25 M140 26.25 C140.6 30.48, 137.57 33.28, 131.25 35 M140 26.25 C138.31 32.15, 138.02 35.81, 131.25 35 M131.25 35 C105.88 36, 79.44 36.02, 8.75 35 M131.25 35 C104.61 36.88, 78.14 36.24, 8.75 35 M8.75 35 C1.03 34.71, -0.18 32.61, 0 26.25 M8.75 35 C4.75 34.98, 2.16 32.18, 0 26.25 M0 26.25 C-0.76 20.98, 0.98 14.87, 0 8.75 M0 26.25 C-0.54 21.97, 0.52 15.99, 0 8.75 M0 8.75 C0.44 4.91, 1.37 -1.31, 8.75 0 M0 8.75 C-0.62 0.85, 3.93 2.27, 8.75 0" stroke="#9c36b5" stroke-width="1" fill="none"></path></g><g transform="translate(255 275) rotate(0 45 9)"><text x="45" y="12.584" font-family="Virgil, Segoe UI Emoji" font-size="14px" fill="#9c36b5" text-anchor="middle" style="white-space: pre;" direction="ltr" dominant-baseline="alphabetic">Orchestrator</text></g><g stroke-linecap="round" transform="translate(230 320) rotate(0 70 17.5)"><path d="M8.75 0 C38.96 -0.7, 59.47 0.51, 131.25 0 C139.84 -2.71, 140.43 6.47, 140 8.75 C138.46 14.65, 137.24 22.31, 140 26.25 C137.73 35.39, 139.31 32.97, 131.25 35 C90.66 34.61, 51.53 33.41, 8.75 35 C-0.07 32.22, 0.36 34.47, 0 26.25 C-1.83 19.88, 1.07 20.55, 0 8.75 C2.2 2.16, 2.19 -0.48, 8.75 0" stroke="none" stroke-width="0" fill="#eebefa"></path><path d="M8.75 0 C34.11 0.72, 57.43 0.91, 131.25 0 M8.75 0 C42.27 -0.3, 75.16 0.92, 131.25 0 M131.25 0 C135.79 0.53, 140.88 4.54, 140 8.75 M131.25 0 C137.28 0.56, 138.67 4.65, 140 8.75 M140 8.75 C141.26 11.03, 140.88 17.44, 140 26.25 M140 8.75 C139.48 15.29, 140.13 21.87, 140 26.25 M140 26.25 C140.6 30.48, 137.57 33.28, 131.25 35 M140 26.25 C138.31 32.15, 138.02 35.81, 131.25 35 M131.25 35 C105.88 36, 79.44 36.02, 8.75 35 M131.25 35 C104.61 36.88, 78.14 36.24, 8.75 35 M8.75 35 C1.03 34.71, -0.18 32.61, 0 26.25 M8.75 35 C4.75 34.98, 2.16 32.18, 0 26.25 M0 26.25 C-0.76 20.98, 0.98 14.87, 0 8.75 M0 26.25 C-0.54 21.97, 0.52 15.99, 0 8.75 M0 8.75 C0.44 4.91, 1.37 -1.31, 8.75 0 M0 8.75 C-0.62 0.85, 3.93 2.27, 8.75 0" stroke="#9c36b5" stroke-width="1" fill="none"></path></g><g transform="translate(250 330) rotate(0 50 9)"><text x="50" y="12.072" font-family="Virgil, Segoe UI Emoji" font-size="12px" fill="#9c36b5" text-anchor="middle" style="white-space: pre;" direction="ltr" dominant-baseline="alphabetic">Gateway/Engine</text></g><g stroke-linecap="round"><g transform="translate(300 135) rotate(0 0 10)"><path d="M0 0 C0.35 4.48, -0.24 8.58, 0 20 M0 0 C0.01 5.05, -0.2 11.1, 0 20" stroke="#9c36b5" stroke-width="2" fill="none"></path></g><g transform="translate(300 135) rotate(0 0 10)"><path d="M-3.53 10.64 C-2.65 12.75, -2.24 14.67, 0 20 M-3.53 10.64 C-2.56 13, -1.71 15.85, 0 20" stroke="#9c36b5" stroke-width="2" fill="none"></path></g><g transform="translate(300 135) rotate(0 0 10)"><path d="M3.31 10.56 C2.82 12.69, 1.87 14.63, 0 20 M3.31 10.56 C2.42 12.93, 1.41 15.8, 0 20" stroke="#9c36b5" stroke-width="2" fill="none"></path></g></g><mask></mask><g stroke-linecap="round"><g transform="translate(300 190) rotate(0 0 10)"><path d="M0 0 C0.35 4.48, -0.24 8.58, 0 20 M0 0 C0.01 5.05, -0.2 11.1, 0 20" stroke="#9c36b5" stroke-width="2" fill="none"></path></g><g transform="translate(300 190) rotate(0 0 10)"><path d="M-3.53 10.64 C-2.65 12.75, -2.24 14.67, 0 20 M-3.53 10.64 C-2.56 13, -1.71 15.85, 0 20" stroke="#9c36b5" stroke-width="2" fill="none"></path></g><g transform="translate(300 190) rotate(0 0 10)"><path d="M3.31 10.56 C2.82 12.69, 1.87 14.63, 0 20 M3.31 10.56 C2.42 12.93, 1.41 15.8, 0 20" stroke="#9c36b5" stroke-width="2" fill="none"></path></g></g><mask></mask><g stroke-linecap="round"><g transform="translate(300 245) rotate(0 0 10)"><path d="M0 0 C0.35 4.48, -0.24 8.58, 0 20 M0 0 C0.01 5.05, -0.2 11.1, 0 20" stroke="#9c36b5" stroke-width="2" fill="none"></path></g><g transform="translate(300 245) rotate(0 0 10)"><path d="M-3.53 10.64 C-2.65 12.75, -2.24 14.67, 0 20 M-3.53 10.64 C-2.56 13, -1.71 15.85, 0 20" stroke="#9c36b5" stroke-width="2" fill="none"></path></g><g transform="translate(300 245) rotate(0 0 10)"><path d="M3.31 10.56 C2.82 12.69, 1.87 14.63, 0 20 M3.31 10.56 C2.42 12.93, 1.41 15.8, 0 20" stroke="#9c36b5" stroke-width="2" fill="none"></path></g></g><mask></mask><g stroke-linecap="round"><g transform="translate(300 300) rotate(0 0 10)"><path d="M0 0 C0.35 4.48, -0.24 8.58, 0 20 M0 0 C0.01 5.05, -0.2 11.1, 0 20" stroke="#9c36b5" stroke-width="2" fill="none"></path></g><g transform="translate(300 300) rotate(0 0 10)"><path d="M-3.53 10.64 C-2.65 12.75, -2.24 14.67, 0 20 M-3.53 10.64 C-2.56 13, -1.71 15.85, 0 20" stroke="#9c36b5" stroke-width="2" fill="none"></path></g><g transform="translate(300 300) rotate(0 0 10)"><path d="M3.31 10.56 C2.82 12.69, 1.87 14.63, 0 20 M3.31 10.56 C2.42 12.93, 1.41 15.8, 0 20" stroke="#9c36b5" stroke-width="2" fill="none"></path></g></g><mask></mask><g stroke-linecap="round" transform="translate(410 60) rotate(0 90 160)"><path d="M32 0 C60.78 -0.63, 79.86 0.57, 148 0 C172.09 -2.71, 180.43 14.22, 180 32 C176.96 115.48, 175.83 200.58, 180 288 C177.73 312.64, 171.56 317.97, 148 320 C109.59 319.66, 72.64 318.46, 32 320 C7.68 317.22, 0.36 311.72, 0 288 C-0.48 223.78, 2.19 166.05, 0 32 C2.2 9.91, 9.94 -0.48, 32 0" stroke="none" stroke-width="0" fill="#fff9db"></path><path d="M32 0 C56.06 0.73, 78.08 0.93, 148 0 M32 0 C63.75 -0.33, 94.87 0.89, 148 0 M148 0 C168.04 0.53, 180.88 12.29, 180 32 M148 0 C169.53 0.56, 178.67 12.4, 180 32 M180 32 C180.29 86.27, 179.93 144.35, 180 288 M180 32 C177.96 131.46, 178.56 230.96, 180 288 M180 288 C180.6 307.73, 169.82 318.28, 148 320 M180 288 C178.31 309.4, 170.27 320.81, 148 320 M148 320 C124.03 320.93, 98.99 320.95, 32 320 M148 320 C122.76 321.82, 97.69 321.18, 32 320 M32 320 C8.78 319.71, -0.18 309.86, 0 288 M32 320 C12.5 319.98, 2.16 309.43, 0 288 M0 288 C-2.08 214.35, -0.48 139.92, 0 32 M0 288 C-0.67 217.75, 0.31 145.93, 0 32 M0 32 C0.44 12.66, 9.12 -1.31, 32 0 M0 32 C-0.62 8.6, 11.68 2.27, 32 0" stroke="#e67700" stroke-width="2" fill="none"></path></g><g transform="translate(445 70) rotate(0 55 10)"><text x="55" y="13.584" font-family="Virgil, Segoe UI Emoji" font-size="14px" fill="#e67700" text-anchor="middle" style="white-space: pre;" direction="ltr" dominant-baseline="alphabetic">Channel Path</text></g><g stroke-linecap="round" transform="translate(430 100) rotate(0 70 17.5)"><path d="M8.75 0 C38.96 -0.7, 59.47 0.51, 131.25 0 C139.84 -2.71, 140.43 6.47, 140 8.75 C138.46 14.65, 137.24 22.31, 140 26.25 C137.73 35.39, 139.31 32.97, 131.25 35 C90.66 34.61, 51.53 33.41, 8.75 35 C-0.07 32.22, 0.36 34.47, 0 26.25 C-1.83 19.88, 1.07 20.55, 0 8.75 C2.2 2.16, 2.19 -0.48, 8.75 0" stroke="none" stroke-width="0" fill="#ffec99"></path><path d="M8.75 0 C34.11 0.72, 57.43 0.91, 131.25 0 M8.75 0 C42.27 -0.3, 75.16 0.92, 131.25 0 M131.25 0 C135.79 0.53, 140.88 4.54, 140 8.75 M131.25 0 C137.28 0.56, 138.67 4.65, 140 8.75 M140 8.75 C141.26 11.03, 140.88 17.44, 140 26.25 M140 8.75 C139.48 15.29, 140.13 21.87, 140 26.25 M140 26.25 C140.6 30.48, 137.57 33.28, 131.25 35 M140 26.25 C138.31 32.15, 138.02 35.81, 131.25 35 M131.25 35 C105.88 36, 79.44 36.02, 8.75 35 M131.25 35 C104.61 36.88, 78.14 36.24, 8.75 35 M8.75 35 C1.03 34.71, -0.18 32.61, 0 26.25 M8.75 35 C4.75 34.98, 2.16 32.18, 0 26.25 M0 26.25 C-0.76 20.98, 0.98 14.87, 0 8.75 M0 26.25 C-0.54 21.97, 0.52 15.99, 0 8.75 M0 8.75 C0.44 4.91, 1.37 -1.31, 8.75 0 M0 8.75 C-0.62 0.85, 3.93 2.27, 8.75 0" stroke="#e67700" stroke-width="1" fill="none"></path></g><g transform="translate(460 110) rotate(0 40 9)"><text x="40" y="12.584" font-family="Virgil, Segoe UI Emoji" font-size="14px" fill="#e67700" text-anchor="middle" style="white-space: pre;" direction="ltr" dominant-baseline="alphabetic">Telegram</text></g><g stroke-linecap="round" transform="translate(430 155) rotate(0 70 17.5)"><path d="M8.75 0 C38.96 -0.7, 59.47 0.51, 131.25 0 C139.84 -2.71, 140.43 6.47, 140 8.75 C138.46 14.65, 137.24 22.31, 140 26.25 C137.73 35.39, 139.31 32.97, 131.25 35 C90.66 34.61, 51.53 33.41, 8.75 35 C-0.07 32.22, 0.36 34.47, 0 26.25 C-1.83 19.88, 1.07 20.55, 0 8.75 C2.2 2.16, 2.19 -0.48, 8.75 0" stroke="none" stroke-width="0" fill="#ffec99"></path><path d="M8.75 0 C34.11 0.72, 57.43 0.91, 131.25 0 M8.75 0 C42.27 -0.3, 75.16 0.92, 131.25 0 M131.25 0 C135.79 0.53, 140.88 4.54, 140 8.75 M131.25 0 C137.28 0.56, 138.67 4.65, 140 8.75 M140 8.75 C141.26 11.03, 140.88 17.44, 140 26.25 M140 8.75 C139.48 15.29, 140.13 21.87, 140 26.25 M140 26.25 C140.6 30.48, 137.57 33.28, 131.25 35 M140 26.25 C138.31 32.15, 138.02 35.81, 131.25 35 M131.25 35 C105.88 36, 79.44 36.02, 8.75 35 M131.25 35 C104.61 36.88, 78.14 36.24, 8.75 35 M8.75 35 C1.03 34.71, -0.18 32.61, 0 26.25 M8.75 35 C4.75 34.98, 2.16 32.18, 0 26.25 M0 26.25 C-0.76 20.98, 0.98 14.87, 0 8.75 M0 26.25 C-0.54 21.97, 0.52 15.99, 0 8.75 M0 8.75 C0.44 4.91, 1.37 -1.31, 8.75 0 M0 8.75 C-0.62 0.85, 3.93 2.27, 8.75 0" stroke="#e67700" stroke-width="1" fill="none"></path></g><g transform="translate(455 165) rotate(0 45 9)"><text x="45" y="12.584" font-family="Virgil, Segoe UI Emoji" font-size="14px" fill="#e67700" text-anchor="middle" style="white-space: pre;" direction="ltr" dominant-baseline="alphabetic">Channels</text></g><g stroke-linecap="round" transform="translate(430 210) rotate(0 70 17.5)"><path d="M8.75 0 C38.96 -0.7, 59.47 0.51, 131.25 0 C139.84 -2.71, 140.43 6.47, 140 8.75 C138.46 14.65, 137.24 22.31, 140 26.25 C137.73 35.39, 139.31 32.97, 131.25 35 C90.66 34.61, 51.53 33.41, 8.75 35 C-0.07 32.22, 0.36 34.47, 0 26.25 C-1.83 19.88, 1.07 20.55, 0 8.75 C2.2 2.16, 2.19 -0.48, 8.75 0" stroke="none" stroke-width="0" fill="#ffec99"></path><path d="M8.75 0 C34.11 0.72, 57.43 0.91, 131.25 0 M8.75 0 C42.27 -0.3, 75.16 0.92, 131.25 0 M131.25 0 C135.79 0.53, 140.88 4.54, 140 8.75 M131.25 0 C137.28 0.56, 138.67 4.65, 140 8.75 M140 8.75 C141.26 11.03, 140.88 17.44, 140 26.25 M140 8.75 C139.48 15.29, 140.13 21.87, 140 26.25 M140 26.25 C140.6 30.48, 137.57 33.28, 131.25 35 M140 26.25 C138.31 32.15, 138.02 35.81, 131.25 35 M131.25 35 C105.88 36, 79.44 36.02, 8.75 35 M131.25 35 C104.61 36.88, 78.14 36.24, 8.75 35 M8.75 35 C1.03 34.71, -0.18 32.61, 0 26.25 M8.75 35 C4.75 34.98, 2.16 32.18, 0 26.25 M0 26.25 C-0.76 20.98, 0.98 14.87, 0 8.75 M0 26.25 C-0.54 21.97, 0.52 15.99, 0 8.75 M0 8.75 C0.44 4.91, 1.37 -1.31, 8.75 0 M0 8.75 C-0.62 0.85, 3.93 2.27, 8.75 0" stroke="#e67700" stroke-width="1" fill="none"></path></g><g transform="translate(460 220) rotate(0 40 9)"><text x="40" y="12.584" font-family="Virgil, Segoe UI Emoji" font-size="14px" fill="#e67700" text-anchor="middle" style="white-space: pre;" direction="ltr" dominant-baseline="alphabetic">Router</text></g><g stroke-linecap="round" transform="translate(430 265) rotate(0 70 17.5)"><path d="M8.75 0 C38.96 -0.7, 59.47 0.51, 131.25 0 C139.84 -2.71, 140.43 6.47, 140 8.75 C138.46 14.65, 137.24 22.31, 140 26.25 C137.73 35.39, 139.31 32.97, 131.25 35 C90.66 34.61, 51.53 33.41, 8.75 35 C-0.07 32.22, 0.36 34.47, 0 26.25 C-1.83 19.88, 1.07 20.55, 0 8.75 C2.2 2.16, 2.19 -0.48, 8.75 0" stroke="none" stroke-width="0" fill="#ffec99"></path><path d="M8.75 0 C34.11 0.72, 57.43 0.91, 131.25 0 M8.75 0 C42.27 -0.3, 75.16 0.92, 131.25 0 M131.25 0 C135.79 0.53, 140.88 4.54, 140 8.75 M131.25 0 C137.28 0.56, 138.67 4.65, 140 8.75 M140 8.75 C141.26 11.03, 140.88 17.44, 140 26.25 M140 8.75 C139.48 15.29, 140.13 21.87, 140 26.25 M140 26.25 C140.6 30.48, 137.57 33.28, 131.25 35 M140 26.25 C138.31 32.15, 138.02 35.81, 131.25 35 M131.25 35 C105.88 36, 79.44 36.02, 8.75 35 M131.25 35 C104.61 36.88, 78.14 36.24, 8.75 35 M8.75 35 C1.03 34.71, -0.18 32.61, 0 26.25 M8.75 35 C4.75 34.98, 2.16 32.18, 0 26.25 M0 26.25 C-0.76 20.98, 0.98 14.87, 0 8.75 M0 26.25 C-0.54 21.97, 0.52 15.99, 0 8.75 M0 8.75 C0.44 4.91, 1.37 -1.31, 8.75 0 M0 8.75 C-0.62 0.85, 3.93 2.27, 8.75 0" stroke="#e67700" stroke-width="1" fill="none"></path></g><g transform="translate(445 275) rotate(0 55 9)"><text x="55" y="12.072" font-family="Virgil, Segoe UI Emoji" font-size="12px" fill="#e67700" text-anchor="middle" style="white-space: pre;" direction="ltr" dominant-baseline="alphabetic">StreamCoalescer</text></g><g stroke-linecap="round" transform="translate(430 320) rotate(0 70 17.5)"><path d="M8.75 0 C38.96 -0.7, 59.47 0.51, 131.25 0 C139.84 -2.71, 140.43 6.47, 140 8.75 C138.46 14.65, 137.24 22.31, 140 26.25 C137.73 35.39, 139.31 32.97, 131.25 35 C90.66 34.61, 51.53 33.41, 8.75 35 C-0.07 32.22, 0.36 34.47, 0 26.25 C-1.83 19.88, 1.07 20.55, 0 8.75 C2.2 2.16, 2.19 -0.48, 8.75 0" stroke="none" stroke-width="0" fill="#ffec99"></path><path d="M8.75 0 C34.11 0.72, 57.43 0.91, 131.25 0 M8.75 0 C42.27 -0.3, 75.16 0.92, 131.25 0 M131.25 0 C135.79 0.53, 140.88 4.54, 140 8.75 M131.25 0 C137.28 0.56, 138.67 4.65, 140 8.75 M140 8.75 C141.26 11.03, 140.88 17.44, 140 26.25 M140 8.75 C139.48 15.29, 140.13 21.87, 140 26.25 M140 26.25 C140.6 30.48, 137.57 33.28, 131.25 35 M140 26.25 C138.31 32.15, 138.02 35.81, 131.25 35 M131.25 35 C105.88 36, 79.44 36.02, 8.75 35 M131.25 35 C104.61 36.88, 78.14 36.24, 8.75 35 M8.75 35 C1.03 34.71, -0.18 32.61, 0 26.25 M8.75 35 C4.75 34.98, 2.16 32.18, 0 26.25 M0 26.25 C-0.76 20.98, 0.98 14.87, 0 8.75 M0 26.25 C-0.54 21.97, 0.52 15.99, 0 8.75 M0 8.75 C0.44 4.91, 1.37 -1.31, 8.75 0 M0 8.75 C-0.62 0.85, 3.93 2.27, 8.75 0" stroke="#e67700" stroke-width="1" fill="none"></path></g><g transform="translate(465 330) rotate(0 35 9)"><text x="35" y="12.584" font-family="Virgil, Segoe UI Emoji" font-size="14px" fill="#e67700" text-anchor="middle" style="white-space: pre;" direction="ltr" dominant-baseline="alphabetic">Outbox</text></g><g stroke-linecap="round"><g transform="translate(500 135) rotate(0 0 10)"><path d="M0 0 C0.35 4.48, -0.24 8.58, 0 20 M0 0 C0.01 5.05, -0.2 11.1, 0 20" stroke="#e67700" stroke-width="2" fill="none"></path></g><g transform="translate(500 135) rotate(0 0 10)"><path d="M-3.53 10.64 C-2.65 12.75, -2.24 14.67, 0 20 M-3.53 10.64 C-2.56 13, -1.71 15.85, 0 20" stroke="#e67700" stroke-width="2" fill="none"></path></g><g transform="translate(500 135) rotate(0 0 10)"><path d="M3.31 10.56 C2.82 12.69, 1.87 14.63, 0 20 M3.31 10.56 C2.42 12.93, 1.41 15.8, 0 20" stroke="#e67700" stroke-width="2" fill="none"></path></g></g><mask></mask><g stroke-linecap="round"><g transform="translate(500 190) rotate(0 0 10)"><path d="M0 0 C0.35 4.48, -0.24 8.58, 0 20 M0 0 C0.01 5.05, -0.2 11.1, 0 20" stroke="#e67700" stroke-width="2" fill="none"></path></g><g transform="translate(500 190) rotate(0 0 10)"><path d="M-3.53 10.64 C-2.65 12.75, -2.24 14.67, 0 20 M-3.53 10.64 C-2.56 13, -1.71 15.85, 0 20" stroke="#e67700" stroke-width="2" fill="none"></path></g><g transform="translate(500 190) rotate(0 0 10)"><path d="M3.31 10.56 C2.82 12.69, 1.87 14.63, 0 20 M3.31 10.56 C2.42 12.93, 1.41 15.8, 0 20" stroke="#e67700" stroke-width="2" fill="none"></path></g></g><mask></mask><g stroke-linecap="round"><g transform="translate(500 245) rotate(0 0 10)"><path d="M0 0 C0.35 4.48, -0.24 8.58, 0 20 M0 0 C0.01 5.05, -0.2 11.1, 0 20" stroke="#e67700" stroke-width="2" fill="none"></path></g><g transform="translate(500 245) rotate(0 0 10)"><path d="M-3.53 10.64 C-2.65 12.75, -2.24 14.67, 0 20 M-3.53 10.64 C-2.56 13, -1.71 15.85, 0 20" stroke="#e67700" stroke-width="2" fill="none"></path></g><g transform="translate(500 245) rotate(0 0 10)"><path d="M3.31 10.56 C2.82 12.69, 1.87 14.63, 0 20 M3.31 10.56 C2.42 12.93, 1.41 15.8, 0 20" stroke="#e67700" stroke-width="2" fill="none"></path></g></g><mask></mask><g stroke-linecap="round"><g transform="translate(500 300) rotate(0 0 10)"><path d="M0 0 C0.35 4.48, -0.24 8.58, 0 20 M0 0 C0.01 5.05, -0.2 11.1, 0 20" stroke="#e67700" stroke-width="2" fill="none"></path></g><g transform="translate(500 300) rotate(0 0 10)"><path d="M-3.53 10.64 C-2.65 12.75, -2.24 14.67, 0 20 M-3.53 10.64 C-2.56 13, -1.71 15.85, 0 20" stroke="#e67700" stroke-width="2" fill="none"></path></g><g transform="translate(500 300) rotate(0 0 10)"><path d="M3.31 10.56 C2.82 12.69, 1.87 14.63, 0 20 M3.31 10.56 C2.42 12.93, 1.41 15.8, 0 20" stroke="#e67700" stroke-width="2" fill="none"></path></g></g><mask></mask><g stroke-linecap="round" transform="translate(610 60) rotate(0 90 160)"><path d="M32 0 C60.78 -0.63, 79.86 0.57, 148 0 C172.09 -2.71, 180.43 14.22, 180 32 C176.96 115.48, 175.83 200.58, 180 288 C177.73 312.64, 171.56 317.97, 148 320 C109.59 319.66, 72.64 318.46, 32 320 C7.68 317.22, 0.36 311.72, 0 288 C-0.48 223.78, 2.19 166.05, 0 32 C2.2 9.91, 9.94 -0.48, 32 0" stroke="none" stroke-width="0" fill="#ebfbee"></path><path d="M32 0 C56.06 0.73, 78.08 0.93, 148 0 M32 0 C63.75 -0.33, 94.87 0.89, 148 0 M148 0 C168.04 0.53, 180.88 12.29, 180 32 M148 0 C169.53 0.56, 178.67 12.4, 180 32 M180 32 C180.29 86.27, 179.93 144.35, 180 288 M180 32 C177.96 131.46, 178.56 230.96, 180 288 M180 288 C180.6 307.73, 169.82 318.28, 148 320 M180 288 C178.31 309.4, 170.27 320.81, 148 320 M148 320 C124.03 320.93, 98.99 320.95, 32 320 M148 320 C122.76 321.82, 97.69 321.18, 32 320 M32 320 C8.78 319.71, -0.18 309.86, 0 288 M32 320 C12.5 319.98, 2.16 309.43, 0 288 M0 288 C-2.08 214.35, -0.48 139.92, 0 32 M0 288 C-0.67 217.75, 0.31 145.93, 0 32 M0 32 C0.44 12.66, 9.12 -1.31, 32 0 M0 32 C-0.62 8.6, 11.68 2.27, 32 0" stroke="#2f9e44" stroke-width="2" fill="none"></path></g><g transform="translate(630 70) rotate(0 70 10)"><text x="70" y="13.584" font-family="Virgil, Segoe UI Emoji" font-size="14px" fill="#2f9e44" text-anchor="middle" style="white-space: pre;" direction="ltr" dominant-baseline="alphabetic">Automation Path</text></g><g stroke-linecap="round" transform="translate(630 100) rotate(0 70 17.5)"><path d="M8.75 0 C38.96 -0.7, 59.47 0.51, 131.25 0 C139.84 -2.71, 140.43 6.47, 140 8.75 C138.46 14.65, 137.24 22.31, 140 26.25 C137.73 35.39, 139.31 32.97, 131.25 35 C90.66 34.61, 51.53 33.41, 8.75 35 C-0.07 32.22, 0.36 34.47, 0 26.25 C-1.83 19.88, 1.07 20.55, 0 8.75 C2.2 2.16, 2.19 -0.48, 8.75 0" stroke="none" stroke-width="0" fill="#b2f2bb"></path><path d="M8.75 0 C34.11 0.72, 57.43 0.91, 131.25 0 M8.75 0 C42.27 -0.3, 75.16 0.92, 131.25 0 M131.25 0 C135.79 0.53, 140.88 4.54, 140 8.75 M131.25 0 C137.28 0.56, 138.67 4.65, 140 8.75 M140 8.75 C141.26 11.03, 140.88 17.44, 140 26.25 M140 8.75 C139.48 15.29, 140.13 21.87, 140 26.25 M140 26.25 C140.6 30.48, 137.57 33.28, 131.25 35 M140 26.25 C138.31 32.15, 138.02 35.81, 131.25 35 M131.25 35 C105.88 36, 79.44 36.02, 8.75 35 M131.25 35 C104.61 36.88, 78.14 36.24, 8.75 35 M8.75 35 C1.03 34.71, -0.18 32.61, 0 26.25 M8.75 35 C4.75 34.98, 2.16 32.18, 0 26.25 M0 26.25 C-0.76 20.98, 0.98 14.87, 0 8.75 M0 26.25 C-0.54 21.97, 0.52 15.99, 0 8.75 M0 8.75 C0.44 4.91, 1.37 -1.31, 8.75 0 M0 8.75 C-0.62 0.85, 3.93 2.27, 8.75 0" stroke="#2f9e44" stroke-width="1" fill="none"></path></g><g transform="translate(650 110) rotate(0 50 9)"><text x="50" y="12.584" font-family="Virgil, Segoe UI Emoji" font-size="14px" fill="#2f9e44" text-anchor="middle" style="white-space: pre;" direction="ltr" dominant-baseline="alphabetic">CronManager</text></g><g stroke-linecap="round" transform="translate(630 155) rotate(0 70 17.5)"><path d="M8.75 0 C38.96 -0.7, 59.47 0.51, 131.25 0 C139.84 -2.71, 140.43 6.47, 140 8.75 C138.46 14.65, 137.24 22.31, 140 26.25 C137.73 35.39, 139.31 32.97, 131.25 35 C90.66 34.61, 51.53 33.41, 8.75 35 C-0.07 32.22, 0.36 34.47, 0 26.25 C-1.83 19.88, 1.07 20.55, 0 8.75 C2.2 2.16, 2.19 -0.48, 8.75 0" stroke="none" stroke-width="0" fill="#b2f2bb"></path><path d="M8.75 0 C34.11 0.72, 57.43 0.91, 131.25 0 M8.75 0 C42.27 -0.3, 75.16 0.92, 131.25 0 M131.25 0 C135.79 0.53, 140.88 4.54, 140 8.75 M131.25 0 C137.28 0.56, 138.67 4.65, 140 8.75 M140 8.75 C141.26 11.03, 140.88 17.44, 140 26.25 M140 8.75 C139.48 15.29, 140.13 21.87, 140 26.25 M140 26.25 C140.6 30.48, 137.57 33.28, 131.25 35 M140 26.25 C138.31 32.15, 138.02 35.81, 131.25 35 M131.25 35 C105.88 36, 79.44 36.02, 8.75 35 M131.25 35 C104.61 36.88, 78.14 36.24, 8.75 35 M8.75 35 C1.03 34.71, -0.18 32.61, 0 26.25 M8.75 35 C4.75 34.98, 2.16 32.18, 0 26.25 M0 26.25 C-0.76 20.98, 0.98 14.87, 0 8.75 M0 26.25 C-0.54 21.97, 0.52 15.99, 0 8.75 M0 8.75 C0.44 4.91, 1.37 -1.31, 8.75 0 M0 8.75 C-0.62 0.85, 3.93 2.27, 8.75 0" stroke="#2f9e44" stroke-width="1" fill="none"></path></g><g transform="translate(660 165) rotate(0 40 9)"><text x="40" y="12.584" font-family="Virgil, Segoe UI Emoji" font-size="14px" fill="#2f9e44" text-anchor="middle" style="white-space: pre;" direction="ltr" dominant-baseline="alphabetic">Due Jobs</text></g><g stroke-linecap="round" transform="translate(630 210) rotate(0 70 17.5)"><path d="M8.75 0 C38.96 -0.7, 59.47 0.51, 131.25 0 C139.84 -2.71, 140.43 6.47, 140 8.75 C138.46 14.65, 137.24 22.31, 140 26.25 C137.73 35.39, 139.31 32.97, 131.25 35 C90.66 34.61, 51.53 33.41, 8.75 35 C-0.07 32.22, 0.36 34.47, 0 26.25 C-1.83 19.88, 1.07 20.55, 0 8.75 C2.2 2.16, 2.19 -0.48, 8.75 0" stroke="none" stroke-width="0" fill="#b2f2bb"></path><path d="M8.75 0 C34.11 0.72, 57.43 0.91, 131.25 0 M8.75 0 C42.27 -0.3, 75.16 0.92, 131.25 0 M131.25 0 C135.79 0.53, 140.88 4.54, 140 8.75 M131.25 0 C137.28 0.56, 138.67 4.65, 140 8.75 M140 8.75 C141.26 11.03, 140.88 17.44, 140 26.25 M140 8.75 C139.48 15.29, 140.13 21.87, 140 26.25 M140 26.25 C140.6 30.48, 137.57 33.28, 131.25 35 M140 26.25 C138.31 32.15, 138.02 35.81, 131.25 35 M131.25 35 C105.88 36, 79.44 36.02, 8.75 35 M131.25 35 C104.61 36.88, 78.14 36.24, 8.75 35 M8.75 35 C1.03 34.71, -0.18 32.61, 0 26.25 M8.75 35 C4.75 34.98, 2.16 32.18, 0 26.25 M0 26.25 C-0.76 20.98, 0.98 14.87, 0 8.75 M0 26.25 C-0.54 21.97, 0.52 15.99, 0 8.75 M0 8.75 C0.44 4.91, 1.37 -1.31, 8.75 0 M0 8.75 C-0.62 0.85, 3.93 2.27, 8.75 0" stroke="#2f9e44" stroke-width="1" fill="none"></path></g><g transform="translate(660 220) rotate(0 40 9)"><text x="40" y="12.584" font-family="Virgil, Segoe UI Emoji" font-size="14px" fill="#2f9e44" text-anchor="middle" style="white-space: pre;" direction="ltr" dominant-baseline="alphabetic">Router</text></g><g stroke-linecap="round" transform="translate(630 265) rotate(0 70 17.5)"><path d="M8.75 0 C38.96 -0.7, 59.47 0.51, 131.25 0 C139.84 -2.71, 140.43 6.47, 140 8.75 C138.46 14.65, 137.24 22.31, 140 26.25 C137.73 35.39, 139.31 32.97, 131.25 35 C90.66 34.61, 51.53 33.41, 8.75 35 C-0.07 32.22, 0.36 34.47, 0 26.25 C-1.83 19.88, 1.07 20.55, 0 8.75 C2.2 2.16, 2.19 -0.48, 8.75 0" stroke="none" stroke-width="0" fill="#b2f2bb"></path><path d="M8.75 0 C34.11 0.72, 57.43 0.91, 131.25 0 M8.75 0 C42.27 -0.3, 75.16 0.92, 131.25 0 M131.25 0 C135.79 0.53, 140.88 4.54, 140 8.75 M131.25 0 C137.28 0.56, 138.67 4.65, 140 8.75 M140 8.75 C141.26 11.03, 140.88 17.44, 140 26.25 M140 8.75 C139.48 15.29, 140.13 21.87, 140 26.25 M140 26.25 C140.6 30.48, 137.57 33.28, 131.25 35 M140 26.25 C138.31 32.15, 138.02 35.81, 131.25 35 M131.25 35 C105.88 36, 79.44 36.02, 8.75 35 M131.25 35 C104.61 36.88, 78.14 36.24, 8.75 35 M8.75 35 C1.03 34.71, -0.18 32.61, 0 26.25 M8.75 35 C4.75 34.98, 2.16 32.18, 0 26.25 M0 26.25 C-0.76 20.98, 0.98 14.87, 0 8.75 M0 26.25 C-0.54 21.97, 0.52 15.99, 0 8.75 M0 8.75 C0.44 4.91, 1.37 -1.31, 8.75 0 M0 8.75 C-0.62 0.85, 3.93 2.27, 8.75 0" stroke="#2f9e44" stroke-width="1" fill="none"></path></g><g transform="translate(640 275) rotate(0 60 9)"><text x="60" y="12.072" font-family="Virgil, Segoe UI Emoji" font-size="12px" fill="#2f9e44" text-anchor="middle" style="white-space: pre;" direction="ltr" dominant-baseline="alphabetic">HeartbeatManager</text></g><g stroke-linecap="round" transform="translate(630 320) rotate(0 70 17.5)"><path d="M8.75 0 C38.96 -0.7, 59.47 0.51, 131.25 0 C139.84 -2.71, 140.43 6.47, 140 8.75 C138.46 14.65, 137.24 22.31, 140 26.25 C137.73 35.39, 139.31 32.97, 131.25 35 C90.66 34.61, 51.53 33.41, 8.75 35 C-0.07 32.22, 0.36 34.47, 0 26.25 C-1.83 19.88, 1.07 20.55, 0 8.75 C2.2 2.16, 2.19 -0.48, 8.75 0" stroke="none" stroke-width="0" fill="#b2f2bb"></path><path d="M8.75 0 C34.11 0.72, 57.43 0.91, 131.25 0 M8.75 0 C42.27 -0.3, 75.16 0.92, 131.25 0 M131.25 0 C135.79 0.53, 140.88 4.54, 140 8.75 M131.25 0 C137.28 0.56, 138.67 4.65, 140 8.75 M140 8.75 C141.26 11.03, 140.88 17.44, 140 26.25 M140 8.75 C139.48 15.29, 140.13 21.87, 140 26.25 M140 26.25 C140.6 30.48, 137.57 33.28, 131.25 35 M140 26.25 C138.31 32.15, 138.02 35.81, 131.25 35 M131.25 35 C105.88 36, 79.44 36.02, 8.75 35 M131.25 35 C104.61 36.88, 78.14 36.24, 8.75 35 M8.75 35 C1.03 34.71, -0.18 32.61, 0 26.25 M8.75 35 C4.75 34.98, 2.16 32.18, 0 26.25 M0 26.25 C-0.76 20.98, 0.98 14.87, 0 8.75 M0 26.25 C-0.54 21.97, 0.52 15.99, 0 8.75 M0 8.75 C0.44 4.91, 1.37 -1.31, 8.75 0 M0 8.75 C-0.62 0.85, 3.93 2.27, 8.75 0" stroke="#2f9e44" stroke-width="1" fill="none"></path></g><g transform="translate(650 330) rotate(0 50 9)"><text x="50" y="12.584" font-family="Virgil, Segoe UI Emoji" font-size="14px" fill="#2f9e44" text-anchor="middle" style="white-space: pre;" direction="ltr" dominant-baseline="alphabetic">Events on Bus</text></g><g stroke-linecap="round"><g transform="translate(700 135) rotate(0 0 10)"><path d="M0 0 C0.35 4.48, -0.24 8.58, 0 20 M0 0 C0.01 5.05, -0.2 11.1, 0 20" stroke="#2f9e44" stroke-width="2" fill="none"></path></g><g transform="translate(700 135) rotate(0 0 10)"><path d="M-3.53 10.64 C-2.65 12.75, -2.24 14.67, 0 20 M-3.53 10.64 C-2.56 13, -1.71 15.85, 0 20" stroke="#2f9e44" stroke-width="2" fill="none"></path></g><g transform="translate(700 135) rotate(0 0 10)"><path d="M3.31 10.56 C2.82 12.69, 1.87 14.63, 0 20 M3.31 10.56 C2.42 12.93, 1.41 15.8, 0 20" stroke="#2f9e44" stroke-width="2" fill="none"></path></g></g><mask></mask><g stroke-linecap="round"><g transform="translate(700 190) rotate(0 0 10)"><path d="M0 0 C0.35 4.48, -0.24 8.58, 0 20 M0 0 C0.01 5.05, -0.2 11.1, 0 20" stroke="#2f9e44" stroke-width="2" fill="none"></path></g><g transform="translate(700 190) rotate(0 0 10)"><path d="M-3.53 10.64 C-2.65 12.75, -2.24 14.67, 0 20 M-3.53 10.64 C-2.56 13, -1.71 15.85, 0 20" stroke="#2f9e44" stroke-width="2" fill="none"></path></g><g transform="translate(700 190) rotate(0 0 10)"><path d="M3.31 10.56 C2.82 12.69, 1.87 14.63, 0 20 M3.31 10.56 C2.42 12.93, 1.41 15.8, 0 20" stroke="#2f9e44" stroke-width="2" fill="none"></path></g></g><mask></mask><g stroke-linecap="round"><g transform="translate(700 245) rotate(0 0 10)"><path d="M0 0 C0.35 4.48, -0.24 8.58, 0 20 M0 0 C0.01 5.05, -0.2 11.1, 0 20" stroke="#2f9e44" stroke-width="2" fill="none"></path></g><g transform="translate(700 245) rotate(0 0 10)"><path d="M-3.53 10.64 C-2.65 12.75, -2.24 14.67, 0 20 M-3.53 10.64 C-2.56 13, -1.71 15.85, 0 20" stroke="#2f9e44" stroke-width="2" fill="none"></path></g><g transform="translate(700 245) rotate(0 0 10)"><path d="M3.31 10.56 C2.82 12.69, 1.87 14.63, 0 20 M3.31 10.56 C2.42 12.93, 1.41 15.8, 0 20" stroke="#2f9e44" stroke-width="2" fill="none"></path></g></g><mask></mask><g stroke-linecap="round"><g transform="translate(700 300) rotate(0 0 10)"><path d="M0 0 C0.35 4.48, -0.24 8.58, 0 20 M0 0 C0.01 5.05, -0.2 11.1, 0 20" stroke="#2f9e44" stroke-width="2" fill="none"></path></g><g transform="translate(700 300) rotate(0 0 10)"><path d="M-3.53 10.64 C-2.65 12.75, -2.24 14.67, 0 20 M-3.53 10.64 C-2.56 13, -1.71 15.85, 0 20" stroke="#2f9e44" stroke-width="2" fill="none"></path></g><g transform="translate(700 300) rotate(0 0 10)"><path d="M3.31 10.56 C2.82 12.69, 1.87 14.63, 0 20 M3.31 10.56 C2.42 12.93, 1.41 15.8, 0 20" stroke="#2f9e44" stroke-width="2" fill="none"></path></g></g><mask></mask></svg>