<svg version="1.1" xmlns="http://www.w3.org/2000/svg" viewBox="0 0 650 380" width="650" height="380"><!-- svg-source:excalidraw --><metadata></metadata><defs><style class="style-fonts">
      </style></defs><rect x="0" y="0" width="650" height="380" fill="#ffffff"></rect><g transform="translate(240 10) rotate(0 100 15)"><text x="100" y="21.144" font-family="Virgil, Segoe UI Emoji" font-size="24px" fill="#1e1e1e" text-anchor="middle" style="white-space: pre;" direction="ltr" dominant-baseline="alphabetic">Event Bus Architecture</text></g><g stroke-linecap="round" transform="translate(160 130) rotate(0 180 25)"><path d="M12.5 0 C88.4 -1.82, 157.74 -1, 347.5 0 C358.59 -2.71, 360.43 7.72, 360 12.5 C358.2 20.87, 356.8 31.25, 360 37.5 C357.73 49.14, 358.06 47.97, 347.5 50 C235.47 48.54, 124.43 47.73, 12.5 50 C1.18 47.22, 0.36 48.22, 0 37.5 C-2.06 29.01, 1.26 28.55, 0 12.5 C2.2 3.41, 3.44 -0.48, 12.5 0" stroke="none" stroke-width="0" fill="#ffc9c9"></path><path d="M12.5 0 C80.08 0.19, 146.29 0.33, 347.5 0 M12.5 0 C103.75 0.37, 194.58 1.19, 347.5 0 M347.5 0 C354.54 0.53, 360.88 5.79, 360 12.5 M347.5 0 C356.03 0.56, 358.67 5.9, 360 12.5 M360 12.5 C361.42 16.19, 360.98 24.61, 360 37.5 M360 12.5 C359.36 21.92, 360.11 31.39, 360 37.5 M360 37.5 C360.6 44.23, 356.32 48.28, 347.5 50 M360 37.5 C358.31 45.9, 356.77 50.81, 347.5 50 M347.5 50 C275.96 52.09, 203.69 52.11, 12.5 50 M347.5 50 C275.06 52.59, 202.74 52.15, 12.5 50 M12.5 50 C2.28 49.71, -0.18 46.36, 0 37.5 M12.5 50 C6 49.98, 2.16 45.93, 0 37.5 M0 37.5 C-0.9 30.05, 1.08 21.63, 0 12.5 M0 37.5 C-0.63 31.23, 0.59 23.01, 0 12.5 M0 12.5 C0.44 6.16, 2.62 -1.31, 12.5 0 M0 12.5 C-0.62 2.1, 5.18 2.27, 12.5 0" stroke="#c92a2a" stroke-width="2" fill="none"></path></g><g transform="translate(250 145) rotate(0 90 12.5)"><text x="90" y="16.596" font-family="Virgil, Segoe UI Emoji" font-size="16px" fill="#c92a2a" text-anchor="middle" style="white-space: pre;" direction="ltr" dominant-baseline="alphabetic">LemonCore.Bus (PubSub)</text></g><g stroke-linecap="round" transform="translate(10 50) rotate(0 60 22.5)"><path d="M11.25 0 C35.96 -0.46, 50.97 0.75, 108.75 0 C119.01 -2.71, 120.43 7.31, 120 11.25 C118.22 18.81, 116.82 28.37, 120 33.75 C117.73 44.56, 118.47 42.97, 108.75 45 C76.54 44.82, 45.8 43.62, 11.25 45 C0.77 42.22, 0.36 43.64, 0 33.75 C-2.07 25.86, 1.24 26.02, 0 11.25 C2.2 2.99, 3.02 -0.48, 11.25 0" stroke="none" stroke-width="0" fill="#a5d8ff"></path><path d="M11.25 0 C31.61 0.77, 49.93 0.97, 108.75 0 M11.25 0 C37.97 -0.4, 64.06 0.82, 108.75 0 M108.75 0 C114.95 0.53, 120.88 5.38, 120 11.25 M108.75 0 C116.45 0.56, 118.67 5.48, 120 11.25 M120 11.25 C121.43 14.39, 121 22.27, 120 33.75 M120 11.25 C119.38 19.7, 120.13 28.19, 120 33.75 M120 33.75 C120.6 39.65, 116.73 43.28, 108.75 45 M120 33.75 C118.31 41.31, 117.19 45.81, 108.75 45 M108.75 45 C88.77 45.75, 67.72 45.77, 11.25 45 M108.75 45 C87.51 46.65, 66.43 46.01, 11.25 45 M11.25 45 C1.86 44.71, -0.18 41.78, 0 33.75 M11.25 45 C5.58 44.98, 2.16 41.35, 0 33.75 M0 33.75 C-0.88 27.02, 1.1 19.32, 0 11.25 M0 33.75 C-0.62 28.17, 0.59 20.64, 0 11.25 M0 11.25 C0.44 5.75, 2.2 -1.31, 11.25 0 M0 11.25 C-0.62 1.68, 4.76 2.27, 11.25 0" stroke="#1971c2" stroke-width="1" fill="none"></path></g><g transform="translate(35 63) rotate(0 35 10)"><text x="35" y="13.584" font-family="Virgil, Segoe UI Emoji" font-size="14px" fill="#1971c2" text-anchor="middle" style="white-space: pre;" direction="ltr" dominant-baseline="alphabetic">Session</text></g><g stroke-linecap="round" transform="translate(160 50) rotate(0 60 22.5)"><path d="M11.25 0 C35.96 -0.46, 50.97 0.75, 108.75 0 C119.01 -2.71, 120.43 7.31, 120 11.25 C118.22 18.81, 116.82 28.37, 120 33.75 C117.73 44.56, 118.47 42.97, 108.75 45 C76.54 44.82, 45.8 43.62, 11.25 45 C0.77 42.22, 0.36 43.64, 0 33.75 C-2.07 25.86, 1.24 26.02, 0 11.25 C2.2 2.99, 3.02 -0.48, 11.25 0" stroke="none" stroke-width="0" fill="#a5d8ff"></path><path d="M11.25 0 C31.61 0.77, 49.93 0.97, 108.75 0 M11.25 0 C37.97 -0.4, 64.06 0.82, 108.75 0 M108.75 0 C114.95 0.53, 120.88 5.38, 120 11.25 M108.75 0 C116.45 0.56, 118.67 5.48, 120 11.25 M120 11.25 C121.43 14.39, 121 22.27, 120 33.75 M120 11.25 C119.38 19.7, 120.13 28.19, 120 33.75 M120 33.75 C120.6 39.65, 116.73 43.28, 108.75 45 M120 33.75 C118.31 41.31, 117.19 45.81, 108.75 45 M108.75 45 C88.77 45.75, 67.72 45.77, 11.25 45 M108.75 45 C87.51 46.65, 66.43 46.01, 11.25 45 M11.25 45 C1.86 44.71, -0.18 41.78, 0 33.75 M11.25 45 C5.58 44.98, 2.16 41.35, 0 33.75 M0 33.75 C-0.88 27.02, 1.1 19.32, 0 11.25 M0 33.75 C-0.62 28.17, 0.59 20.64, 0 11.25 M0 11.25 C0.44 5.75, 2.2 -1.31, 11.25 0 M0 11.25 C-0.62 1.68, 4.76 2.27, 11.25 0" stroke="#1971c2" stroke-width="1" fill="none"></path></g><g transform="translate(185 63) rotate(0 35 10)"><text x="35" y="13.584" font-family="Virgil, Segoe UI Emoji" font-size="14px" fill="#1971c2" text-anchor="middle" style="white-space: pre;" direction="ltr" dominant-baseline="alphabetic">Router</text></g><g stroke-linecap="round" transform="translate(310 50) rotate(0 60 22.5)"><path d="M11.25 0 C35.96 -0.46, 50.97 0.75, 108.75 0 C119.01 -2.71, 120.43 7.31, 120 11.25 C118.22 18.81, 116.82 28.37, 120 33.75 C117.73 44.56, 118.47 42.97, 108.75 45 C76.54 44.82, 45.8 43.62, 11.25 45 C0.77 42.22, 0.36 43.64, 0 33.75 C-2.07 25.86, 1.24 26.02, 0 11.25 C2.2 2.99, 3.02 -0.48, 11.25 0" stroke="none" stroke-width="0" fill="#a5d8ff"></path><path d="M11.25 0 C31.61 0.77, 49.93 0.97, 108.75 0 M11.25 0 C37.97 -0.4, 64.06 0.82, 108.75 0 M108.75 0 C114.95 0.53, 120.88 5.38, 120 11.25 M108.75 0 C116.45 0.56, 118.67 5.48, 120 11.25 M120 11.25 C121.43 14.39, 121 22.27, 120 33.75 M120 11.25 C119.38 19.7, 120.13 28.19, 120 33.75 M120 33.75 C120.6 39.65, 116.73 43.28, 108.75 45 M120 33.75 C118.31 41.31, 117.19 45.81, 108.75 45 M108.75 45 C88.77 45.75, 67.72 45.77, 11.25 45 M108.75 45 C87.51 46.65, 66.43 46.01, 11.25 45 M11.25 45 C1.86 44.71, -0.18 41.78, 0 33.75 M11.25 45 C5.58 44.98, 2.16 41.35, 0 33.75 M0 33.75 C-0.88 27.02, 1.1 19.32, 0 11.25 M0 33.75 C-0.62 28.17, 0.59 20.64, 0 11.25 M0 11.25 C0.44 5.75, 2.2 -1.31, 11.25 0 M0 11.25 C-0.62 1.68, 4.76 2.27, 11.25 0" stroke="#1971c2" stroke-width="1" fill="none"></path></g><g transform="translate(335 63) rotate(0 35 10)"><text x="35" y="13.584" font-family="Virgil, Segoe UI Emoji" font-size="14px" fill="#1971c2" text-anchor="middle" style="white-space: pre;" direction="ltr" dominant-baseline="alphabetic">Gateway</text></g><g stroke-linecap="round" transform="translate(460 50) rotate(0 60 22.5)"><path d="M11.25 0 C35.96 -0.46, 50.97 0.75, 108.75 0 C119.01 -2.71, 120.43 7.31, 120 11.25 C118.22 18.81, 116.82 28.37, 120 33.75 C117.73 44.56, 118.47 42.97, 108.75 45 C76.54 44.82, 45.8 43.62, 11.25 45 C0.77 42.22, 0.36 43.64, 0 33.75 C-2.07 25.86, 1.24 26.02, 0 11.25 C2.2 2.99, 3.02 -0.48, 11.25 0" stroke="none" stroke-width="0" fill="#a5d8ff"></path><path d="M11.25 0 C31.61 0.77, 49.93 0.97, 108.75 0 M11.25 0 C37.97 -0.4, 64.06 0.82, 108.75 0 M108.75 0 C114.95 0.53, 120.88 5.38, 120 11.25 M108.75 0 C116.45 0.56, 118.67 5.48, 120 11.25 M120 11.25 C121.43 14.39, 121 22.27, 120 33.75 M120 11.25 C119.38 19.7, 120.13 28.19, 120 33.75 M120 33.75 C120.6 39.65, 116.73 43.28, 108.75 45 M120 33.75 C118.31 41.31, 117.19 45.81, 108.75 45 M108.75 45 C88.77 45.75, 67.72 45.77, 11.25 45 M108.75 45 C87.51 46.65, 66.43 46.01, 11.25 45 M11.25 45 C1.86 44.71, -0.18 41.78, 0 33.75 M11.25 45 C5.58 44.98, 2.16 41.35, 0 33.75 M0 33.75 C-0.88 27.02, 1.1 19.32, 0 11.25 M0 33.75 C-0.62 28.17, 0.59 20.64, 0 11.25 M0 11.25 C0.44 5.75, 2.2 -1.31, 11.25 0 M0 11.25 C-0.62 1.68, 4.76 2.27, 11.25 0" stroke="#1971c2" stroke-width="1" fill="none"></path></g><g transform="translate(475 63) rotate(0 45 10)"><text x="45" y="13.584" font-family="Virgil, Segoe UI Emoji" font-size="14px" fill="#1971c2" text-anchor="middle" style="white-space: pre;" direction="ltr" dominant-baseline="alphabetic">Automation</text></g><g stroke-linecap="round"><g transform="translate(70 95) rotate(0 70 17.5)"><path d="M0 0 C28.57 7.68, 55.39 14.88, 140 35 M0 0 C37.97 9.29, 75.63 20.03, 140 35" stroke="#1971c2" stroke-width="2" fill="none"></path></g><g transform="translate(70 95) rotate(0 70 17.5)"><path d="M115.16 37.8 C121.01 38.16, 124.8 37.8, 140 35 M115.16 37.8 C122.14 36.35, 128.47 36.81, 140 35" stroke="#1971c2" stroke-width="2" fill="none"></path></g><g transform="translate(70 95) rotate(0 70 17.5)"><path d="M119.17 21.18 C124.08 24.87, 127.07 27.83, 140 35 M119.17 21.18 C124.91 24.24, 130.15 29.21, 140 35" stroke="#1971c2" stroke-width="2" fill="none"></path></g></g><mask></mask><g stroke-linecap="round"><g transform="translate(220 95) rotate(0 30 17.5)"><path d="M0 0 C12.57 7.84, 23.39 15.04, 60 35 M0 0 C16.21 8.97, 32.11 19.71, 60 35" stroke="#1971c2" stroke-width="2" fill="none"></path></g><g transform="translate(220 95) rotate(0 30 17.5)"><path d="M35.35 30.83 C41.1 32.58, 44.86 33.61, 60 35 M35.35 30.83 C42.21 31.28, 48.49 33.63, 60 35" stroke="#1971c2" stroke-width="2" fill="none"></path></g><g transform="translate(220 95) rotate(0 30 17.5)"><path d="M43.8 15.96 C47.74 20.7, 49.8 24.71, 60 35 M43.8 15.96 C48.23 20.42, 52.22 26.81, 60 35" stroke="#1971c2" stroke-width="2" fill="none"></path></g></g><mask></mask><g stroke-linecap="round"><g transform="translate(370 95) rotate(0 -15 17.5)"><path d="M0 0 C-5.72 7.51, -12.31 14.61, -30 35 M0 0 C-8.21 9.07, -16.59 19.2, -30 35" stroke="#1971c2" stroke-width="2" fill="none"></path></g><g transform="translate(370 95) rotate(0 -15 17.5)"><path d="M-22.03 13.37 C-23.28 18.19, -25.47 22.61, -30 35 M-22.03 13.37 C-24.19 18.85, -26.57 25.34, -30 35" stroke="#1971c2" stroke-width="2" fill="none"></path></g><g transform="translate(370 95) rotate(0 -15 17.5)"><path d="M-9.99 23.56 C-13.61 26.35, -18.2 28.74, -30 35 M-9.99 23.56 C-15.39 26.24, -21.04 29.96, -30 35" stroke="#1971c2" stroke-width="2" fill="none"></path></g></g><mask></mask><g stroke-linecap="round"><g transform="translate(520 95) rotate(0 -50 17.5)"><path d="M0 0 C-19.43 8.17, -40.61 15.37, -100 35 M0 0 C-27.31 8.34, -54.93 19.07, -100 35" stroke="#1971c2" stroke-width="2" fill="none"></path></g><g transform="translate(520 95) rotate(0 -50 17.5)"><path d="M-80.77 19.03 C-83.89 23.23, -88.91 26.62, -100 35 M-80.77 19.03 C-85.94 22.51, -91.6 28.07, -100 35" stroke="#1971c2" stroke-width="2" fill="none"></path></g><g transform="translate(520 95) rotate(0 -50 17.5)"><path d="M-75 35.13 C-79.14 36.12, -85.32 36.29, -100 35 M-75 35.13 C-81.6 34.21, -88.83 35.39, -100 35" stroke="#1971c2" stroke-width="2" fill="none"></path></g></g><mask></mask><g stroke-linecap="round" transform="translate(10 220) rotate(0 65 22.5)"><path d="M11.25 0 C38.16 -0.55, 55.37 0.65, 118.75 0 C129.01 -2.71, 130.43 7.31, 130 11.25 C128.22 18.81, 126.82 28.37, 130 33.75 C127.73 44.56, 128.47 42.97, 118.75 45 C83.19 44.73, 49.09 43.53, 11.25 45 C0.77 42.22, 0.36 43.64, 0 33.75 C-2.07 25.86, 1.24 26.02, 0 11.25 C2.2 2.99, 3.02 -0.48, 11.25 0" stroke="none" stroke-width="0" fill="#b2f2bb"></path><path d="M11.25 0 C33.61 0.75, 53.93 0.95, 118.75 0 M11.25 0 C40.69 -0.36, 69.5 0.86, 118.75 0 M118.75 0 C124.95 0.53, 130.88 5.38, 130 11.25 M118.75 0 C126.45 0.56, 128.67 5.48, 130 11.25 M130 11.25 C131.43 14.39, 131 22.27, 130 33.75 M130 11.25 C129.38 19.7, 130.13 28.19, 130 33.75 M130 33.75 C130.6 39.65, 126.73 43.28, 118.75 45 M130 33.75 C128.31 41.31, 127.19 45.81, 118.75 45 M118.75 45 C96.62 45.85, 73.41 45.87, 11.25 45 M118.75 45 C95.35 46.75, 72.11 46.1, 11.25 45 M11.25 45 C1.86 44.71, -0.18 41.78, 0 33.75 M11.25 45 C5.58 44.98, 2.16 41.35, 0 33.75 M0 33.75 C-0.88 27.02, 1.1 19.32, 0 11.25 M0 33.75 C-0.62 28.17, 0.59 20.64, 0 11.25 M0 11.25 C0.44 5.75, 2.2 -1.31, 11.25 0 M0 11.25 C-0.62 1.68, 4.76 2.27, 11.25 0" stroke="#2f9e44" stroke-width="1" fill="none"></path></g><g transform="translate(25 233) rotate(0 50 10)"><text x="50" y="13.584" font-family="Virgil, Segoe UI Emoji" font-size="14px" fill="#2f9e44" text-anchor="middle" style="white-space: pre;" direction="ltr" dominant-baseline="alphabetic">ControlPlane</text></g><g stroke-linecap="round" transform="translate(160 220) rotate(0 60 22.5)"><path d="M11.25 0 C35.96 -0.46, 50.97 0.75, 108.75 0 C119.01 -2.71, 120.43 7.31, 120 11.25 C118.22 18.81, 116.82 28.37, 120 33.75 C117.73 44.56, 118.47 42.97, 108.75 45 C76.54 44.82, 45.8 43.62, 11.25 45 C0.77 42.22, 0.36 43.64, 0 33.75 C-2.07 25.86, 1.24 26.02, 0 11.25 C2.2 2.99, 3.02 -0.48, 11.25 0" stroke="none" stroke-width="0" fill="#b2f2bb"></path><path d="M11.25 0 C31.61 0.77, 49.93 0.97, 108.75 0 M11.25 0 C37.97 -0.4, 64.06 0.82, 108.75 0 M108.75 0 C114.95 0.53, 120.88 5.38, 120 11.25 M108.75 0 C116.45 0.56, 118.67 5.48, 120 11.25 M120 11.25 C121.43 14.39, 121 22.27, 120 33.75 M120 11.25 C119.38 19.7, 120.13 28.19, 120 33.75 M120 33.75 C120.6 39.65, 116.73 43.28, 108.75 45 M120 33.75 C118.31 41.31, 117.19 45.81, 108.75 45 M108.75 45 C88.77 45.75, 67.72 45.77, 11.25 45 M108.75 45 C87.51 46.65, 66.43 46.01, 11.25 45 M11.25 45 C1.86 44.71, -0.18 41.78, 0 33.75 M11.25 45 C5.58 44.98, 2.16 41.35, 0 33.75 M0 33.75 C-0.88 27.02, 1.1 19.32, 0 11.25 M0 33.75 C-0.62 28.17, 0.59 20.64, 0 11.25 M0 11.25 C0.44 5.75, 2.2 -1.31, 11.25 0 M0 11.25 C-0.62 1.68, 4.76 2.27, 11.25 0" stroke="#2f9e44" stroke-width="1" fill="none"></path></g><g transform="translate(180 233) rotate(0 40 10)"><text x="40" y="13.584" font-family="Virgil, Segoe UI Emoji" font-size="14px" fill="#2f9e44" text-anchor="middle" style="white-space: pre;" direction="ltr" dominant-baseline="alphabetic">EventBridge</text></g><g stroke-linecap="round" transform="translate(310 220) rotate(0 60 22.5)"><path d="M11.25 0 C35.96 -0.46, 50.97 0.75, 108.75 0 C119.01 -2.71, 120.43 7.31, 120 11.25 C118.22 18.81, 116.82 28.37, 120 33.75 C117.73 44.56, 118.47 42.97, 108.75 45 C76.54 44.82, 45.8 43.62, 11.25 45 C0.77 42.22, 0.36 43.64, 0 33.75 C-2.07 25.86, 1.24 26.02, 0 11.25 C2.2 2.99, 3.02 -0.48, 11.25 0" stroke="none" stroke-width="0" fill="#b2f2bb"></path><path d="M11.25 0 C31.61 0.77, 49.93 0.97, 108.75 0 M11.25 0 C37.97 -0.4, 64.06 0.82, 108.75 0 M108.75 0 C114.95 0.53, 120.88 5.38, 120 11.25 M108.75 0 C116.45 0.56, 118.67 5.48, 120 11.25 M120 11.25 C121.43 14.39, 121 22.27, 120 33.75 M120 11.25 C119.38 19.7, 120.13 28.19, 120 33.75 M120 33.75 C120.6 39.65, 116.73 43.28, 108.75 45 M120 33.75 C118.31 41.31, 117.19 45.81, 108.75 45 M108.75 45 C88.77 45.75, 67.72 45.77, 11.25 45 M108.75 45 C87.51 46.65, 66.43 46.01, 11.25 45 M11.25 45 C1.86 44.71, -0.18 41.78, 0 33.75 M11.25 45 C5.58 44.98, 2.16 41.35, 0 33.75 M0 33.75 C-0.88 27.02, 1.1 19.32, 0 11.25 M0 33.75 C-0.62 28.17, 0.59 20.64, 0 11.25 M0 11.25 C0.44 5.75, 2.2 -1.31, 11.25 0 M0 11.25 C-0.62 1.68, 4.76 2.27, 11.25 0" stroke="#2f9e44" stroke-width="1" fill="none"></path></g><g transform="translate(330 233) rotate(0 40 10)"><text x="40" y="13.584" font-family="Virgil, Segoe UI Emoji" font-size="14px" fill="#2f9e44" text-anchor="middle" style="white-space: pre;" direction="ltr" dominant-baseline="alphabetic">Coalescer</text></g><g stroke-linecap="round" transform="translate(460 220) rotate(0 60 22.5)"><path d="M11.25 0 C35.96 -0.46, 50.97 0.75, 108.75 0 C119.01 -2.71, 120.43 7.31, 120 11.25 C118.22 18.81, 116.82 28.37, 120 33.75 C117.73 44.56, 118.47 42.97, 108.75 45 C76.54 44.82, 45.8 43.62, 11.25 45 C0.77 42.22, 0.36 43.64, 0 33.75 C-2.07 25.86, 1.24 26.02, 0 11.25 C2.2 2.99, 3.02 -0.48, 11.25 0" stroke="none" stroke-width="0" fill="#b2f2bb"></path><path d="M11.25 0 C31.61 0.77, 49.93 0.97, 108.75 0 M11.25 0 C37.97 -0.4, 64.06 0.82, 108.75 0 M108.75 0 C114.95 0.53, 120.88 5.38, 120 11.25 M108.75 0 C116.45 0.56, 118.67 5.48, 120 11.25 M120 11.25 C121.43 14.39, 121 22.27, 120 33.75 M120 11.25 C119.38 19.7, 120.13 28.19, 120 33.75 M120 33.75 C120.6 39.65, 116.73 43.28, 108.75 45 M120 33.75 C118.31 41.31, 117.19 45.81, 108.75 45 M108.75 45 C88.77 45.75, 67.72 45.77, 11.25 45 M108.75 45 C87.51 46.65, 66.43 46.01, 11.25 45 M11.25 45 C1.86 44.71, -0.18 41.78, 0 33.75 M11.25 45 C5.58 44.98, 2.16 41.35, 0 33.75 M0 33.75 C-0.88 27.02, 1.1 19.32, 0 11.25 M0 33.75 C-0.62 28.17, 0.59 20.64, 0 11.25 M0 11.25 C0.44 5.75, 2.2 -1.31, 11.25 0 M0 11.25 C-0.62 1.68, 4.76 2.27, 11.25 0" stroke="#2f9e44" stroke-width="1" fill="none"></path></g><g transform="translate(480 233) rotate(0 40 10)"><text x="40" y="13.584" font-family="Virgil, Segoe UI Emoji" font-size="14px" fill="#2f9e44" text-anchor="middle" style="white-space: pre;" direction="ltr" dominant-baseline="alphabetic">Telemetry</text></g><g stroke-linecap="round"><g transform="translate(210 180) rotate(0 -65 20)"><path d="M0 0 C-25.48 9.23, -52.65 17.43, -130 40 M0 0 C-35.51 9.58, -71.29 21.68, -130 40" stroke="#2f9e44" stroke-width="2" fill="none"></path></g><g transform="translate(210 180) rotate(0 -65 20)"><path d="M-110.17 24.78 C-113.4 28.83, -118.55 32.07, -130 40 M-110.17 24.78 C-115.5 28.05, -121.32 33.41, -130 40" stroke="#2f9e44" stroke-width="2" fill="none"></path></g><g transform="translate(210 180) rotate(0 -65 20)"><path d="M-105.02 41.09 C-109.15 41.88, -115.33 41.87, -130 40 M-105.02 41.09 C-111.61 39.9, -118.83 40.83, -130 40" stroke="#2f9e44" stroke-width="2" fill="none"></path></g></g><mask></mask><g stroke-linecap="round"><g transform="translate(280 180) rotate(0 -25 20)"><path d="M0 0 C-9.47 9.07, -20.65 17.26, -50 40 M0 0 C-13.75 9.89, -27.77 21.99, -50 40" stroke="#2f9e44" stroke-width="2" fill="none"></path></g><g transform="translate(280 180) rotate(0 -25 20)"><path d="M-37.22 18.51 C-39.1 23.8, -42.83 28.3, -50 40 M-37.22 18.51 C-40.69 23.52, -44.59 30.58, -50 40" stroke="#2f9e44" stroke-width="2" fill="none"></path></g><g transform="translate(280 180) rotate(0 -25 20)"><path d="M-26.4 31.76 C-30.33 34.42, -36.23 36.26, -50 40 M-26.4 31.76 C-32.69 33.12, -39.54 36.58, -50 40" stroke="#2f9e44" stroke-width="2" fill="none"></path></g></g><mask></mask><g stroke-linecap="round"><g transform="translate(370 180) rotate(0 0 20)"><path d="M0 0 C0.26 8.48, -0.33 16.58, 0 40 M0 0 C-0.07 10.49, -0.29 21.98, 0 40" stroke="#2f9e44" stroke-width="2" fill="none"></path></g><g transform="translate(370 180) rotate(0 0 20)"><path d="M-7.02 21.27 C-5.27 25.49, -4.45 29.34, 0 40 M-7.02 21.27 C-5.09 25.99, -3.4 31.69, 0 40" stroke="#2f9e44" stroke-width="2" fill="none"></path></g><g transform="translate(370 180) rotate(0 0 20)"><path d="M6.66 21.14 C5.68 25.4, 3.76 29.27, 0 40 M6.66 21.14 C4.86 25.86, 2.84 31.6, 0 40" stroke="#2f9e44" stroke-width="2" fill="none"></path></g></g><mask></mask><g stroke-linecap="round"><g transform="translate(420 180) rotate(0 50 20)"><path d="M0 0 C20.53 8.76, 39.35 16.96, 100 40 M0 0 C27.05 10.49, 53.82 22.59, 100 40" stroke="#2f9e44" stroke-width="2" fill="none"></path></g><g transform="translate(420 180) rotate(0 50 20)"><path d="M75.01 39.45 C80.86 40.47, 84.68 40.78, 100 40 M75.01 39.45 C82 38.91, 88.37 40.28, 100 40" stroke="#2f9e44" stroke-width="2" fill="none"></path></g><g transform="translate(420 180) rotate(0 50 20)"><path d="M81.21 23.51 C85.69 27.74, 88.27 31.23, 100 40 M81.21 23.51 C86.37 27.29, 91.06 32.99, 100 40" stroke="#2f9e44" stroke-width="2" fill="none"></path></g></g><mask></mask><g transform="translate(560 65) rotate(0 40 10)"><text x="0" y="13.584" font-family="Virgil, Segoe UI Emoji" font-size="14px" fill="#1971c2" text-anchor="start" style="white-space: pre;" direction="ltr" dominant-baseline="alphabetic">publish</text></g><g transform="translate(560 235) rotate(0 40 10)"><text x="0" y="13.584" font-family="Virgil, Segoe UI Emoji" font-size="14px" fill="#2f9e44" text-anchor="start" style="white-space: pre;" direction="ltr" dominant-baseline="alphabetic">subscribe</text></g><g stroke-linecap="round" transform="translate(110 300) rotate(0 200 35)"><path d="M17.5 0 C99.83 -1.86, 176.1 -1.11, 382.5 0 C396.93 -2.71, 400.43 9.39, 400 17.5 C398.11 29.13, 396.72 42.75, 400 52.5 C397.73 67.48, 396.39 67.97, 382.5 70 C260.38 68.5, 139.18 67.75, 17.5 70 C2.85 67.22, 0.36 66.56, 0 52.5 C-2 41.57, 1.32 38.68, 0 17.5 C2.2 5.08, 5.11 -0.48, 17.5 0" stroke="none" stroke-width="0" fill="#f8f9fa"></path><path d="M17.5 0 C91.04 0.14, 163.3 0.26, 382.5 0 M17.5 0 C116.9 0.41, 215.91 1.17, 382.5 0 M382.5 0 C392.87 0.53, 400.88 7.46, 400 17.5 M382.5 0 C394.37 0.56, 398.67 7.56, 400 17.5 M400 17.5 C401.38 23.36, 400.94 33.96, 400 52.5 M400 17.5 C399.28 30.82, 400.03 44.18, 400 52.5 M400 52.5 C400.6 62.57, 394.65 68.28, 382.5 70 M400 52.5 C398.31 64.23, 395.1 70.81, 382.5 70 M382.5 70 C304.44 72.12, 225.7 72.14, 17.5 70 M382.5 70 C303.6 72.57, 224.8 72.17, 17.5 70 M17.5 70 C3.95 69.71, -0.18 64.69, 0 52.5 M17.5 70 C7.66 69.98, 2.16 64.26, 0 52.5 M0 52.5 C-0.97 42.18, 1.01 30.89, 0 17.5 M0 52.5 C-0.63 43.46, 0.58 32.48, 0 17.5 M0 17.5 C0.44 7.83, 4.28 -1.31, 17.5 0 M0 17.5 C-0.62 3.76, 6.85 2.27, 17.5 0" stroke="#868e96" stroke-width="1" fill="none"></path></g><g transform="translate(240 305) rotate(0 70 9)"><text x="70" y="12.584" font-family="Virgil, Segoe UI Emoji" font-size="14px" fill="#495057" text-anchor="middle" style="white-space: pre;" direction="ltr" dominant-baseline="alphabetic">Standard Topics:</text></g><g transform="translate(120 330) rotate(0 190 15)"><text x="190" y="19.16015625" font-family="Cascadia, Segoe UI Emoji" font-size="12px" fill="#868e96" text-anchor="middle" style="white-space: pre;" direction="ltr" dominant-baseline="alphabetic">run:&lt;id&gt;  session:&lt;key&gt;  channels  cron  exec_approvals  nodes</text></g></svg>