<svg version="1.1" xmlns="http://www.w3.org/2000/svg" viewBox="0 0 750 390" width="750" height="390"><!-- svg-source:excalidraw --><metadata></metadata><defs><style class="style-fonts">
      </style></defs><rect x="0" y="0" width="750" height="390" fill="#ffffff"></rect><g transform="translate(230 10) rotate(0 150 15)"><text x="150" y="21.144" font-family="Virgil, Segoe UI Emoji" font-size="24px" fill="#1e1e1e" text-anchor="middle" style="white-space: pre;" direction="ltr" dominant-baseline="alphabetic">Orchestration Runtime</text></g><g stroke-linecap="round" transform="translate(10 50) rotate(0 175 100)"><path d="M32 0 C97.38 -1.69, 155.43 -0.78, 318 0 C342.09 -2.71, 350.43 14.22, 350 32 C347.25 76.49, 345.85 122.98, 350 168 C347.73 192.64, 341.56 197.97, 318 200 C222.44 198.68, 128 197.77, 32 200 C7.68 197.22, 0.36 191.72, 0 168 C-1.36 132.51, 1.96 105.05, 0 32 C2.2 9.91, 9.94 -0.48, 32 0" stroke="none" stroke-width="0" fill="#e7f5ff"></path><path d="M32 0 C89.85 0.29, 146.16 0.44, 318 0 M32 0 C109.94 0.26, 187.41 1.19, 318 0 M318 0 C338.04 0.53, 350.88 12.29, 350 32 M318 0 C339.53 0.56, 348.67 12.4, 350 32 M350 32 C350.91 59.83, 350.47 92.39, 350 168 M350 32 C348.45 84.66, 349.2 137.36, 350 168 M350 168 C350.6 187.73, 339.82 198.28, 318 200 M350 168 C348.31 189.4, 340.27 200.81, 318 200 M318 200 C257.11 201.98, 195.41 201.99, 32 200 M318 200 C256.12 202.56, 194.37 202.07, 32 200 M32 200 C8.78 199.71, -0.18 189.86, 0 168 M32 200 C12.5 199.98, 2.16 189.43, 0 168 M0 168 C-1.71 128.71, 0.27 88.46, 0 32 M0 168 C-0.73 131.04, 0.49 92.14, 0 32 M0 32 C0.44 12.66, 9.12 -1.31, 32 0 M0 32 C-0.62 8.6, 11.68 2.27, 32 0" stroke="#1971c2" stroke-width="2" fill="none"></path></g><g transform="translate(110 60) rotate(0 75 11)"><text x="75" y="15.096" font-family="Virgil, Segoe UI Emoji" font-size="16px" fill="#1971c2" text-anchor="middle" style="white-space: pre;" direction="ltr" dominant-baseline="alphabetic">Lane-Aware Scheduling</text></g><g stroke-linecap="round" transform="translate(30 95) rotate(0 45 30)"><path d="M15 0 C31.46 -0.11, 38.22 1.1, 75 0 C87.76 -2.71, 90.43 8.56, 90 15 C88.15 25, 86.76 37, 90 45 C87.73 58.31, 87.22 57.97, 75 60 C55.37 60.13, 37.21 58.93, 15 60 C2.02 57.22, 0.36 57.39, 0 45 C-2.03 35.29, 1.29 33.62, 0 15 C2.2 4.24, 4.27 -0.48, 15 0" stroke="none" stroke-width="0" fill="#a5d8ff"></path><path d="M15 0 C27.86 0.84, 38.68 1.04, 75 0 M15 0 C31.52 -0.55, 47.41 0.67, 75 0 M75 0 C83.7 0.53, 90.88 6.63, 90 15 M75 0 C85.2 0.56, 88.67 6.73, 90 15 M90 15 C91.4 19.78, 90.96 29.28, 90 45 M90 15 C89.32 26.37, 90.07 37.78, 90 45 M90 45 C90.6 53.4, 85.48 58.28, 75 60 M90 45 C88.31 55.06, 85.94 60.81, 75 60 M75 60 C63.11 60.38, 50.15 60.4, 15 60 M75 60 C61.85 61.31, 48.86 60.67, 15 60 M15 60 C3.11 59.71, -0.18 55.53, 0 45 M15 60 C6.83 59.98, 2.16 55.1, 0 45 M0 45 C-0.94 36.11, 1.04 26.26, 0 15 M0 45 C-0.63 37.35, 0.59 27.74, 0 15 M0 15 C0.44 7, 3.45 -1.31, 15 0 M0 15 C-0.62 2.93, 6.01 2.27, 15 0" stroke="#1971c2" stroke-width="1" fill="none"></path></g><g transform="translate(45 105) rotate(0 30 9)"><text x="30" y="13.853515625" font-family="Cascadia, Segoe UI Emoji" font-size="14px" fill="#1971c2" text-anchor="middle" style="white-space: pre;" direction="ltr" dominant-baseline="alphabetic">:main</text></g><g transform="translate(50 128) rotate(0 25 9)"><text x="25" y="13.16015625" font-family="Cascadia, Segoe UI Emoji" font-size="12px" fill="#495057" text-anchor="middle" style="white-space: pre;" direction="ltr" dominant-baseline="alphabetic">cap: 4</text></g><g stroke-linecap="round" transform="translate(140 95) rotate(0 45 30)"><path d="M15 0 C31.46 -0.11, 38.22 1.1, 75 0 C87.76 -2.71, 90.43 8.56, 90 15 C88.15 25, 86.76 37, 90 45 C87.73 58.31, 87.22 57.97, 75 60 C55.37 60.13, 37.21 58.93, 15 60 C2.02 57.22, 0.36 57.39, 0 45 C-2.03 35.29, 1.29 33.62, 0 15 C2.2 4.24, 4.27 -0.48, 15 0" stroke="none" stroke-width="0" fill="#a5d8ff"></path><path d="M15 0 C27.86 0.84, 38.68 1.04, 75 0 M15 0 C31.52 -0.55, 47.41 0.67, 75 0 M75 0 C83.7 0.53, 90.88 6.63, 90 15 M75 0 C85.2 0.56, 88.67 6.73, 90 15 M90 15 C91.4 19.78, 90.96 29.28, 90 45 M90 15 C89.32 26.37, 90.07 37.78, 90 45 M90 45 C90.6 53.4, 85.48 58.28, 75 60 M90 45 C88.31 55.06, 85.94 60.81, 75 60 M75 60 C63.11 60.38, 50.15 60.4, 15 60 M75 60 C61.85 61.31, 48.86 60.67, 15 60 M15 60 C3.11 59.71, -0.18 55.53, 0 45 M15 60 C6.83 59.98, 2.16 55.1, 0 45 M0 45 C-0.94 36.11, 1.04 26.26, 0 15 M0 45 C-0.63 37.35, 0.59 27.74, 0 15 M0 15 C0.44 7, 3.45 -1.31, 15 0 M0 15 C-0.62 2.93, 6.01 2.27, 15 0" stroke="#1971c2" stroke-width="1" fill="none"></path></g><g transform="translate(145 105) rotate(0 40 9)"><text x="40" y="13.853515625" font-family="Cascadia, Segoe UI Emoji" font-size="14px" fill="#1971c2" text-anchor="middle" style="white-space: pre;" direction="ltr" dominant-baseline="alphabetic">:subagent</text></g><g transform="translate(160 128) rotate(0 25 9)"><text x="25" y="13.16015625" font-family="Cascadia, Segoe UI Emoji" font-size="12px" fill="#495057" text-anchor="middle" style="white-space: pre;" direction="ltr" dominant-baseline="alphabetic">cap: 8</text></g><g stroke-linecap="round" transform="translate(250 95) rotate(0 45 30)"><path d="M15 0 C31.46 -0.11, 38.22 1.1, 75 0 C87.76 -2.71, 90.43 8.56, 90 15 C88.15 25, 86.76 37, 90 45 C87.73 58.31, 87.22 57.97, 75 60 C55.37 60.13, 37.21 58.93, 15 60 C2.02 57.22, 0.36 57.39, 0 45 C-2.03 35.29, 1.29 33.62, 0 15 C2.2 4.24, 4.27 -0.48, 15 0" stroke="none" stroke-width="0" fill="#a5d8ff"></path><path d="M15 0 C27.86 0.84, 38.68 1.04, 75 0 M15 0 C31.52 -0.55, 47.41 0.67, 75 0 M75 0 C83.7 0.53, 90.88 6.63, 90 15 M75 0 C85.2 0.56, 88.67 6.73, 90 15 M90 15 C91.4 19.78, 90.96 29.28, 90 45 M90 15 C89.32 26.37, 90.07 37.78, 90 45 M90 45 C90.6 53.4, 85.48 58.28, 75 60 M90 45 C88.31 55.06, 85.94 60.81, 75 60 M75 60 C63.11 60.38, 50.15 60.4, 15 60 M75 60 C61.85 61.31, 48.86 60.67, 15 60 M15 60 C3.11 59.71, -0.18 55.53, 0 45 M15 60 C6.83 59.98, 2.16 55.1, 0 45 M0 45 C-0.94 36.11, 1.04 26.26, 0 15 M0 45 C-0.63 37.35, 0.59 27.74, 0 15 M0 15 C0.44 7, 3.45 -1.31, 15 0 M0 15 C-0.62 2.93, 6.01 2.27, 15 0" stroke="#1971c2" stroke-width="1" fill="none"></path></g><g transform="translate(260 105) rotate(0 35 9)"><text x="35" y="13.853515625" font-family="Cascadia, Segoe UI Emoji" font-size="14px" fill="#1971c2" text-anchor="middle" style="white-space: pre;" direction="ltr" dominant-baseline="alphabetic">:bg_exec</text></g><g transform="translate(270 128) rotate(0 25 9)"><text x="25" y="13.16015625" font-family="Cascadia, Segoe UI Emoji" font-size="12px" fill="#495057" text-anchor="middle" style="white-space: pre;" direction="ltr" dominant-baseline="alphabetic">cap: 2</text></g><g stroke-linecap="round" transform="translate(50 175) rotate(0 135 25)"><path d="M12.5 0 C69.09 -1.53, 117.67 -0.53, 257.5 0 C268.59 -2.71, 270.43 7.72, 270 12.5 C268.2 20.87, 266.8 31.25, 270 37.5 C267.73 49.14, 268.06 47.97, 257.5 50 C175.73 48.84, 95.17 47.85, 12.5 50 C1.18 47.22, 0.36 48.22, 0 37.5 C-2.06 29.01, 1.26 28.55, 0 12.5 C2.2 3.41, 3.44 -0.48, 12.5 0" stroke="none" stroke-width="0" fill="#f1f3f5"></path><path d="M12.5 0 C62.21 0.39, 110.24 0.55, 257.5 0 M12.5 0 C79.3 0.15, 145.59 1.16, 257.5 0 M257.5 0 C264.54 0.53, 270.88 5.79, 270 12.5 M257.5 0 C266.03 0.56, 268.67 5.9, 270 12.5 M270 12.5 C271.42 16.19, 270.98 24.61, 270 37.5 M270 12.5 C269.36 21.92, 270.11 31.39, 270 37.5 M270 37.5 C270.6 44.23, 266.32 48.28, 257.5 50 M270 37.5 C268.31 45.9, 266.77 50.81, 257.5 50 M257.5 50 C205.53 51.82, 152.67 51.84, 12.5 50 M257.5 50 C204.46 52.48, 151.55 51.95, 12.5 50 M12.5 50 C2.28 49.71, -0.18 46.36, 0 37.5 M12.5 50 C6 49.98, 2.16 45.93, 0 37.5 M0 37.5 C-0.9 30.05, 1.08 21.63, 0 12.5 M0 37.5 C-0.63 31.23, 0.59 23.01, 0 12.5 M0 12.5 C0.44 6.16, 2.62 -1.31, 12.5 0 M0 12.5 C-0.62 2.1, 5.18 2.27, 12.5 0" stroke="#495057" stroke-width="1" fill="none"></path></g><g transform="translate(120 190) rotate(0 65 10)"><text x="65" y="13.584" font-family="Virgil, Segoe UI Emoji" font-size="14px" fill="#495057" text-anchor="middle" style="white-space: pre;" direction="ltr" dominant-baseline="alphabetic">LaneQueue (FIFO)</text></g><g stroke-linecap="round" transform="translate(390 50) rotate(0 175 100)"><path d="M32 0 C97.38 -1.69, 155.43 -0.78, 318 0 C342.09 -2.71, 350.43 14.22, 350 32 C347.25 76.49, 345.85 122.98, 350 168 C347.73 192.64, 341.56 197.97, 318 200 C222.44 198.68, 128 197.77, 32 200 C7.68 197.22, 0.36 191.72, 0 168 C-1.36 132.51, 1.96 105.05, 0 32 C2.2 9.91, 9.94 -0.48, 32 0" stroke="none" stroke-width="0" fill="#faf5ff"></path><path d="M32 0 C89.85 0.29, 146.16 0.44, 318 0 M32 0 C109.94 0.26, 187.41 1.19, 318 0 M318 0 C338.04 0.53, 350.88 12.29, 350 32 M318 0 C339.53 0.56, 348.67 12.4, 350 32 M350 32 C350.91 59.83, 350.47 92.39, 350 168 M350 32 C348.45 84.66, 349.2 137.36, 350 168 M350 168 C350.6 187.73, 339.82 198.28, 318 200 M350 168 C348.31 189.4, 340.27 200.81, 318 200 M318 200 C257.11 201.98, 195.41 201.99, 32 200 M318 200 C256.12 202.56, 194.37 202.07, 32 200 M32 200 C8.78 199.71, -0.18 189.86, 0 168 M32 200 C12.5 199.98, 2.16 189.43, 0 168 M0 168 C-1.71 128.71, 0.27 88.46, 0 32 M0 168 C-0.73 131.04, 0.49 92.14, 0 32 M0 32 C0.44 12.66, 9.12 -1.31, 32 0 M0 32 C-0.62 8.6, 11.68 2.27, 32 0" stroke="#9c36b5" stroke-width="2" fill="none"></path></g><g transform="translate(470 60) rotate(0 95 11)"><text x="95" y="15.096" font-family="Virgil, Segoe UI Emoji" font-size="16px" fill="#9c36b5" text-anchor="middle" style="white-space: pre;" direction="ltr" dominant-baseline="alphabetic">Async Subagent Semantics</text></g><g stroke-linecap="round" transform="translate(410 95) rotate(0 45 22.5)"><path d="M11.25 0 C29.36 -0.18, 37.77 1.03, 78.75 0 C89.01 -2.71, 90.43 7.31, 90 11.25 C88.22 18.81, 86.82 28.37, 90 33.75 C87.73 44.56, 88.47 42.97, 78.75 45 C56.6 45.06, 35.93 43.86, 11.25 45 C0.77 42.22, 0.36 43.64, 0 33.75 C-2.07 25.86, 1.24 26.02, 0 11.25 C2.2 2.99, 3.02 -0.48, 11.25 0" stroke="none" stroke-width="0" fill="#eebefa"></path><path d="M11.25 0 C25.61 0.83, 37.93 1.03, 78.75 0 M11.25 0 C29.81 -0.52, 47.74 0.7, 78.75 0 M78.75 0 C84.95 0.53, 90.88 5.38, 90 11.25 M78.75 0 C86.45 0.56, 88.67 5.48, 90 11.25 M90 11.25 C91.43 14.39, 91 22.27, 90 33.75 M90 11.25 C89.38 19.7, 90.13 28.19, 90 33.75 M90 33.75 C90.6 39.65, 86.73 43.28, 78.75 45 M90 33.75 C88.31 41.31, 87.19 45.81, 78.75 45 M78.75 45 C65.24 45.45, 50.66 45.47, 11.25 45 M78.75 45 C63.98 46.38, 49.38 45.73, 11.25 45 M11.25 45 C1.86 44.71, -0.18 41.78, 0 33.75 M11.25 45 C5.58 44.98, 2.16 41.35, 0 33.75 M0 33.75 C-0.88 27.02, 1.1 19.32, 0 11.25 M0 33.75 C-0.62 28.17, 0.59 20.64, 0 11.25 M0 11.25 C0.44 5.75, 2.2 -1.31, 11.25 0 M0 11.25 C-0.62 1.68, 4.76 2.27, 11.25 0" stroke="#9c36b5" stroke-width="1" fill="none"></path></g><g transform="translate(430 108) rotate(0 25 10)"><text x="25" y="14.853515625" font-family="Cascadia, Segoe UI Emoji" font-size="14px" fill="#9c36b5" text-anchor="middle" style="white-space: pre;" direction="ltr" dominant-baseline="alphabetic">spawn</text></g><g stroke-linecap="round" transform="translate(520 95) rotate(0 45 22.5)"><path d="M11.25 0 C29.36 -0.18, 37.77 1.03, 78.75 0 C89.01 -2.71, 90.43 7.31, 90 11.25 C88.22 18.81, 86.82 28.37, 90 33.75 C87.73 44.56, 88.47 42.97, 78.75 45 C56.6 45.06, 35.93 43.86, 11.25 45 C0.77 42.22, 0.36 43.64, 0 33.75 C-2.07 25.86, 1.24 26.02, 0 11.25 C2.2 2.99, 3.02 -0.48, 11.25 0" stroke="none" stroke-width="0" fill="#eebefa"></path><path d="M11.25 0 C25.61 0.83, 37.93 1.03, 78.75 0 M11.25 0 C29.81 -0.52, 47.74 0.7, 78.75 0 M78.75 0 C84.95 0.53, 90.88 5.38, 90 11.25 M78.75 0 C86.45 0.56, 88.67 5.48, 90 11.25 M90 11.25 C91.43 14.39, 91 22.27, 90 33.75 M90 11.25 C89.38 19.7, 90.13 28.19, 90 33.75 M90 33.75 C90.6 39.65, 86.73 43.28, 78.75 45 M90 33.75 C88.31 41.31, 87.19 45.81, 78.75 45 M78.75 45 C65.24 45.45, 50.66 45.47, 11.25 45 M78.75 45 C63.98 46.38, 49.38 45.73, 11.25 45 M11.25 45 C1.86 44.71, -0.18 41.78, 0 33.75 M11.25 45 C5.58 44.98, 2.16 41.35, 0 33.75 M0 33.75 C-0.88 27.02, 1.1 19.32, 0 11.25 M0 33.75 C-0.62 28.17, 0.59 20.64, 0 11.25 M0 11.25 C0.44 5.75, 2.2 -1.31, 11.25 0 M0 11.25 C-0.62 1.68, 4.76 2.27, 11.25 0" stroke="#9c36b5" stroke-width="1" fill="none"></path></g><g transform="translate(545 108) rotate(0 20 10)"><text x="20" y="14.853515625" font-family="Cascadia, Segoe UI Emoji" font-size="14px" fill="#9c36b5" text-anchor="middle" style="white-space: pre;" direction="ltr" dominant-baseline="alphabetic">poll</text></g><g stroke-linecap="round" transform="translate(630 95) rotate(0 45 22.5)"><path d="M11.25 0 C29.36 -0.18, 37.77 1.03, 78.75 0 C89.01 -2.71, 90.43 7.31, 90 11.25 C88.22 18.81, 86.82 28.37, 90 33.75 C87.73 44.56, 88.47 42.97, 78.75 45 C56.6 45.06, 35.93 43.86, 11.25 45 C0.77 42.22, 0.36 43.64, 0 33.75 C-2.07 25.86, 1.24 26.02, 0 11.25 C2.2 2.99, 3.02 -0.48, 11.25 0" stroke="none" stroke-width="0" fill="#eebefa"></path><path d="M11.25 0 C25.61 0.83, 37.93 1.03, 78.75 0 M11.25 0 C29.81 -0.52, 47.74 0.7, 78.75 0 M78.75 0 C84.95 0.53, 90.88 5.38, 90 11.25 M78.75 0 C86.45 0.56, 88.67 5.48, 90 11.25 M90 11.25 C91.43 14.39, 91 22.27, 90 33.75 M90 11.25 C89.38 19.7, 90.13 28.19, 90 33.75 M90 33.75 C90.6 39.65, 86.73 43.28, 78.75 45 M90 33.75 C88.31 41.31, 87.19 45.81, 78.75 45 M78.75 45 C65.24 45.45, 50.66 45.47, 11.25 45 M78.75 45 C63.98 46.38, 49.38 45.73, 11.25 45 M11.25 45 C1.86 44.71, -0.18 41.78, 0 33.75 M11.25 45 C5.58 44.98, 2.16 41.35, 0 33.75 M0 33.75 C-0.88 27.02, 1.1 19.32, 0 11.25 M0 33.75 C-0.62 28.17, 0.59 20.64, 0 11.25 M0 11.25 C0.44 5.75, 2.2 -1.31, 11.25 0 M0 11.25 C-0.62 1.68, 4.76 2.27, 11.25 0" stroke="#9c36b5" stroke-width="1" fill="none"></path></g><g transform="translate(655 108) rotate(0 20 10)"><text x="20" y="14.853515625" font-family="Cascadia, Segoe UI Emoji" font-size="14px" fill="#9c36b5" text-anchor="middle" style="white-space: pre;" direction="ltr" dominant-baseline="alphabetic">join</text></g><g stroke-linecap="round"><g transform="translate(500 117) rotate(0 10 0)"><path d="M0 0 C4.43 0.46, 7.84 0.56, 20 0 M0 0 C5.54 -0.35, 10.77 0.26, 20 0" stroke="#9c36b5" stroke-width="2" fill="none"></path></g><g transform="translate(500 117) rotate(0 10 0)"><path d="M10.62 3.48 C12.73 3.01, 14.31 2.37, 20 0 M10.62 3.48 C13.24 2.35, 15.68 1.71, 20 0" stroke="#9c36b5" stroke-width="2" fill="none"></path></g><g transform="translate(500 117) rotate(0 10 0)"><path d="M10.58 -3.36 C12.67 -2.46, 14.26 -1.74, 20 0 M10.58 -3.36 C13.18 -2.63, 15.63 -1.41, 20 0" stroke="#9c36b5" stroke-width="2" fill="none"></path></g></g><mask></mask><g stroke-linecap="round"><g transform="translate(610 117) rotate(0 10 0)"><path d="M0 0 C4.43 0.46, 7.84 0.56, 20 0 M0 0 C5.54 -0.35, 10.77 0.26, 20 0" stroke="#9c36b5" stroke-width="2" fill="none"></path></g><g transform="translate(610 117) rotate(0 10 0)"><path d="M10.62 3.48 C12.73 3.01, 14.31 2.37, 20 0 M10.62 3.48 C13.24 2.35, 15.68 1.71, 20 0" stroke="#9c36b5" stroke-width="2" fill="none"></path></g><g transform="translate(610 117) rotate(0 10 0)"><path d="M10.58 -3.36 C12.67 -2.46, 14.26 -1.74, 20 0 M10.58 -3.36 C13.18 -2.63, 15.63 -1.41, 20 0" stroke="#9c36b5" stroke-width="2" fill="none"></path></g></g><mask></mask><g stroke-linecap="round" transform="translate(430 165) rotate(0 135 30)"><path d="M15 0 C70.51 -1.5, 117.94 -0.49, 255 0 C267.76 -2.71, 270.43 8.56, 270 15 C268.15 25, 266.76 37, 270 45 C267.73 58.31, 267.22 57.97, 255 60 C174.91 58.86, 96.05 57.86, 15 60 C2.02 57.22, 0.36 57.39, 0 45 C-2.03 35.29, 1.29 33.62, 0 15 C2.2 4.24, 4.27 -0.48, 15 0" stroke="none" stroke-width="0" fill="#f1f3f5"></path><path d="M15 0 C63.72 0.4, 110.74 0.56, 255 0 M15 0 C80.44 0.14, 145.37 1.15, 255 0 M255 0 C263.7 0.53, 270.88 6.63, 270 15 M255 0 C265.2 0.56, 268.67 6.73, 270 15 M270 15 C271.4 19.78, 270.96 29.28, 270 45 M270 15 C269.32 26.37, 270.07 37.78, 270 45 M270 45 C270.6 53.4, 265.48 58.28, 255 60 M270 45 C268.31 55.06, 265.94 60.81, 255 60 M255 60 C204.12 61.8, 152.34 61.82, 15 60 M255 60 C203.03 62.47, 151.21 61.93, 15 60 M15 60 C3.11 59.71, -0.18 55.53, 0 45 M15 60 C6.83 59.98, 2.16 55.1, 0 45 M0 45 C-0.94 36.11, 1.04 26.26, 0 15 M0 45 C-0.63 37.35, 0.59 27.74, 0 15 M0 15 C0.44 7, 3.45 -1.31, 15 0 M0 15 C-0.62 2.93, 6.01 2.27, 15 0" stroke="#495057" stroke-width="1" fill="none"></path></g><g transform="translate(450 175) rotate(0 115 9)"><text x="115" y="12.584" font-family="Virgil, Segoe UI Emoji" font-size="14px" fill="#495057" text-anchor="middle" style="white-space: pre;" direction="ltr" dominant-baseline="alphabetic">Engines: internal | codex | claude</text></g><g transform="translate(470 198) rotate(0 95 9)"><text x="95" y="12.072" font-family="Virgil, Segoe UI Emoji" font-size="12px" fill="#868e96" text-anchor="middle" style="white-space: pre;" direction="ltr" dominant-baseline="alphabetic">Join: wait_all | wait_any</text></g><g stroke-linecap="round" transform="translate(10 270) rotate(0 175 55)"><path d="M27.5 0 C94.81 -1.72, 154.93 -0.82, 322.5 0 C343.59 -2.71, 350.43 12.72, 350 27.5 C347.94 45.63, 346.55 65.77, 350 82.5 C347.73 104.14, 343.06 107.97, 322.5 110 C223.92 108.65, 126.42 107.76, 27.5 110 C6.18 107.22, 0.36 103.22, 0 82.5 C-1.87 66.71, 1.45 58.95, 0 27.5 C2.2 8.41, 8.44 -0.48, 27.5 0" stroke="none" stroke-width="0" fill="#fff9db"></path><path d="M27.5 0 C87.14 0.27, 145.27 0.42, 322.5 0 M27.5 0 C107.88 0.28, 187.81 1.19, 322.5 0 M322.5 0 C339.54 0.53, 350.88 10.79, 350 27.5 M322.5 0 C341.03 0.56, 348.67 10.9, 350 27.5 M350 27.5 C351.28 37.71, 350.84 52.66, 350 82.5 M350 27.5 C349.11 48.61, 349.86 69.76, 350 82.5 M350 82.5 C350.6 99.23, 341.32 108.28, 322.5 110 M350 82.5 C348.31 100.9, 341.77 110.81, 322.5 110 M322.5 110 C259.66 112.01, 196.02 112.02, 27.5 110 M322.5 110 C258.68 112.57, 194.99 112.09, 27.5 110 M27.5 110 C7.28 109.71, -0.18 101.36, 0 82.5 M27.5 110 C11 109.98, 2.16 100.93, 0 82.5 M0 82.5 C-1.12 66.44, 0.86 49.42, 0 27.5 M0 82.5 C-0.65 67.93, 0.57 51.42, 0 27.5 M0 27.5 C0.44 11.16, 7.62 -1.31, 27.5 0 M0 27.5 C-0.62 7.1, 10.18 2.27, 27.5 0" stroke="#e67700" stroke-width="2" fill="none"></path></g><g transform="translate(110 280) rotate(0 75 11)"><text x="75" y="15.096" font-family="Virgil, Segoe UI Emoji" font-size="16px" fill="#e67700" text-anchor="middle" style="white-space: pre;" direction="ltr" dominant-baseline="alphabetic">Budget Enforcement</text></g><g transform="translate(40 310) rotate(0 145 27.5)"><text x="0" y="13.326822916666666" font-family="Cascadia, Segoe UI Emoji" font-size="12px" fill="#495057" text-anchor="start" style="white-space: pre;" direction="ltr" dominant-baseline="alphabetic">BudgetTracker  tokens_in/out, cost_usd</text><text x="0" y="31.66015625" font-family="Cascadia, Segoe UI Emoji" font-size="12px" fill="#495057" text-anchor="start" style="white-space: pre;" direction="ltr" dominant-baseline="alphabetic">BudgetEnforcer  check before spawn</text><text x="0" y="49.99348958333333" font-family="Cascadia, Segoe UI Emoji" font-size="12px" fill="#495057" text-anchor="start" style="white-space: pre;" direction="ltr" dominant-baseline="alphabetic">RunGraph  parent/child tracking (DETS)</text></g><g stroke-linecap="round" transform="translate(390 270) rotate(0 175 55)"><path d="M27.5 0 C94.81 -1.72, 154.93 -0.82, 322.5 0 C343.59 -2.71, 350.43 12.72, 350 27.5 C347.94 45.63, 346.55 65.77, 350 82.5 C347.73 104.14, 343.06 107.97, 322.5 110 C223.92 108.65, 126.42 107.76, 27.5 110 C6.18 107.22, 0.36 103.22, 0 82.5 C-1.87 66.71, 1.45 58.95, 0 27.5 C2.2 8.41, 8.44 -0.48, 27.5 0" stroke="none" stroke-width="0" fill="#ebfbee"></path><path d="M27.5 0 C87.14 0.27, 145.27 0.42, 322.5 0 M27.5 0 C107.88 0.28, 187.81 1.19, 322.5 0 M322.5 0 C339.54 0.53, 350.88 10.79, 350 27.5 M322.5 0 C341.03 0.56, 348.67 10.9, 350 27.5 M350 27.5 C351.28 37.71, 350.84 52.66, 350 82.5 M350 27.5 C349.11 48.61, 349.86 69.76, 350 82.5 M350 82.5 C350.6 99.23, 341.32 108.28, 322.5 110 M350 82.5 C348.31 100.9, 341.77 110.81, 322.5 110 M322.5 110 C259.66 112.01, 196.02 112.02, 27.5 110 M322.5 110 C258.68 112.57, 194.99 112.09, 27.5 110 M27.5 110 C7.28 109.71, -0.18 101.36, 0 82.5 M27.5 110 C11 109.98, 2.16 100.93, 0 82.5 M0 82.5 C-1.12 66.44, 0.86 49.42, 0 27.5 M0 82.5 C-0.65 67.93, 0.57 51.42, 0 27.5 M0 27.5 C0.44 11.16, 7.62 -1.31, 27.5 0 M0 27.5 C-0.62 7.1, 10.18 2.27, 27.5 0" stroke="#2f9e44" stroke-width="2" fill="none"></path></g><g transform="translate(440 280) rotate(0 125 11)"><text x="125" y="15.096" font-family="Virgil, Segoe UI Emoji" font-size="16px" fill="#2f9e44" text-anchor="middle" style="white-space: pre;" direction="ltr" dominant-baseline="alphabetic">Durable Background Processes</text></g><g transform="translate(420 310) rotate(0 145 27.5)"><text x="0" y="13.326822916666666" font-family="Cascadia, Segoe UI Emoji" font-size="12px" fill="#495057" text-anchor="start" style="white-space: pre;" direction="ltr" dominant-baseline="alphabetic">ProcessManager  DETS persistence</text><text x="0" y="31.66015625" font-family="Cascadia, Segoe UI Emoji" font-size="12px" fill="#495057" text-anchor="start" style="white-space: pre;" direction="ltr" dominant-baseline="alphabetic">Exec tool  background, yield_ms</text><text x="0" y="49.99348958333333" font-family="Cascadia, Segoe UI Emoji" font-size="12px" fill="#495057" text-anchor="start" style="white-space: pre;" direction="ltr" dominant-baseline="alphabetic">Process tool  list/poll/write/kill</text></g></svg>