<svg version="1.1" xmlns="http://www.w3.org/2000/svg" viewBox="0 0 780 350" width="780" height="350"><!-- svg-source:excalidraw --><metadata></metadata><defs><style class="style-fonts">
      </style></defs><rect x="0" y="0" width="780" height="350" fill="#ffffff"></rect><g transform="translate(280 10) rotate(0 100 15)"><text x="100" y="21.144" font-family="Virgil, Segoe UI Emoji" font-size="24px" fill="#1e1e1e" text-anchor="middle" style="white-space: pre;" direction="ltr" dominant-baseline="alphabetic">OTP Supervision Tree</text></g><g stroke-linecap="round" transform="translate(280 60) rotate(0 100 22.5)"><path d="M11.25 0 C53.56 -1.21, 86.17 0, 188.75 0 C199.01 -2.71, 200.43 7.31, 200 11.25 C198.22 18.81, 196.82 28.37, 200 33.75 C197.73 44.56, 198.47 42.97, 188.75 45 C129.71 44.15, 72.13 42.95, 11.25 45 C0.77 42.22, 0.36 43.64, 0 33.75 C-2.07 25.86, 1.24 26.02, 0 11.25 C2.2 2.99, 3.02 -0.48, 11.25 0" stroke="none" stroke-width="0" fill="#ffc9c9"></path><path d="M11.25 0 C47.61 0.6, 81.93 0.8, 188.75 0 M11.25 0 C59.73 -0.08, 107.58 1.14, 188.75 0 M188.75 0 C194.95 0.53, 200.88 5.38, 200 11.25 M188.75 0 C196.45 0.56, 198.67 5.48, 200 11.25 M200 11.25 C201.43 14.39, 201 22.27, 200 33.75 M200 11.25 C199.38 19.7, 200.13 28.19, 200 33.75 M200 33.75 C200.6 39.65, 196.73 43.28, 188.75 45 M200 33.75 C198.31 41.31, 197.19 45.81, 188.75 45 M188.75 45 C151.52 46.54, 113.22 46.56, 11.25 45 M188.75 45 C150.24 47.39, 111.9 46.74, 11.25 45 M11.25 45 C1.86 44.71, -0.18 41.78, 0 33.75 M11.25 45 C5.58 44.98, 2.16 41.35, 0 33.75 M0 33.75 C-0.88 27.02, 1.1 19.32, 0 11.25 M0 33.75 C-0.62 28.17, 0.59 20.64, 0 11.25 M0 11.25 C0.44 5.75, 2.2 -1.31, 11.25 0 M0 11.25 C-0.62 1.68, 4.76 2.27, 11.25 0" stroke="#c92a2a" stroke-width="2" fill="none"></path></g><g transform="translate(310 72) rotate(0 70 10)"><text x="70" y="13.584" font-family="Virgil, Segoe UI Emoji" font-size="14px" fill="#c92a2a" text-anchor="middle" style="white-space: pre;" direction="ltr" dominant-baseline="alphabetic">Application.Supervisor</text></g><g stroke-linecap="round" transform="translate(10 150) rotate(0 50 20)"><path d="M10 0 C30.86 -0.3, 42.02 0.91, 90 0 C99.43 -2.71, 100.43 6.89, 100 10 C98.24 16.75, 96.84 25.49, 100 30 C97.73 39.98, 98.89 37.97, 90 40 C63.66 39.96, 38.79 38.76, 10 40 C0.35 37.22, 0.36 39.06, 0 30 C-2.09 22.72, 1.23 23.48, 0 10 C2.2 2.58, 2.61 -0.48, 10 0" stroke="none" stroke-width="0" fill="#a5d8ff"></path><path d="M10 0 C26.86 0.8, 41.68 1, 90 0 M10 0 C31.96 -0.47, 53.29 0.75, 90 0 M90 0 C95.37 0.53, 100.88 4.96, 100 10 M90 0 C96.87 0.56, 98.67 5.06, 100 10 M100 10 C101.44 12.6, 101.01 19.93, 100 30 M100 10 C99.4 17.47, 100.15 24.99, 100 30 M100 30 C100.6 35.07, 97.15 38.28, 90 40 M100 30 C98.31 36.73, 97.6 40.81, 90 40 M90 40 C73.8 40.58, 56.52 40.6, 10 40 M90 40 C72.53 41.49, 55.23 40.85, 10 40 M10 40 C1.45 39.71, -0.18 37.19, 0 30 M10 40 C5.16 39.98, 2.16 36.76, 0 30 M0 30 C-0.87 23.98, 1.12 17, 0 10 M0 30 C-0.62 25.11, 0.6 18.27, 0 10 M0 10 C0.44 5.33, 1.78 -1.31, 10 0 M0 10 C-0.62 1.26, 4.35 2.27, 10 0" stroke="#1971c2" stroke-width="1" fill="none"></path></g><g transform="translate(45 162) rotate(0 15 9)"><text x="15" y="12.584" font-family="Virgil, Segoe UI Emoji" font-size="14px" fill="#1971c2" text-anchor="middle" style="white-space: pre;" direction="ltr" dominant-baseline="alphabetic">Ai</text></g><g stroke-linecap="round" transform="translate(130 150) rotate(0 50 20)"><path d="M10 0 C30.86 -0.3, 42.02 0.91, 90 0 C99.43 -2.71, 100.43 6.89, 100 10 C98.24 16.75, 96.84 25.49, 100 30 C97.73 39.98, 98.89 37.97, 90 40 C63.66 39.96, 38.79 38.76, 10 40 C0.35 37.22, 0.36 39.06, 0 30 C-2.09 22.72, 1.23 23.48, 0 10 C2.2 2.58, 2.61 -0.48, 10 0" stroke="none" stroke-width="0" fill="#a5d8ff"></path><path d="M10 0 C26.86 0.8, 41.68 1, 90 0 M10 0 C31.96 -0.47, 53.29 0.75, 90 0 M90 0 C95.37 0.53, 100.88 4.96, 100 10 M90 0 C96.87 0.56, 98.67 5.06, 100 10 M100 10 C101.44 12.6, 101.01 19.93, 100 30 M100 10 C99.4 17.47, 100.15 24.99, 100 30 M100 30 C100.6 35.07, 97.15 38.28, 90 40 M100 30 C98.31 36.73, 97.6 40.81, 90 40 M90 40 C73.8 40.58, 56.52 40.6, 10 40 M90 40 C72.53 41.49, 55.23 40.85, 10 40 M10 40 C1.45 39.71, -0.18 37.19, 0 30 M10 40 C5.16 39.98, 2.16 36.76, 0 30 M0 30 C-0.87 23.98, 1.12 17, 0 10 M0 30 C-0.62 25.11, 0.6 18.27, 0 10 M0 10 C0.44 5.33, 1.78 -1.31, 10 0 M0 10 C-0.62 1.26, 4.35 2.27, 10 0" stroke="#1971c2" stroke-width="1" fill="none"></path></g><g transform="translate(142 162) rotate(0 38 9)"><text x="38" y="12.584" font-family="Virgil, Segoe UI Emoji" font-size="14px" fill="#1971c2" text-anchor="middle" style="white-space: pre;" direction="ltr" dominant-baseline="alphabetic">AgentCore</text></g><g stroke-linecap="round" transform="translate(250 150) rotate(0 55 20)"><path d="M10 0 C33.06 -0.39, 46.42 0.82, 100 0 C109.43 -2.71, 110.43 6.89, 110 10 C108.24 16.75, 106.84 25.49, 110 30 C107.73 39.98, 108.89 37.97, 100 40 C70.31 39.88, 42.08 38.68, 10 40 C0.35 37.22, 0.36 39.06, 0 30 C-2.09 22.72, 1.23 23.48, 0 10 C2.2 2.58, 2.61 -0.48, 10 0" stroke="none" stroke-width="0" fill="#b2f2bb"></path><path d="M10 0 C28.86 0.78, 45.68 0.98, 100 0 M10 0 C34.68 -0.43, 58.73 0.79, 100 0 M100 0 C105.37 0.53, 110.88 4.96, 110 10 M100 0 C106.87 0.56, 108.67 5.06, 110 10 M110 10 C111.44 12.6, 111.01 19.93, 110 30 M110 10 C109.4 17.47, 110.15 24.99, 110 30 M110 30 C110.6 35.07, 107.15 38.28, 100 40 M110 30 C108.31 36.73, 107.6 40.81, 100 40 M100 40 C81.64 40.68, 62.21 40.7, 10 40 M100 40 C80.37 41.59, 60.92 40.94, 10 40 M10 40 C1.45 39.71, -0.18 37.19, 0 30 M10 40 C5.16 39.98, 2.16 36.76, 0 30 M0 30 C-0.87 23.98, 1.12 17, 0 10 M0 30 C-0.62 25.11, 0.6 18.27, 0 10 M0 10 C0.44 5.33, 1.78 -1.31, 10 0 M0 10 C-0.62 1.26, 4.35 2.27, 10 0" stroke="#2f9e44" stroke-width="1" fill="none"></path></g><g transform="translate(260 162) rotate(0 45 9)"><text x="45" y="12.584" font-family="Virgil, Segoe UI Emoji" font-size="14px" fill="#2f9e44" text-anchor="middle" style="white-space: pre;" direction="ltr" dominant-baseline="alphabetic">CodingAgent</text></g><g stroke-linecap="round" transform="translate(380 150) rotate(0 50 20)"><path d="M10 0 C30.86 -0.3, 42.02 0.91, 90 0 C99.43 -2.71, 100.43 6.89, 100 10 C98.24 16.75, 96.84 25.49, 100 30 C97.73 39.98, 98.89 37.97, 90 40 C63.66 39.96, 38.79 38.76, 10 40 C0.35 37.22, 0.36 39.06, 0 30 C-2.09 22.72, 1.23 23.48, 0 10 C2.2 2.58, 2.61 -0.48, 10 0" stroke="none" stroke-width="0" fill="#eebefa"></path><path d="M10 0 C26.86 0.8, 41.68 1, 90 0 M10 0 C31.96 -0.47, 53.29 0.75, 90 0 M90 0 C95.37 0.53, 100.88 4.96, 100 10 M90 0 C96.87 0.56, 98.67 5.06, 100 10 M100 10 C101.44 12.6, 101.01 19.93, 100 30 M100 10 C99.4 17.47, 100.15 24.99, 100 30 M100 30 C100.6 35.07, 97.15 38.28, 90 40 M100 30 C98.31 36.73, 97.6 40.81, 90 40 M90 40 C73.8 40.58, 56.52 40.6, 10 40 M90 40 C72.53 41.49, 55.23 40.85, 10 40 M10 40 C1.45 39.71, -0.18 37.19, 0 30 M10 40 C5.16 39.98, 2.16 36.76, 0 30 M0 30 C-0.87 23.98, 1.12 17, 0 10 M0 30 C-0.62 25.11, 0.6 18.27, 0 10 M0 10 C0.44 5.33, 1.78 -1.31, 10 0 M0 10 C-0.62 1.26, 4.35 2.27, 10 0" stroke="#9c36b5" stroke-width="1" fill="none"></path></g><g transform="translate(390 162) rotate(0 40 9)"><text x="40" y="12.584" font-family="Virgil, Segoe UI Emoji" font-size="14px" fill="#9c36b5" text-anchor="middle" style="white-space: pre;" direction="ltr" dominant-baseline="alphabetic">LemonCore</text></g><g stroke-linecap="round" transform="translate(500 150) rotate(0 60 20)"><path d="M10 0 C35.26 -0.48, 50.82 0.73, 110 0 C119.43 -2.71, 120.43 6.89, 120 10 C118.24 16.75, 116.84 25.49, 120 30 C117.73 39.98, 118.89 37.97, 110 40 C76.95 39.79, 45.37 38.59, 10 40 C0.35 37.22, 0.36 39.06, 0 30 C-2.09 22.72, 1.23 23.48, 0 10 C2.2 2.58, 2.61 -0.48, 10 0" stroke="none" stroke-width="0" fill="#ffec99"></path><path d="M10 0 C30.86 0.76, 49.68 0.96, 110 0 M10 0 C37.4 -0.39, 64.17 0.83, 110 0 M110 0 C115.37 0.53, 120.88 4.96, 120 10 M110 0 C116.87 0.56, 118.67 5.06, 120 10 M120 10 C121.44 12.6, 121.01 19.93, 120 30 M120 10 C119.4 17.47, 120.15 24.99, 120 30 M120 30 C120.6 35.07, 117.15 38.28, 110 40 M120 30 C118.31 36.73, 117.6 40.81, 110 40 M110 40 C89.49 40.78, 67.9 40.8, 10 40 M110 40 C88.22 41.68, 66.6 41.03, 10 40 M10 40 C1.45 39.71, -0.18 37.19, 0 30 M10 40 C5.16 39.98, 2.16 36.76, 0 30 M0 30 C-0.87 23.98, 1.12 17, 0 10 M0 30 C-0.62 25.11, 0.6 18.27, 0 10 M0 10 C0.44 5.33, 1.78 -1.31, 10 0 M0 10 C-0.62 1.26, 4.35 2.27, 10 0" stroke="#e67700" stroke-width="1" fill="none"></path></g><g transform="translate(505 162) rotate(0 55 9)"><text x="55" y="12.584" font-family="Virgil, Segoe UI Emoji" font-size="14px" fill="#e67700" text-anchor="middle" style="white-space: pre;" direction="ltr" dominant-baseline="alphabetic">LemonGateway</text></g><g stroke-linecap="round" transform="translate(640 150) rotate(0 55 20)"><path d="M10 0 C33.06 -0.39, 46.42 0.82, 100 0 C109.43 -2.71, 110.43 6.89, 110 10 C108.24 16.75, 106.84 25.49, 110 30 C107.73 39.98, 108.89 37.97, 100 40 C70.31 39.88, 42.08 38.68, 10 40 C0.35 37.22, 0.36 39.06, 0 30 C-2.09 22.72, 1.23 23.48, 0 10 C2.2 2.58, 2.61 -0.48, 10 0" stroke="none" stroke-width="0" fill="#ffec99"></path><path d="M10 0 C28.86 0.78, 45.68 0.98, 100 0 M10 0 C34.68 -0.43, 58.73 0.79, 100 0 M100 0 C105.37 0.53, 110.88 4.96, 110 10 M100 0 C106.87 0.56, 108.67 5.06, 110 10 M110 10 C111.44 12.6, 111.01 19.93, 110 30 M110 10 C109.4 17.47, 110.15 24.99, 110 30 M110 30 C110.6 35.07, 107.15 38.28, 100 40 M110 30 C108.31 36.73, 107.6 40.81, 100 40 M100 40 C81.64 40.68, 62.21 40.7, 10 40 M100 40 C80.37 41.59, 60.92 40.94, 10 40 M10 40 C1.45 39.71, -0.18 37.19, 0 30 M10 40 C5.16 39.98, 2.16 36.76, 0 30 M0 30 C-0.87 23.98, 1.12 17, 0 10 M0 30 C-0.62 25.11, 0.6 18.27, 0 10 M0 10 C0.44 5.33, 1.78 -1.31, 10 0 M0 10 C-0.62 1.26, 4.35 2.27, 10 0" stroke="#e67700" stroke-width="1" fill="none"></path></g><g transform="translate(645 162) rotate(0 50 9)"><text x="50" y="12.584" font-family="Virgil, Segoe UI Emoji" font-size="14px" fill="#e67700" text-anchor="middle" style="white-space: pre;" direction="ltr" dominant-baseline="alphabetic">LemonRouter</text></g><g stroke-linecap="round"><g transform="translate(380 105) rotate(0 0 10)"><path d="M0 0 C0.35 4.48, -0.24 8.58, 0 20 M0 0 C0.01 5.05, -0.2 11.1, 0 20" stroke="#495057" stroke-width="2" fill="none"></path></g></g><mask></mask><g stroke-linecap="round"><g transform="translate(60 125) rotate(0 320 0)"><path d="M0 0 C128.35 -0.13, 255.88 -0.05, 640 0 M0 0 C174.15 0.7, 348.06 1.19, 640 0" stroke="#495057" stroke-width="2" fill="none"></path></g></g><mask></mask><g stroke-linecap="round"><g transform="translate(60 125) rotate(0 0 12.5)"><path d="M0 0 C0.32 5.48, -0.26 10.58, 0 25 M0 0 C-0.01 6.41, -0.22 13.82, 0 25" stroke="#495057" stroke-width="2" fill="none"></path></g></g><mask></mask><g stroke-linecap="round"><g transform="translate(180 125) rotate(0 0 12.5)"><path d="M0 0 C0.32 5.48, -0.26 10.58, 0 25 M0 0 C-0.01 6.41, -0.22 13.82, 0 25" stroke="#495057" stroke-width="2" fill="none"></path></g></g><mask></mask><g stroke-linecap="round"><g transform="translate(305 125) rotate(0 0 12.5)"><path d="M0 0 C0.32 5.48, -0.26 10.58, 0 25 M0 0 C-0.01 6.41, -0.22 13.82, 0 25" stroke="#495057" stroke-width="2" fill="none"></path></g></g><mask></mask><g stroke-linecap="round"><g transform="translate(430 125) rotate(0 0 12.5)"><path d="M0 0 C0.32 5.48, -0.26 10.58, 0 25 M0 0 C-0.01 6.41, -0.22 13.82, 0 25" stroke="#495057" stroke-width="2" fill="none"></path></g></g><mask></mask><g stroke-linecap="round"><g transform="translate(560 125) rotate(0 0 12.5)"><path d="M0 0 C0.32 5.48, -0.26 10.58, 0 25 M0 0 C-0.01 6.41, -0.22 13.82, 0 25" stroke="#495057" stroke-width="2" fill="none"></path></g></g><mask></mask><g stroke-linecap="round"><g transform="translate(695 125) rotate(0 0 12.5)"><path d="M0 0 C0.32 5.48, -0.26 10.58, 0 25 M0 0 C-0.01 6.41, -0.22 13.82, 0 25" stroke="#495057" stroke-width="2" fill="none"></path></g></g><mask></mask><g stroke-linecap="round" transform="translate(225 220) rotate(0 80 17.5)"><path d="M8.75 0 C43.36 -0.88, 68.27 0.33, 151.25 0 C159.84 -2.71, 160.43 6.47, 160 8.75 C158.46 14.65, 157.24 22.31, 160 26.25 C157.73 35.39, 159.31 32.97, 151.25 35 C103.95 34.44, 58.11 33.24, 8.75 35 C-0.07 32.22, 0.36 34.47, 0 26.25 C-1.83 19.88, 1.07 20.55, 0 8.75 C2.2 2.16, 2.19 -0.48, 8.75 0" stroke="none" stroke-width="0" fill="#d3f9d8"></path><path d="M8.75 0 C38.11 0.68, 65.43 0.87, 151.25 0 M8.75 0 C47.71 -0.22, 86.04 1, 151.25 0 M151.25 0 C155.79 0.53, 160.88 4.54, 160 8.75 M151.25 0 C157.28 0.56, 158.67 4.65, 160 8.75 M160 8.75 C161.26 11.03, 160.88 17.44, 160 26.25 M160 8.75 C159.48 15.29, 160.13 21.87, 160 26.25 M160 26.25 C160.6 30.48, 157.57 33.28, 151.25 35 M160 26.25 C158.31 32.15, 158.02 35.81, 151.25 35 M151.25 35 C121.57 36.2, 90.81 36.22, 8.75 35 M151.25 35 C120.29 37.07, 89.5 36.42, 8.75 35 M8.75 35 C1.03 34.71, -0.18 32.61, 0 26.25 M8.75 35 C4.75 34.98, 2.16 32.18, 0 26.25 M0 26.25 C-0.76 20.98, 0.98 14.87, 0 8.75 M0 26.25 C-0.54 21.97, 0.52 15.99, 0 8.75 M0 8.75 C0.44 4.91, 1.37 -1.31, 8.75 0 M0 8.75 C-0.62 0.85, 3.93 2.27, 8.75 0" stroke="#2f9e44" stroke-width="1" fill="none"></path></g><g transform="translate(240 230) rotate(0 65 8)"><text x="65" y="11.072" font-family="Virgil, Segoe UI Emoji" font-size="12px" fill="#2f9e44" text-anchor="middle" style="white-space: pre;" direction="ltr" dominant-baseline="alphabetic">DynamicSupervisor</text></g><g stroke-linecap="round"><g transform="translate(305 190) rotate(0 0 15)"><path d="M0 0 C0.3 6.48, -0.28 12.58, 0 30 M0 0 C-0.03 7.77, -0.24 16.54, 0 30" stroke="#495057" stroke-width="1" fill="none"></path></g></g><mask></mask><g stroke-linecap="round" transform="translate(190 280) rotate(0 45 17.5)"><path d="M8.75 0 C27.96 -0.23, 37.47 0.98, 81.25 0 C89.84 -2.71, 90.43 6.47, 90 8.75 C88.46 14.65, 87.24 22.31, 90 26.25 C87.73 35.39, 89.31 32.97, 81.25 35 C57.43 35.02, 35.07 33.82, 8.75 35 C-0.07 32.22, 0.36 34.47, 0 26.25 C-1.83 19.88, 1.07 20.55, 0 8.75 C2.2 2.16, 2.19 -0.48, 8.75 0" stroke="none" stroke-width="0" fill="#f1f3f5"></path><path d="M8.75 0 C24.11 0.82, 37.43 1.02, 81.25 0 M8.75 0 C28.67 -0.5, 47.96 0.72, 81.25 0 M81.25 0 C85.79 0.53, 90.88 4.54, 90 8.75 M81.25 0 C87.28 0.56, 88.67 4.65, 90 8.75 M90 8.75 C91.26 11.03, 90.88 17.44, 90 26.25 M90 8.75 C89.48 15.29, 90.13 21.87, 90 26.25 M90 26.25 C90.6 30.48, 87.57 33.28, 81.25 35 M90 26.25 C88.31 32.15, 88.02 35.81, 81.25 35 M81.25 35 C66.67 35.5, 51.01 35.52, 8.75 35 M81.25 35 C65.4 36.42, 49.72 35.78, 8.75 35 M8.75 35 C1.03 34.71, -0.18 32.61, 0 26.25 M8.75 35 C4.75 34.98, 2.16 32.18, 0 26.25 M0 26.25 C-0.76 20.98, 0.98 14.87, 0 8.75 M0 26.25 C-0.54 21.97, 0.52 15.99, 0 8.75 M0 8.75 C0.44 4.91, 1.37 -1.31, 8.75 0 M0 8.75 C-0.62 0.85, 3.93 2.27, 8.75 0" stroke="#868e96" stroke-width="1" fill="none"></path></g><g transform="translate(205 290) rotate(0 30 8)"><text x="30" y="10.815999999999999" font-family="Virgil, Segoe UI Emoji" font-size="11px" fill="#495057" text-anchor="middle" style="white-space: pre;" direction="ltr" dominant-baseline="alphabetic">Session 1</text></g><g stroke-linecap="round" transform="translate(300 280) rotate(0 45 17.5)"><path d="M8.75 0 C27.96 -0.23, 37.47 0.98, 81.25 0 C89.84 -2.71, 90.43 6.47, 90 8.75 C88.46 14.65, 87.24 22.31, 90 26.25 C87.73 35.39, 89.31 32.97, 81.25 35 C57.43 35.02, 35.07 33.82, 8.75 35 C-0.07 32.22, 0.36 34.47, 0 26.25 C-1.83 19.88, 1.07 20.55, 0 8.75 C2.2 2.16, 2.19 -0.48, 8.75 0" stroke="none" stroke-width="0" fill="#f1f3f5"></path><path d="M8.75 0 C24.11 0.82, 37.43 1.02, 81.25 0 M8.75 0 C28.67 -0.5, 47.96 0.72, 81.25 0 M81.25 0 C85.79 0.53, 90.88 4.54, 90 8.75 M81.25 0 C87.28 0.56, 88.67 4.65, 90 8.75 M90 8.75 C91.26 11.03, 90.88 17.44, 90 26.25 M90 8.75 C89.48 15.29, 90.13 21.87, 90 26.25 M90 26.25 C90.6 30.48, 87.57 33.28, 81.25 35 M90 26.25 C88.31 32.15, 88.02 35.81, 81.25 35 M81.25 35 C66.67 35.5, 51.01 35.52, 8.75 35 M81.25 35 C65.4 36.42, 49.72 35.78, 8.75 35 M8.75 35 C1.03 34.71, -0.18 32.61, 0 26.25 M8.75 35 C4.75 34.98, 2.16 32.18, 0 26.25 M0 26.25 C-0.76 20.98, 0.98 14.87, 0 8.75 M0 26.25 C-0.54 21.97, 0.52 15.99, 0 8.75 M0 8.75 C0.44 4.91, 1.37 -1.31, 8.75 0 M0 8.75 C-0.62 0.85, 3.93 2.27, 8.75 0" stroke="#868e96" stroke-width="1" fill="none"></path></g><g transform="translate(315 290) rotate(0 30 8)"><text x="30" y="10.815999999999999" font-family="Virgil, Segoe UI Emoji" font-size="11px" fill="#495057" text-anchor="middle" style="white-space: pre;" direction="ltr" dominant-baseline="alphabetic">Session N</text></g><g transform="translate(280 285) rotate(0 15 10)"><text x="15" y="14.096" font-family="Virgil, Segoe UI Emoji" font-size="16px" fill="#868e96" text-anchor="middle" style="white-space: pre;" direction="ltr" dominant-baseline="alphabetic">...</text></g><g stroke-linecap="round"><g transform="translate(235 255) rotate(0 0 12.5)"><path d="M0 0 C0.32 5.48, -0.26 10.58, 0 25 M0 0 C-0.01 6.41, -0.22 13.82, 0 25" stroke="#495057" stroke-width="1" fill="none"></path></g></g><mask></mask><g stroke-linecap="round"><g transform="translate(345 255) rotate(0 0 12.5)"><path d="M0 0 C0.32 5.48, -0.26 10.58, 0 25 M0 0 C-0.01 6.41, -0.22 13.82, 0 25" stroke="#495057" stroke-width="1" fill="none"></path></g></g><mask></mask><g stroke-linecap="round" transform="translate(10 250) rotate(0 75 45)"><path d="M22.5 0 C48.86 -0.53, 65.52 0.68, 127.5 0 C145.26 -2.71, 150.43 11.06, 150 22.5 C148.03 37.38, 146.63 54.26, 150 67.5 C147.73 85.81, 144.72 87.97, 127.5 90 C92.78 89.75, 59.52 88.55, 22.5 90 C4.52 87.22, 0.36 84.89, 0 67.5 C-1.93 54.14, 1.38 48.82, 0 22.5 C2.2 6.74, 6.77 -0.48, 22.5 0" stroke="none" stroke-width="0" fill="#ffffff"></path><path d="M22.5 0 C44.36 0.75, 64.18 0.95, 127.5 0 M22.5 0 C51.26 -0.37, 79.39 0.85, 127.5 0 M127.5 0 C141.2 0.53, 150.88 9.13, 150 22.5 M127.5 0 C142.7 0.56, 148.67 9.23, 150 22.5 M150 22.5 C151.33 30.54, 150.89 43.31, 150 67.5 M150 22.5 C149.2 39.71, 149.95 56.97, 150 67.5 M150 67.5 C150.6 80.9, 142.98 88.28, 127.5 90 M150 67.5 C148.31 82.56, 143.44 90.81, 127.5 90 M127.5 90 C105.91 90.83, 83.24 90.85, 22.5 90 M127.5 90 C104.64 91.72, 81.94 91.08, 22.5 90 M22.5 90 C5.61 89.71, -0.18 83.03, 0 67.5 M22.5 90 C9.33 89.98, 2.16 82.6, 0 67.5 M0 67.5 C-1.05 54.31, 0.93 40.16, 0 22.5 M0 67.5 C-0.64 55.7, 0.57 41.95, 0 22.5 M0 22.5 C0.44 9.5, 5.95 -1.31, 22.5 0 M0 22.5 C-0.62 5.43, 8.51 2.27, 22.5 0" stroke="#868e96" stroke-width="1" fill="none"></path></g><g transform="translate(50 255) rotate(0 35 8)"><text x="35" y="11.072" font-family="Virgil, Segoe UI Emoji" font-size="12px" fill="#495057" text-anchor="middle" style="white-space: pre;" direction="ltr" dominant-baseline="alphabetic">Legend</text></g><g stroke-linecap="round" transform="translate(20 275) rotate(0 10 6)"><path d="M3 0 C7.73 0.14, 7.55 0.75, 17 0 C20.99 -1.96, 20.31 3.57, 20 3 C19.62 5, 19.32 7.44, 20 9 C18.36 13.39, 20.61 10.53, 17 12 C12.55 12.23, 8.85 11.63, 3 12 C-1.15 9.99, 0.26 12.73, 0 9 C-0.45 7.02, 0.27 6.78, 0 3 C1.59 0.45, 0.48 -0.34, 3 0" stroke="none" stroke-width="0" fill="#ffc9c9"></path><path d="M3 0 C6.1 0.32, 8.49 0.39, 17 0 M3 0 C6.88 -0.25, 10.54 0.18, 17 0 M17 0 C18.35 0.26, 20.44 1.81, 20 3 M17 0 C19.1 0.28, 19.33 1.87, 20 3 M20 3 C20.22 4.04, 20.15 5.79, 20 9 M20 3 C19.91 5.29, 20.02 7.59, 20 9 M20 9 C20.3 10.2, 19.24 11.14, 17 12 M20 9 C19.16 11.03, 19.47 12.41, 17 12 M17 12 C14.35 11.99, 11.32 12, 3 12 M17 12 C13.91 12.33, 10.87 12.1, 3 12 M3 12 C0.06 11.86, -0.09 11.26, 0 9 M3 12 C1.92 11.99, 1.08 11.05, 0 9 M0 9 C-0.13 7.24, 0.17 5.33, 0 3 M0 9 C-0.09 7.44, 0.09 5.58, 0 3 M0 3 C0.22 2, 0.22 -0.65, 3 0 M0 3 C-0.31 -0.04, 1.51 1.14, 3 0" stroke="#c92a2a" stroke-width="1" fill="none"></path></g><g transform="translate(50 274) rotate(0 50 7)"><text x="0" y="9.559999999999999" font-family="Virgil, Segoe UI Emoji" font-size="10px" fill="#495057" text-anchor="start" style="white-space: pre;" direction="ltr" dominant-baseline="alphabetic">Root Supervisor</text></g><g stroke-linecap="round" transform="translate(20 295) rotate(0 10 6)"><path d="M3 0 C7.73 0.14, 7.55 0.75, 17 0 C20.99 -1.96, 20.31 3.57, 20 3 C19.62 5, 19.32 7.44, 20 9 C18.36 13.39, 20.61 10.53, 17 12 C12.55 12.23, 8.85 11.63, 3 12 C-1.15 9.99, 0.26 12.73, 0 9 C-0.45 7.02, 0.27 6.78, 0 3 C1.59 0.45, 0.48 -0.34, 3 0" stroke="none" stroke-width="0" fill="#a5d8ff"></path><path d="M3 0 C6.1 0.32, 8.49 0.39, 17 0 M3 0 C6.88 -0.25, 10.54 0.18, 17 0 M17 0 C18.35 0.26, 20.44 1.81, 20 3 M17 0 C19.1 0.28, 19.33 1.87, 20 3 M20 3 C20.22 4.04, 20.15 5.79, 20 9 M20 3 C19.91 5.29, 20.02 7.59, 20 9 M20 9 C20.3 10.2, 19.24 11.14, 17 12 M20 9 C19.16 11.03, 19.47 12.41, 17 12 M17 12 C14.35 11.99, 11.32 12, 3 12 M17 12 C13.91 12.33, 10.87 12.1, 3 12 M3 12 C0.06 11.86, -0.09 11.26, 0 9 M3 12 C1.92 11.99, 1.08 11.05, 0 9 M0 9 C-0.13 7.24, 0.17 5.33, 0 3 M0 9 C-0.09 7.44, 0.09 5.58, 0 3 M0 3 C0.22 2, 0.22 -0.65, 3 0 M0 3 C-0.31 -0.04, 1.51 1.14, 3 0" stroke="#1971c2" stroke-width="1" fill="none"></path></g><g transform="translate(50 294) rotate(0 50 7)"><text x="0" y="9.559999999999999" font-family="Virgil, Segoe UI Emoji" font-size="10px" fill="#495057" text-anchor="start" style="white-space: pre;" direction="ltr" dominant-baseline="alphabetic">OTP Application</text></g><g stroke-linecap="round" transform="translate(20 315) rotate(0 10 6)"><path d="M3 0 C7.73 0.14, 7.55 0.75, 17 0 C20.99 -1.96, 20.31 3.57, 20 3 C19.62 5, 19.32 7.44, 20 9 C18.36 13.39, 20.61 10.53, 17 12 C12.55 12.23, 8.85 11.63, 3 12 C-1.15 9.99, 0.26 12.73, 0 9 C-0.45 7.02, 0.27 6.78, 0 3 C1.59 0.45, 0.48 -0.34, 3 0" stroke="none" stroke-width="0" fill="#f1f3f5"></path><path d="M3 0 C6.1 0.32, 8.49 0.39, 17 0 M3 0 C6.88 -0.25, 10.54 0.18, 17 0 M17 0 C18.35 0.26, 20.44 1.81, 20 3 M17 0 C19.1 0.28, 19.33 1.87, 20 3 M20 3 C20.22 4.04, 20.15 5.79, 20 9 M20 3 C19.91 5.29, 20.02 7.59, 20 9 M20 9 C20.3 10.2, 19.24 11.14, 17 12 M20 9 C19.16 11.03, 19.47 12.41, 17 12 M17 12 C14.35 11.99, 11.32 12, 3 12 M17 12 C13.91 12.33, 10.87 12.1, 3 12 M3 12 C0.06 11.86, -0.09 11.26, 0 9 M3 12 C1.92 11.99, 1.08 11.05, 0 9 M0 9 C-0.13 7.24, 0.17 5.33, 0 3 M0 9 C-0.09 7.44, 0.09 5.58, 0 3 M0 3 C0.22 2, 0.22 -0.65, 3 0 M0 3 C-0.31 -0.04, 1.51 1.14, 3 0" stroke="#868e96" stroke-width="1" fill="none"></path></g><g transform="translate(50 314) rotate(0 50 7)"><text x="0" y="9.559999999999999" font-family="Virgil, Segoe UI Emoji" font-size="10px" fill="#495057" text-anchor="start" style="white-space: pre;" direction="ltr" dominant-baseline="alphabetic">Worker Process</text></g><g transform="translate(600 220) rotate(0 85 40)"><text x="0" y="13.072" font-family="Virgil, Segoe UI Emoji" font-size="12px" fill="#868e96" text-anchor="start" style="white-space: pre;" direction="ltr" dominant-baseline="alphabetic">+ LemonChannels</text><text x="0" y="33.072" font-family="Virgil, Segoe UI Emoji" font-size="12px" fill="#868e96" text-anchor="start" style="white-space: pre;" direction="ltr" dominant-baseline="alphabetic">+ LemonAutomation</text><text x="0" y="53.072" font-family="Virgil, Segoe UI Emoji" font-size="12px" fill="#868e96" text-anchor="start" style="white-space: pre;" direction="ltr" dominant-baseline="alphabetic">+ LemonControlPlane</text><text x="0" y="73.072" font-family="Virgil, Segoe UI Emoji" font-size="12px" fill="#868e96" text-anchor="start" style="white-space: pre;" direction="ltr" dominant-baseline="alphabetic">+ LemonSkills</text></g></svg>