<svg version="1.1" xmlns="http://www.w3.org/2000/svg" viewBox="0 0 660 360" width="660" height="360"><!-- svg-source:excalidraw --><metadata></metadata><defs><style class="style-fonts">
      </style></defs><rect x="0" y="0" width="660" height="360" fill="#ffffff"></rect><g transform="translate(210 10) rotate(0 100 15)"><text x="100" y="21.144" font-family="Virgil, Segoe UI Emoji" font-size="24px" fill="#1e1e1e" text-anchor="middle" style="white-space: pre;" direction="ltr" dominant-baseline="alphabetic">Tool Execution Flow</text></g><g stroke-linecap="round" transform="translate(10 70) rotate(0 60 25)"><path d="M12.5 0 C36.66 -0.44, 51.12 0.77, 107.5 0 C118.59 -2.71, 120.43 7.72, 120 12.5 C118.2 20.87, 116.8 31.25, 120 37.5 C117.73 49.14, 118.06 47.97, 107.5 50 C76.13 49.84, 46.23 48.64, 12.5 50 C1.18 47.22, 0.36 48.22, 0 37.5 C-2.06 29.01, 1.26 28.55, 0 12.5 C2.2 3.41, 3.44 -0.48, 12.5 0" stroke="none" stroke-width="0" fill="#a5d8ff"></path><path d="M12.5 0 C32.36 0.77, 50.18 0.97, 107.5 0 M12.5 0 C38.54 -0.41, 63.95 0.81, 107.5 0 M107.5 0 C114.54 0.53, 120.88 5.79, 120 12.5 M107.5 0 C116.03 0.56, 118.67 5.9, 120 12.5 M120 12.5 C121.42 16.19, 120.98 24.61, 120 37.5 M120 12.5 C119.36 21.92, 120.11 31.39, 120 37.5 M120 37.5 C120.6 44.23, 116.32 48.28, 107.5 50 M120 37.5 C118.31 45.9, 116.77 50.81, 107.5 50 M107.5 50 C88.06 50.73, 67.55 50.75, 12.5 50 M107.5 50 C86.8 51.63, 66.26 50.99, 12.5 50 M12.5 50 C2.28 49.71, -0.18 46.36, 0 37.5 M12.5 50 C6 49.98, 2.16 45.93, 0 37.5 M0 37.5 C-0.9 30.05, 1.08 21.63, 0 12.5 M0 37.5 C-0.63 31.23, 0.59 23.01, 0 12.5 M0 12.5 C0.44 6.16, 2.62 -1.31, 12.5 0 M0 12.5 C-0.62 2.1, 5.18 2.27, 12.5 0" stroke="#1971c2" stroke-width="2" fill="none"></path></g><g transform="translate(30 85) rotate(0 40 10)"><text x="40" y="13.584" font-family="Virgil, Segoe UI Emoji" font-size="14px" fill="#1971c2" text-anchor="middle" style="white-space: pre;" direction="ltr" dominant-baseline="alphabetic">AgentCore</text></g><g stroke-linecap="round"><g transform="translate(130 95) rotate(0 30 0)"><path d="M0 0 C12.86 0.84, 23.68 1.04, 60 0 M0 0 C16.52 -0.55, 32.41 0.67, 60 0" stroke="#495057" stroke-width="2" fill="none"></path></g><g transform="translate(130 95) rotate(0 30 0)"><path d="M36.58 8.75 C42.2 7.92, 45.7 6.37, 60 0 M36.58 8.75 C43.22 5.68, 49.17 4.52, 60 0" stroke="#495057" stroke-width="2" fill="none"></path></g><g transform="translate(130 95) rotate(0 30 0)"><path d="M36.43 -8.35 C41.94 -5.76, 45.47 -3.89, 60 0 M36.43 -8.35 C42.97 -6.77, 48.95 -3.28, 60 0" stroke="#495057" stroke-width="2" fill="none"></path></g></g><mask></mask><g transform="translate(135 72) rotate(0 25 8)"><text x="25" y="11.466796875" font-family="Cascadia, Segoe UI Emoji" font-size="10px" fill="#868e96" text-anchor="middle" style="white-space: pre;" direction="ltr" dominant-baseline="alphabetic">tool_call</text></g><g stroke-linecap="round" transform="translate(190 70) rotate(0 65 25)"><path d="M12.5 0 C38.86 -0.53, 55.52 0.68, 117.5 0 C128.59 -2.71, 130.43 7.72, 130 12.5 C128.2 20.87, 126.8 31.25, 130 37.5 C127.73 49.14, 128.06 47.97, 117.5 50 C82.78 49.75, 49.52 48.55, 12.5 50 C1.18 47.22, 0.36 48.22, 0 37.5 C-2.06 29.01, 1.26 28.55, 0 12.5 C2.2 3.41, 3.44 -0.48, 12.5 0" stroke="none" stroke-width="0" fill="#eebefa"></path><path d="M12.5 0 C34.36 0.75, 54.18 0.95, 117.5 0 M12.5 0 C41.26 -0.37, 69.39 0.85, 117.5 0 M117.5 0 C124.54 0.53, 130.88 5.79, 130 12.5 M117.5 0 C126.03 0.56, 128.67 5.9, 130 12.5 M130 12.5 C131.42 16.19, 130.98 24.61, 130 37.5 M130 12.5 C129.36 21.92, 130.11 31.39, 130 37.5 M130 37.5 C130.6 44.23, 126.32 48.28, 117.5 50 M130 37.5 C128.31 45.9, 126.77 50.81, 117.5 50 M117.5 50 C95.91 50.83, 73.24 50.85, 12.5 50 M117.5 50 C94.64 51.72, 71.94 51.08, 12.5 50 M12.5 50 C2.28 49.71, -0.18 46.36, 0 37.5 M12.5 50 C6 49.98, 2.16 45.93, 0 37.5 M0 37.5 C-0.9 30.05, 1.08 21.63, 0 12.5 M0 37.5 C-0.63 31.23, 0.59 23.01, 0 12.5 M0 12.5 C0.44 6.16, 2.62 -1.31, 12.5 0 M0 12.5 C-0.62 2.1, 5.18 2.27, 12.5 0" stroke="#9c36b5" stroke-width="2" fill="none"></path></g><g transform="translate(210 85) rotate(0 45 10)"><text x="45" y="13.584" font-family="Virgil, Segoe UI Emoji" font-size="14px" fill="#9c36b5" text-anchor="middle" style="white-space: pre;" direction="ltr" dominant-baseline="alphabetic">ToolExecutor</text></g><g stroke-linecap="round"><g transform="translate(320 95) rotate(0 30 0)"><path d="M0 0 C12.86 0.84, 23.68 1.04, 60 0 M0 0 C16.52 -0.55, 32.41 0.67, 60 0" stroke="#495057" stroke-width="2" fill="none"></path></g><g transform="translate(320 95) rotate(0 30 0)"><path d="M36.58 8.75 C42.2 7.92, 45.7 6.37, 60 0 M36.58 8.75 C43.22 5.68, 49.17 4.52, 60 0" stroke="#495057" stroke-width="2" fill="none"></path></g><g transform="translate(320 95) rotate(0 30 0)"><path d="M36.43 -8.35 C41.94 -5.76, 45.47 -3.89, 60 0 M36.43 -8.35 C42.97 -6.77, 48.95 -3.28, 60 0" stroke="#495057" stroke-width="2" fill="none"></path></g></g><mask></mask><g transform="translate(325 72) rotate(0 25 8)"><text x="25" y="11.466796875" font-family="Cascadia, Segoe UI Emoji" font-size="10px" fill="#868e96" text-anchor="middle" style="white-space: pre;" direction="ltr" dominant-baseline="alphabetic">check</text></g><g stroke-linecap="round" transform="translate(380 55) rotate(0 45 40)"><path d="M45.53 0.23 L88.11 40.71 L45.82 80.53 L1.59 40.98" stroke="none" stroke-width="0" fill="#ffec99" fill-rule="evenodd"></path><path d="M46 0 C55.32 9.07, 62.94 17.47, 90 41 M46 0 C57.81 10.54, 69.35 22.91, 90 41 M90 41 C81.38 50.54, 69.9 58.37, 46 80 M90 41 C73.39 56.2, 55.78 70.62, 46 80 M46 80 C30.41 64.65, 11.76 52.05, 0 41 M46 80 C35.04 69.38, 22.99 60.87, 0 41 M0 41 C16.05 29.4, 32.25 13.24, 46 0 M0 41 C15.84 27.89, 32.18 13.32, 46 0" stroke="#e67700" stroke-width="2" fill="none"></path></g><g transform="translate(400 85) rotate(0 25 10)"><text x="25" y="13.584" font-family="Virgil, Segoe UI Emoji" font-size="14px" fill="#e67700" text-anchor="middle" style="white-space: pre;" direction="ltr" dominant-baseline="alphabetic">Policy</text></g><g stroke-linecap="round"><g transform="translate(425 135) rotate(0 0 22.5)"><path d="M0 0 C0.24 9.48, -0.35 18.58, 0 45 M0 0 C-0.1 11.85, -0.31 24.7, 0 45" stroke="#c92a2a" stroke-width="2" fill="none"></path></g><g transform="translate(425 135) rotate(0 0 22.5)"><path d="M-7.89 23.93 C-5.97 28.62, -4.98 32.93, 0 45 M-7.89 23.93 C-5.74 29.28, -3.8 35.62, 0 45" stroke="#c92a2a" stroke-width="2" fill="none"></path></g><g transform="translate(425 135) rotate(0 0 22.5)"><path d="M7.5 23.79 C6.34 28.52, 4.25 32.86, 0 45 M7.5 23.79 C5.46 29.15, 3.21 35.53, 0 45" stroke="#c92a2a" stroke-width="2" fill="none"></path></g></g><mask></mask><g transform="translate(435 148) rotate(0 40 8)"><text x="0" y="10.559999999999999" font-family="Virgil, Segoe UI Emoji" font-size="10px" fill="#c92a2a" text-anchor="start" style="white-space: pre;" direction="ltr" dominant-baseline="alphabetic">needs approval</text></g><g stroke-linecap="round" transform="translate(360 180) rotate(0 65 25)"><path d="M12.5 0 C38.86 -0.53, 55.52 0.68, 117.5 0 C128.59 -2.71, 130.43 7.72, 130 12.5 C128.2 20.87, 126.8 31.25, 130 37.5 C127.73 49.14, 128.06 47.97, 117.5 50 C82.78 49.75, 49.52 48.55, 12.5 50 C1.18 47.22, 0.36 48.22, 0 37.5 C-2.06 29.01, 1.26 28.55, 0 12.5 C2.2 3.41, 3.44 -0.48, 12.5 0" stroke="none" stroke-width="0" fill="#ffc9c9"></path><path d="M12.5 0 C34.36 0.75, 54.18 0.95, 117.5 0 M12.5 0 C41.26 -0.37, 69.39 0.85, 117.5 0 M117.5 0 C124.54 0.53, 130.88 5.79, 130 12.5 M117.5 0 C126.03 0.56, 128.67 5.9, 130 12.5 M130 12.5 C131.42 16.19, 130.98 24.61, 130 37.5 M130 12.5 C129.36 21.92, 130.11 31.39, 130 37.5 M130 37.5 C130.6 44.23, 126.32 48.28, 117.5 50 M130 37.5 C128.31 45.9, 126.77 50.81, 117.5 50 M117.5 50 C95.91 50.83, 73.24 50.85, 12.5 50 M117.5 50 C94.64 51.72, 71.94 51.08, 12.5 50 M12.5 50 C2.28 49.71, -0.18 46.36, 0 37.5 M12.5 50 C6 49.98, 2.16 45.93, 0 37.5 M0 37.5 C-0.9 30.05, 1.08 21.63, 0 12.5 M0 37.5 C-0.63 31.23, 0.59 23.01, 0 12.5 M0 12.5 C0.44 6.16, 2.62 -1.31, 12.5 0 M0 12.5 C-0.62 2.1, 5.18 2.27, 12.5 0" stroke="#c92a2a" stroke-width="2" fill="none"></path></g><g transform="translate(375 195) rotate(0 50 10)"><text x="50" y="13.328" font-family="Virgil, Segoe UI Emoji" font-size="13px" fill="#c92a2a" text-anchor="middle" style="white-space: pre;" direction="ltr" dominant-baseline="alphabetic">ApprovalsBridge</text></g><g stroke-linecap="round"><g transform="translate(470 95) rotate(0 30 0)"><path d="M0 0 C12.86 0.84, 23.68 1.04, 60 0 M0 0 C16.52 -0.55, 32.41 0.67, 60 0" stroke="#2f9e44" stroke-width="2" fill="none"></path></g><g transform="translate(470 95) rotate(0 30 0)"><path d="M36.58 8.75 C42.2 7.92, 45.7 6.37, 60 0 M36.58 8.75 C43.22 5.68, 49.17 4.52, 60 0" stroke="#2f9e44" stroke-width="2" fill="none"></path></g><g transform="translate(470 95) rotate(0 30 0)"><path d="M36.43 -8.35 C41.94 -5.76, 45.47 -3.89, 60 0 M36.43 -8.35 C42.97 -6.77, 48.95 -3.28, 60 0" stroke="#2f9e44" stroke-width="2" fill="none"></path></g></g><mask></mask><g transform="translate(475 72) rotate(0 25 8)"><text x="25" y="10.559999999999999" font-family="Virgil, Segoe UI Emoji" font-size="10px" fill="#2f9e44" text-anchor="middle" style="white-space: pre;" direction="ltr" dominant-baseline="alphabetic">allowed</text></g><g stroke-linecap="round" transform="translate(530 70) rotate(0 60 25)"><path d="M12.5 0 C36.66 -0.44, 51.12 0.77, 107.5 0 C118.59 -2.71, 120.43 7.72, 120 12.5 C118.2 20.87, 116.8 31.25, 120 37.5 C117.73 49.14, 118.06 47.97, 107.5 50 C76.13 49.84, 46.23 48.64, 12.5 50 C1.18 47.22, 0.36 48.22, 0 37.5 C-2.06 29.01, 1.26 28.55, 0 12.5 C2.2 3.41, 3.44 -0.48, 12.5 0" stroke="none" stroke-width="0" fill="#b2f2bb"></path><path d="M12.5 0 C32.36 0.77, 50.18 0.97, 107.5 0 M12.5 0 C38.54 -0.41, 63.95 0.81, 107.5 0 M107.5 0 C114.54 0.53, 120.88 5.79, 120 12.5 M107.5 0 C116.03 0.56, 118.67 5.9, 120 12.5 M120 12.5 C121.42 16.19, 120.98 24.61, 120 37.5 M120 12.5 C119.36 21.92, 120.11 31.39, 120 37.5 M120 37.5 C120.6 44.23, 116.32 48.28, 107.5 50 M120 37.5 C118.31 45.9, 116.77 50.81, 107.5 50 M107.5 50 C88.06 50.73, 67.55 50.75, 12.5 50 M107.5 50 C86.8 51.63, 66.26 50.99, 12.5 50 M12.5 50 C2.28 49.71, -0.18 46.36, 0 37.5 M12.5 50 C6 49.98, 2.16 45.93, 0 37.5 M0 37.5 C-0.9 30.05, 1.08 21.63, 0 12.5 M0 37.5 C-0.63 31.23, 0.59 23.01, 0 12.5 M0 12.5 C0.44 6.16, 2.62 -1.31, 12.5 0 M0 12.5 C-0.62 2.1, 5.18 2.27, 12.5 0" stroke="#2f9e44" stroke-width="2" fill="none"></path></g><g transform="translate(550 85) rotate(0 40 10)"><text x="40" y="13.584" font-family="Virgil, Segoe UI Emoji" font-size="14px" fill="#2f9e44" text-anchor="middle" style="white-space: pre;" direction="ltr" dominant-baseline="alphabetic">Tool.execute</text></g><g stroke-linecap="round"><g transform="translate(590 120) rotate(0 0 25)"><path d="M0 0 C0.44 10.96, -0.73 21.16, 0 50 M0 0 C-0.24 12.81, -0.66 27.63, 0 50" stroke="#495057" stroke-width="2" fill="none"></path></g><g transform="translate(590 120) rotate(0 0 25)"><path d="M-8.98 26.67 C-6.52 32.28, -5.9 37.15, 0 50 M-8.98 26.67 C-6.54 32.26, -4.53 39.83, 0 50" stroke="#495057" stroke-width="2" fill="none"></path></g><g transform="translate(590 120) rotate(0 0 25)"><path d="M8.12 26.35 C7.15 32.06, 4.35 36.99, 0 50 M8.12 26.35 C5.9 31.97, 3.27 39.62, 0 50" stroke="#495057" stroke-width="2" fill="none"></path></g></g><mask></mask><g stroke-linecap="round" transform="translate(530 170) rotate(0 60 25)"><path d="M12.5 0 C36.66 -0.44, 51.12 0.77, 107.5 0 C118.59 -2.71, 120.43 7.72, 120 12.5 C118.2 20.87, 116.8 31.25, 120 37.5 C117.73 49.14, 118.06 47.97, 107.5 50 C76.13 49.84, 46.23 48.64, 12.5 50 C1.18 47.22, 0.36 48.22, 0 37.5 C-2.06 29.01, 1.26 28.55, 0 12.5 C2.2 3.41, 3.44 -0.48, 12.5 0" stroke="none" stroke-width="0" fill="#f1f3f5"></path><path d="M12.5 0 C32.36 0.77, 50.18 0.97, 107.5 0 M12.5 0 C38.54 -0.41, 63.95 0.81, 107.5 0 M107.5 0 C114.54 0.53, 120.88 5.79, 120 12.5 M107.5 0 C116.03 0.56, 118.67 5.9, 120 12.5 M120 12.5 C121.42 16.19, 120.98 24.61, 120 37.5 M120 12.5 C119.36 21.92, 120.11 31.39, 120 37.5 M120 37.5 C120.6 44.23, 116.32 48.28, 107.5 50 M120 37.5 C118.31 45.9, 116.77 50.81, 107.5 50 M107.5 50 C88.06 50.73, 67.55 50.75, 12.5 50 M107.5 50 C86.8 51.63, 66.26 50.99, 12.5 50 M12.5 50 C2.28 49.71, -0.18 46.36, 0 37.5 M12.5 50 C6 49.98, 2.16 45.93, 0 37.5 M0 37.5 C-0.9 30.05, 1.08 21.63, 0 12.5 M0 37.5 C-0.63 31.23, 0.59 23.01, 0 12.5 M0 12.5 C0.44 6.16, 2.62 -1.31, 12.5 0 M0 12.5 C-0.62 2.1, 5.18 2.27, 12.5 0" stroke="#495057" stroke-width="2" fill="none"></path></g><g transform="translate(550 185) rotate(0 40 10)"><text x="40" y="13.584" font-family="Virgil, Segoe UI Emoji" font-size="14px" fill="#495057" text-anchor="middle" style="white-space: pre;" direction="ltr" dominant-baseline="alphabetic">ToolResult</text></g><g stroke-linecap="round"><g transform="translate(530 195) rotate(0 -230 0)"><path d="M0 0 C-91.6 0.88, -184.15 0.98, -460 0" stroke="#495057" stroke-width="2.5" fill="none" stroke-dasharray="8 10"></path></g><g transform="translate(530 195) rotate(0 -230 0)"><path d="M-436.48 -8.48 C-440.4 -5.77, -446.28 -3.88, -460 0" stroke="#495057" stroke-width="2.5" fill="none"></path></g><g transform="translate(530 195) rotate(0 -230 0)"><path d="M-436.53 8.62 C-440.3 7.91, -446.17 6.38, -460 0" stroke="#495057" stroke-width="2.5" fill="none"></path></g></g><mask></mask><g stroke-linecap="round" transform="translate(10 270) rotate(0 320 40)"><path d="M20 0 C153.29 -2.08, 282.71 -1.59, 620 0 C636.09 -2.71, 640.43 10.22, 640 20 C638.07 33.25, 636.67 48.51, 640 60 C637.73 76.64, 635.56 77.97, 620 80 C418.95 78.26, 218.48 77.78, 20 80 C3.68 77.22, 0.36 75.72, 0 60 C-1.96 47.86, 1.35 43.75, 0 20 C2.2 5.91, 5.94 -0.48, 20 0" stroke="none" stroke-width="0" fill="#f8f9fa"></path><path d="M20 0 C140.35 -0.1, 259.88 -0.02, 620 0 M20 0 C183.27 0.64, 346.3 1.12, 620 0 M620 0 C632.04 0.53, 640.88 8.29, 640 20 M620 0 C633.53 0.56, 638.67 8.4, 640 20 M640 20 C641.35 26.95, 640.91 38.63, 640 60 M640 20 C639.24 35.26, 639.99 50.57, 640 60 M640 60 C640.6 71.73, 633.82 78.28, 620 80 M640 60 C638.31 73.4, 634.27 80.81, 620 80 M620 80 C491.02 82.29, 361.61 82.3, 20 80 M620 80 C490.43 82.51, 360.92 82.25, 20 80 M20 80 C4.78 79.71, -0.18 73.86, 0 60 M20 80 C8.5 79.98, 2.16 73.43, 0 60 M0 60 C-1.01 48.25, 0.97 35.53, 0 20 M0 60 C-0.64 49.58, 0.58 37.21, 0 20 M0 20 C0.44 8.66, 5.12 -1.31, 20 0 M0 20 C-0.62 4.6, 7.68 2.27, 20 0" stroke="#868e96" stroke-width="1" fill="none"></path></g><g transform="translate(260 280) rotate(0 70 10)"><text x="70" y="13.584" font-family="Virgil, Segoe UI Emoji" font-size="14px" fill="#495057" text-anchor="middle" style="white-space: pre;" direction="ltr" dominant-baseline="alphabetic">Tool Policy Profiles</text></g><g transform="translate(40 305) rotate(0 290 17.5)"><text x="290" y="21.66015625" font-family="Cascadia, Segoe UI Emoji" font-size="12px" fill="#868e96" text-anchor="middle" style="white-space: pre;" direction="ltr" dominant-baseline="alphabetic">:full_access  |  :read_only  |  :safe_mode  |  :subagent_restricted  |  :no_external</text></g><g stroke-linecap="round"><g transform="translate(490 200) rotate(0 20 -52.5)"><path d="M0 0 C9.27 -9.12, 16.1 -18.92, 40 -50 M40 -50 C40.87 -66.53, 40.02 -79.06, 40 -105" stroke="#2f9e44" stroke-width="2.5" fill="none" stroke-dasharray="8 10"></path></g><g transform="translate(490 200) rotate(0 20 -52.5)"><path d="M48.75 -81.58 C48.05 -85.28, 45.13 -89.77, 40 -105" stroke="#2f9e44" stroke-width="2.5" fill="none"></path></g><g transform="translate(490 200) rotate(0 20 -52.5)"><path d="M31.65 -81.44 C34.37 -85.2, 34.87 -89.72, 40 -105" stroke="#2f9e44" stroke-width="2.5" fill="none"></path></g></g><mask></mask><g transform="translate(496 135) rotate(0 30 7)"><text x="0" y="9.559999999999999" font-family="Virgil, Segoe UI Emoji" font-size="10px" fill="#2f9e44" text-anchor="start" style="white-space: pre;" direction="ltr" dominant-baseline="alphabetic">approved</text></g></svg>